%TF.GenerationSoftware,KiCad,Pcbnew,10.99.0-unknown*%
%TF.CreationDate,2026-08-01T01:27:28-06:00*%
%TF.ProjectId,TMR2615F_osu_pad,544d5232-3631-4354-965f-6f73755f7061,rev?*%
%TF.SameCoordinates,Original*%
%TF.FileFunction,Soldermask,Top*%
%TF.FilePolarity,Negative*%
%FSLAX46Y46*%
G04 Gerber Fmt 4.6, Leading zero omitted, Abs format (unit mm)*
G04 Created by KiCad (PCBNEW 10.99.0-unknown) date 2026-08-01 01:27:28*
%MOMM*%
%LPD*%
G01*
G04 APERTURE LIST*
G04 Aperture macros list*
%AMRoundRect*
0 Rectangle with rounded corners*
0 $1 Rounding radius*
0 $2 $3 $4 $5 $6 $7 $8 $9 X,Y pos of 4 corners*
0 Add a 4 corners polygon primitive as box body*
4,1,4,$2,$3,$4,$5,$6,$7,$8,$9,$2,$3,0*
0 Add four circle primitives for the rounded corners*
1,1,$1+$1,$2,$3*
1,1,$1+$1,$4,$5*
1,1,$1+$1,$6,$7*
1,1,$1+$1,$8,$9*
0 Add four rect primitives between the rounded corners*
20,1,$1+$1,$2,$3,$4,$5,0*
20,1,$1+$1,$4,$5,$6,$7,0*
20,1,$1+$1,$6,$7,$8,$9,0*
20,1,$1+$1,$8,$9,$2,$3,0*%
%AMRotRect*
0 Rectangle, with rotation*
0 The origin of the aperture is its center*
0 $1 length*
0 $2 width*
0 $3 Rotation angle, in degrees counterclockwise*
0 Add horizontal line*
21,1,$1,$2,0,0,$3*%
%AMFreePoly0*
4,1,9,0.299924,-0.649936,-0.000051,-0.649936,-0.000051,-0.650089,-0.300051,-0.650089,-0.300051,0.649936,-0.000076,0.649936,-0.000076,0.650089,0.299924,0.650089,0.299924,-0.649936,0.299924,-0.649936,$1*%
%AMFreePoly1*
4,1,9,0.300076,-0.650038,0.000127,-0.650038,0.000127,-0.650064,-0.299898,-0.650064,-0.299898,0.649911,0.000051,0.649911,0.000051,0.649936,0.300076,0.649936,0.300076,-0.650038,0.300076,-0.650038,$1*%
%AMFreePoly2*
4,1,5,0.299873,-0.649886,-0.300152,-0.649886,-0.300152,0.650089,0.299873,0.650089,0.299873,-0.649886,0.299873,-0.649886,$1*%
G04 Aperture macros list end*
%ADD10RoundRect,0.087500X-0.425000X-0.087500X0.425000X-0.087500X0.425000X0.087500X-0.425000X0.087500X0*%
%ADD11RoundRect,0.080000X0.120000X0.135000X-0.120000X0.135000X-0.120000X-0.135000X0.120000X-0.135000X0*%
%ADD12RoundRect,0.070000X-0.530000X-0.105000X0.530000X-0.105000X0.530000X0.105000X-0.530000X0.105000X0*%
%ADD13RoundRect,0.250000X0.250000X0.475000X-0.250000X0.475000X-0.250000X-0.475000X0.250000X-0.475000X0*%
%ADD14RoundRect,0.135000X-0.185000X0.135000X-0.185000X-0.135000X0.185000X-0.135000X0.185000X0.135000X0*%
%ADD15RoundRect,0.225000X0.250000X-0.225000X0.250000X0.225000X-0.250000X0.225000X-0.250000X-0.225000X0*%
%ADD16RoundRect,0.135000X-0.135000X-0.185000X0.135000X-0.185000X0.135000X0.185000X-0.135000X0.185000X0*%
%ADD17RoundRect,0.140000X-0.170000X0.140000X-0.170000X-0.140000X0.170000X-0.140000X0.170000X0.140000X0*%
%ADD18RoundRect,0.135000X0.135000X0.185000X-0.135000X0.185000X-0.135000X-0.185000X0.135000X-0.185000X0*%
%ADD19RoundRect,0.140000X0.140000X0.170000X-0.140000X0.170000X-0.140000X-0.170000X0.140000X-0.170000X0*%
%ADD20C,0.700000*%
%ADD21C,4.400000*%
%ADD22RoundRect,0.218750X-0.335876X-0.026517X-0.026517X-0.335876X0.335876X0.026517X0.026517X0.335876X0*%
%ADD23C,1.750000*%
%ADD24C,3.987800*%
%ADD25C,3.300000*%
%ADD26RoundRect,0.250000X-1.025000X-1.000000X1.025000X-1.000000X1.025000X1.000000X-1.025000X1.000000X0*%
%ADD27R,1.700000X1.700000*%
%ADD28C,1.700000*%
%ADD29C,2.000000*%
%ADD30R,0.600000X1.070003*%
%ADD31RotRect,0.200000X1.459995X45.000000*%
%ADD32RotRect,1.459995X0.200000X45.000000*%
%ADD33RoundRect,0.135000X0.185000X-0.135000X0.185000X0.135000X-0.185000X0.135000X-0.185000X-0.135000X0*%
%ADD34RoundRect,0.140000X-0.140000X-0.170000X0.140000X-0.170000X0.140000X0.170000X-0.140000X0.170000X0*%
%ADD35C,0.750013*%
%ADD36O,1.200000X2.000000*%
%ADD37O,1.200000X1.800000*%
%ADD38FreePoly0,180.000000*%
%ADD39FreePoly1,180.000000*%
%ADD40R,0.300000X1.300000*%
%ADD41FreePoly2,180.000000*%
%ADD42RoundRect,0.140000X0.021213X-0.219203X0.219203X-0.021213X-0.021213X0.219203X-0.219203X0.021213X0*%
%ADD43R,1.700000X0.800000*%
%ADD44RoundRect,0.150000X0.150000X-0.512500X0.150000X0.512500X-0.150000X0.512500X-0.150000X-0.512500X0*%
%ADD45RoundRect,0.135000X-0.226274X-0.035355X-0.035355X-0.226274X0.226274X0.035355X0.035355X0.226274X0*%
%ADD46RoundRect,0.087500X0.425000X0.087500X-0.425000X0.087500X-0.425000X-0.087500X0.425000X-0.087500X0*%
%ADD47R,0.800000X1.700000*%
%ADD48R,0.650013X0.600000*%
%ADD49R,0.324994X0.700000*%
%ADD50RoundRect,0.140000X0.219203X0.021213X0.021213X0.219203X-0.219203X-0.021213X-0.021213X-0.219203X0*%
%ADD51RoundRect,0.250000X-0.250000X-0.475000X0.250000X-0.475000X0.250000X0.475000X-0.250000X0.475000X0*%
%ADD52O,0.364008X1.086995*%
%ADD53O,1.086995X0.364008*%
%ADD54R,3.150013X3.150013*%
%ADD55RoundRect,0.140000X-0.219203X-0.021213X-0.021213X-0.219203X0.219203X0.021213X0.021213X0.219203X0*%
%ADD56RoundRect,0.250000X-0.250000X0.250000X-0.250000X-0.250000X0.250000X-0.250000X0.250000X0.250000X0*%
%ADD57RoundRect,0.225000X-0.250000X0.225000X-0.250000X-0.225000X0.250000X-0.225000X0.250000X0.225000X0*%
%ADD58RoundRect,0.140000X0.170000X-0.140000X0.170000X0.140000X-0.170000X0.140000X-0.170000X-0.140000X0*%
%ADD59RoundRect,0.225000X0.225000X0.250000X-0.225000X0.250000X-0.225000X-0.250000X0.225000X-0.250000X0*%
%ADD60RoundRect,0.250000X-0.475000X0.250000X-0.475000X-0.250000X0.475000X-0.250000X0.475000X0.250000X0*%
%ADD61RotRect,1.400000X1.200000X45.000000*%
%ADD62R,0.600000X1.600000*%
%ADD63R,1.200000X2.000000*%
%ADD64R,0.800000X0.800000*%
%ADD65R,1.100000X0.600000*%
%ADD66RoundRect,0.150000X0.512500X0.150000X-0.512500X0.150000X-0.512500X-0.150000X0.512500X-0.150000X0*%
%ADD67R,0.200000X0.764999*%
%ADD68R,0.200000X0.664999*%
%ADD69R,0.664999X0.200000*%
%ADD70C,0.990600*%
G04 APERTURE END LIST*
D10*
%TO.C,U7*%
X119187494Y-94224999D03*
X119187494Y-94874999D03*
X119187494Y-95524999D03*
X120862494Y-95524999D03*
X120862494Y-94874999D03*
X120862494Y-94224999D03*
%TD*%
D11*
%TO.C,U15*%
X110509988Y-120209998D03*
X109509988Y-120209998D03*
X110009988Y-121689998D03*
D12*
X110009988Y-120949998D03*
%TD*%
D13*
%TO.C,C3*%
X138399994Y-102974999D03*
X136499994Y-102974999D03*
%TD*%
%TO.C,C5*%
X95274994Y-101224999D03*
X93374994Y-101224999D03*
%TD*%
%TO.C,C2*%
X138399994Y-100999999D03*
X136499994Y-100999999D03*
%TD*%
D14*
%TO.C,R26*%
X87704995Y-110894999D03*
X87704995Y-111914999D03*
%TD*%
D15*
%TO.C,C50*%
X106909994Y-138494999D03*
X106909994Y-136944999D03*
%TD*%
D16*
%TO.C,R9*%
X128539994Y-103374999D03*
X129559994Y-103374999D03*
%TD*%
D14*
%TO.C,R14*%
X121724994Y-126739999D03*
X121724994Y-127759999D03*
%TD*%
D17*
%TO.C,C14*%
X135274956Y-104533990D03*
X135274956Y-105493990D03*
%TD*%
D18*
%TO.C,R29*%
X90039994Y-118910000D03*
X89019994Y-118909998D03*
%TD*%
D19*
%TO.C,C53*%
X129959994Y-137969999D03*
X128999994Y-137969999D03*
%TD*%
D14*
%TO.C,R21*%
X123174996Y-139415000D03*
X123174992Y-140434998D03*
%TD*%
D18*
%TO.C,R18*%
X104899993Y-95024998D03*
X103879995Y-95025002D03*
%TD*%
D15*
%TO.C,C38*%
X106909988Y-119444998D03*
X106909988Y-117894998D03*
%TD*%
D17*
%TO.C,C44*%
X136359994Y-124219999D03*
X136359994Y-125179999D03*
%TD*%
D20*
%TO.C,H1*%
X100908268Y-102308273D03*
X101391542Y-101141547D03*
X101391542Y-103474999D03*
X102558268Y-100658273D03*
D21*
X102558268Y-102308273D03*
D20*
X102558268Y-103958273D03*
X103724994Y-101141547D03*
X103724994Y-103474999D03*
X104208268Y-102308273D03*
%TD*%
D22*
%TO.C,L1*%
X126818147Y-109618152D03*
X127931841Y-110731846D03*
%TD*%
D23*
%TO.C,SW4*%
X108019994Y-120949999D03*
D24*
X113099994Y-120949999D03*
D23*
X118179994Y-120949999D03*
D25*
X116909994Y-118409999D03*
D26*
X120459994Y-118409999D03*
X107009994Y-115869999D03*
D25*
X110559994Y-115869999D03*
%TD*%
D27*
%TO.C,J7*%
X141039994Y-120949999D03*
D28*
X141039994Y-123489999D03*
X141039994Y-126029999D03*
X141039994Y-128569999D03*
X141039994Y-131109999D03*
X141039994Y-133649999D03*
%TD*%
D29*
%TO.C,FID2*%
X90099994Y-149199999D03*
%TD*%
D14*
%TO.C,R16*%
X124174996Y-139415000D03*
X124174992Y-140434998D03*
%TD*%
D30*
%TO.C,U8*%
X94799956Y-106730484D03*
X92900032Y-106730486D03*
X93849994Y-109200640D03*
%TD*%
D31*
%TO.C,U10*%
X118520782Y-112034212D03*
X118803660Y-111751334D03*
X119086539Y-111468455D03*
X119369238Y-111185756D03*
X119652116Y-110902878D03*
X119934995Y-110619999D03*
X120217874Y-110337120D03*
X120500753Y-110054241D03*
X120783451Y-109771543D03*
X121066330Y-109488664D03*
X121349209Y-109205785D03*
X121632088Y-108922906D03*
X121914966Y-108640028D03*
X122197665Y-108357329D03*
X122480544Y-108074450D03*
X122763422Y-107791572D03*
D32*
X122763422Y-106193442D03*
X122480544Y-105910564D03*
X122197665Y-105627685D03*
X121914966Y-105344986D03*
X121632088Y-105062108D03*
X121349209Y-104779229D03*
X121066330Y-104496350D03*
X120783451Y-104213471D03*
X120500753Y-103930773D03*
X120217874Y-103647894D03*
X119934995Y-103365015D03*
X119652116Y-103082136D03*
X119369238Y-102799258D03*
X119086539Y-102516559D03*
X118803660Y-102233680D03*
X118520782Y-101950802D03*
D31*
X116922652Y-101950802D03*
X116639774Y-102233680D03*
X116356895Y-102516559D03*
X116074196Y-102799258D03*
X115791318Y-103082136D03*
X115508439Y-103365015D03*
X115225560Y-103647894D03*
X114942681Y-103930773D03*
X114659983Y-104213471D03*
X114377104Y-104496350D03*
X114094225Y-104779229D03*
X113811346Y-105062108D03*
X113528468Y-105344986D03*
X113245769Y-105627685D03*
X112962890Y-105910564D03*
X112680012Y-106193442D03*
D32*
X112680012Y-107791572D03*
X112962890Y-108074450D03*
X113245769Y-108357329D03*
X113528468Y-108640028D03*
X113811346Y-108922906D03*
X114094225Y-109205785D03*
X114377104Y-109488664D03*
X114659983Y-109771543D03*
X114942681Y-110054241D03*
X115225560Y-110337120D03*
X115508439Y-110619999D03*
X115791318Y-110902878D03*
X116074196Y-111185756D03*
X116356895Y-111468455D03*
X116639774Y-111751334D03*
X116922652Y-112034212D03*
%TD*%
D18*
%TO.C,R5*%
X118159994Y-100624998D03*
X117139994Y-100625000D03*
%TD*%
D33*
%TO.C,R23*%
X132349560Y-113290371D03*
X132349564Y-112270373D03*
%TD*%
D34*
%TO.C,C15*%
X96469994Y-99399999D03*
X97429994Y-99399999D03*
%TD*%
D16*
%TO.C,R1*%
X135389994Y-94124999D03*
X136409994Y-94124999D03*
%TD*%
D35*
%TO.C,J1*%
X130999918Y-96155612D03*
X125200070Y-96155612D03*
D36*
X123774873Y-96655739D03*
D37*
X123774873Y-92475907D03*
X132425115Y-92475907D03*
D36*
X132425115Y-96655739D03*
D38*
X131299892Y-97424091D03*
D39*
X130500045Y-97424091D03*
D40*
X129349930Y-97424091D03*
X128349930Y-97424091D03*
X127850058Y-97424091D03*
X126850312Y-97424091D03*
D41*
X124899842Y-97424091D03*
X125699689Y-97424091D03*
D40*
X126349930Y-97424091D03*
X127349930Y-97424091D03*
X128850058Y-97424091D03*
X129850058Y-97424091D03*
%TD*%
D42*
%TO.C,C26*%
X113860583Y-103039410D03*
X114539405Y-102360588D03*
%TD*%
D43*
%TO.C,U24*%
X129450102Y-145805044D03*
X129450102Y-144354956D03*
X134849898Y-144354956D03*
X134849898Y-145805044D03*
%TD*%
D29*
%TO.C,FID3*%
X135499994Y-149074999D03*
%TD*%
D16*
%TO.C,R3*%
X133514994Y-95100000D03*
X134534994Y-95099998D03*
%TD*%
D44*
%TO.C,U1*%
X133074994Y-101637499D03*
X134024994Y-101637499D03*
X134974994Y-101637499D03*
X134974994Y-99362499D03*
X134024994Y-99362499D03*
X133074994Y-99362499D03*
%TD*%
D15*
%TO.C,C54*%
X125959994Y-138494999D03*
X125959994Y-136944999D03*
%TD*%
D16*
%TO.C,R13*%
X128289994Y-98949999D03*
X129309994Y-98949999D03*
%TD*%
D18*
%TO.C,R32*%
X90039994Y-137959999D03*
X89019994Y-137959999D03*
%TD*%
D34*
%TO.C,C51*%
X108349994Y-141449999D03*
X109309994Y-141449999D03*
%TD*%
D19*
%TO.C,C33*%
X91859994Y-118919999D03*
X90899994Y-118919999D03*
%TD*%
D45*
%TO.C,R25*%
X115439369Y-100064375D03*
X116160619Y-100785623D03*
%TD*%
D35*
%TO.C,J2*%
X100999918Y-96155612D03*
X95200070Y-96155612D03*
D36*
X93774873Y-96655739D03*
D37*
X93774873Y-92475907D03*
X102425115Y-92475907D03*
D36*
X102425115Y-96655739D03*
D38*
X101299892Y-97424091D03*
D39*
X100500045Y-97424091D03*
D40*
X99349930Y-97424091D03*
X98349930Y-97424091D03*
X97850058Y-97424091D03*
X96850312Y-97424091D03*
D41*
X94899842Y-97424091D03*
X95699689Y-97424091D03*
D40*
X96349930Y-97424091D03*
X97349930Y-97424091D03*
X98850058Y-97424091D03*
X99850058Y-97424091D03*
%TD*%
D46*
%TO.C,U2*%
X122077494Y-93224999D03*
X122077494Y-92574999D03*
X122077494Y-91924999D03*
X120402494Y-91924999D03*
X120402494Y-92574999D03*
X120402494Y-93224999D03*
%TD*%
D34*
%TO.C,C39*%
X108349988Y-122399998D03*
X109309988Y-122399998D03*
%TD*%
D23*
%TO.C,SW3*%
X88970000Y-120950000D03*
D24*
X94050000Y-120950000D03*
D23*
X99130000Y-120950000D03*
D25*
X97860000Y-118410000D03*
D26*
X101410000Y-118410000D03*
X87960000Y-115870000D03*
D25*
X91510000Y-115870000D03*
%TD*%
D34*
%TO.C,C43*%
X127399994Y-122399999D03*
X128359994Y-122399999D03*
%TD*%
D27*
%TO.C,J5*%
X141039994Y-93009999D03*
D28*
X141039994Y-95549999D03*
X141039994Y-98089999D03*
X141039994Y-100629999D03*
X141039994Y-103169999D03*
X141039994Y-105709999D03*
X141039994Y-108249999D03*
X141039994Y-110789999D03*
X141039994Y-113329999D03*
X141039994Y-115869999D03*
%TD*%
D23*
%TO.C,SW6*%
X88970000Y-140000000D03*
D24*
X94050000Y-140000000D03*
D23*
X99130000Y-140000000D03*
D25*
X97860000Y-137460000D03*
D26*
X101410000Y-137460000D03*
X87960000Y-134920000D03*
D25*
X91510000Y-134920000D03*
%TD*%
D47*
%TO.C,U12*%
X88498950Y-92850101D03*
X89949038Y-92850101D03*
X89949038Y-98249897D03*
X88498950Y-98249897D03*
%TD*%
D44*
%TO.C,U5*%
X97149995Y-103112499D03*
X98099994Y-103112499D03*
X99049993Y-103112499D03*
X99049993Y-100837499D03*
X98099994Y-100837499D03*
X97149995Y-100837499D03*
%TD*%
D33*
%TO.C,R28*%
X100174995Y-109434999D03*
X100174993Y-108414999D03*
%TD*%
D17*
%TO.C,C56*%
X136359994Y-143269999D03*
X136359994Y-144229999D03*
%TD*%
D19*
%TO.C,C45*%
X91859994Y-137969999D03*
X90899994Y-137969999D03*
%TD*%
D20*
%TO.C,H3*%
X134933268Y-130733273D03*
X135416542Y-129566547D03*
X135416542Y-131899999D03*
X136583268Y-129083273D03*
D21*
X136583268Y-130733273D03*
D20*
X136583268Y-132383273D03*
X137749994Y-129566547D03*
X137749994Y-131899999D03*
X138233268Y-130733273D03*
%TD*%
D48*
%TO.C,SW1*%
X88650083Y-110099859D03*
X88650085Y-111800140D03*
X91749903Y-110099858D03*
X91749905Y-111800139D03*
D49*
X88499967Y-110949999D03*
X91900021Y-110949999D03*
%TD*%
D16*
%TO.C,R19*%
X106304994Y-95024997D03*
X107324994Y-95024999D03*
%TD*%
D15*
%TO.C,C42*%
X125959994Y-119444999D03*
X125959994Y-117894999D03*
%TD*%
D16*
%TO.C,R10*%
X117414995Y-99625001D03*
X118434993Y-99624997D03*
%TD*%
D50*
%TO.C,C31*%
X120271802Y-115618908D03*
X119592980Y-114940086D03*
%TD*%
D23*
%TO.C,SW8*%
X127070000Y-140000000D03*
D24*
X132150000Y-140000000D03*
D23*
X137230000Y-140000000D03*
D25*
X135960000Y-137460000D03*
D26*
X139510000Y-137460000D03*
X126060000Y-134920000D03*
D25*
X129610000Y-134920000D03*
%TD*%
D34*
%TO.C,C8*%
X117419994Y-98424999D03*
X118379994Y-98424999D03*
%TD*%
%TO.C,C55*%
X127399994Y-141449999D03*
X128359994Y-141449999D03*
%TD*%
D33*
%TO.C,R15*%
X123199993Y-138559999D03*
X123199995Y-137539999D03*
%TD*%
D13*
%TO.C,C6*%
X95274995Y-99249998D03*
X93374995Y-99249998D03*
%TD*%
D17*
%TO.C,C18*%
X108574995Y-99919998D03*
X108574995Y-100879998D03*
%TD*%
D51*
%TO.C,C7*%
X119699994Y-97049999D03*
X121599994Y-97049999D03*
%TD*%
D16*
%TO.C,R4*%
X130589994Y-102399999D03*
X131609994Y-102399999D03*
%TD*%
D18*
%TO.C,R31*%
X128139994Y-118909999D03*
X127119994Y-118909999D03*
%TD*%
D52*
%TO.C,U4*%
X134900007Y-111575998D03*
X135549995Y-111575998D03*
X136199982Y-111575998D03*
X136849969Y-111575998D03*
X137499957Y-111575998D03*
D53*
X138668613Y-110407596D03*
X138668613Y-109757608D03*
X138668613Y-109107621D03*
X138668613Y-108457634D03*
X138668613Y-107807646D03*
D52*
X137499957Y-106638990D03*
X136849969Y-106638990D03*
X136199982Y-106638990D03*
X135549995Y-106638990D03*
X134900007Y-106638990D03*
D53*
X133731605Y-107807646D03*
X133731605Y-108457634D03*
X133731605Y-109107621D03*
X133731605Y-109757608D03*
X133731605Y-110407596D03*
D54*
X136199982Y-109107621D03*
%TD*%
D23*
%TO.C,SW7*%
X108020000Y-140000000D03*
D24*
X113100000Y-140000000D03*
D23*
X118180000Y-140000000D03*
D25*
X116910000Y-137460000D03*
D26*
X120460000Y-137460000D03*
X107010000Y-134920000D03*
D25*
X110560000Y-134920000D03*
%TD*%
D17*
%TO.C,C52*%
X117309994Y-143269999D03*
X117309994Y-144229999D03*
%TD*%
D55*
%TO.C,C22*%
X124960583Y-109435588D03*
X125639405Y-110114410D03*
%TD*%
D18*
%TO.C,R17*%
X104899994Y-94050001D03*
X103879994Y-94049999D03*
%TD*%
D56*
%TO.C,D1*%
X91524994Y-98299999D03*
X91524994Y-100799999D03*
%TD*%
D34*
%TO.C,C35*%
X89299994Y-122399999D03*
X90259994Y-122399999D03*
%TD*%
D18*
%TO.C,R34*%
X128139994Y-137959999D03*
X127119994Y-137959999D03*
%TD*%
D19*
%TO.C,C49*%
X110909994Y-137969999D03*
X109949994Y-137969999D03*
%TD*%
D11*
%TO.C,U23*%
X129559994Y-139259999D03*
X128559994Y-139259999D03*
X129059994Y-140739999D03*
D12*
X129059994Y-139999999D03*
%TD*%
D14*
%TO.C,R2*%
X134524994Y-96014999D03*
X134524994Y-97034999D03*
%TD*%
D17*
%TO.C,C48*%
X98259994Y-143269999D03*
X98259994Y-144229999D03*
%TD*%
D13*
%TO.C,C9*%
X138274996Y-113224996D03*
X136374996Y-113224996D03*
%TD*%
D18*
%TO.C,R11*%
X124784994Y-99650000D03*
X123764994Y-99649998D03*
%TD*%
D19*
%TO.C,C37*%
X110909988Y-118919998D03*
X109949988Y-118919998D03*
%TD*%
D57*
%TO.C,C10*%
X129424994Y-100624999D03*
X129424994Y-102174999D03*
%TD*%
D17*
%TO.C,C19*%
X92749995Y-104685562D03*
X92749995Y-105645562D03*
%TD*%
D34*
%TO.C,C47*%
X89299994Y-141449999D03*
X90259994Y-141449999D03*
%TD*%
D14*
%TO.C,R27*%
X91874995Y-92414999D03*
X91874993Y-93434999D03*
%TD*%
D27*
%TO.C,J8*%
X141039994Y-141269999D03*
D28*
X141039994Y-143809999D03*
X141039994Y-146349999D03*
X141039994Y-148889999D03*
%TD*%
D17*
%TO.C,C40*%
X117309988Y-124219998D03*
X117309988Y-125179998D03*
%TD*%
D23*
%TO.C,SW5*%
X127070000Y-120950000D03*
D24*
X132150000Y-120950000D03*
D23*
X137230000Y-120950000D03*
D25*
X135960000Y-118410000D03*
D26*
X139510000Y-118410000D03*
X126060000Y-115870000D03*
D25*
X129610000Y-115870000D03*
%TD*%
D19*
%TO.C,C41*%
X129959994Y-118919999D03*
X128999994Y-118919999D03*
%TD*%
D43*
%TO.C,U14*%
X91350102Y-126755044D03*
X91350102Y-125304956D03*
X96749898Y-125304956D03*
X96749898Y-126755044D03*
%TD*%
D15*
%TO.C,C46*%
X87859994Y-138494999D03*
X87859994Y-136944999D03*
%TD*%
D58*
%TO.C,C28*%
X129857150Y-108329999D03*
X129857150Y-107369999D03*
%TD*%
D18*
%TO.C,R24*%
X98168426Y-109364626D03*
X97148426Y-109364624D03*
%TD*%
D29*
%TO.C,FID1*%
X137424994Y-92524999D03*
%TD*%
D43*
%TO.C,U18*%
X129450102Y-126755044D03*
X129450102Y-125304956D03*
X134849898Y-125304956D03*
X134849898Y-126755044D03*
%TD*%
D59*
%TO.C,C24*%
X115949995Y-113399999D03*
X114399993Y-113399999D03*
%TD*%
D16*
%TO.C,R6*%
X123764995Y-100624997D03*
X124784993Y-100625001D03*
%TD*%
D43*
%TO.C,U16*%
X110400096Y-126755043D03*
X110400096Y-125304955D03*
X115799892Y-125304955D03*
X115799892Y-126755043D03*
%TD*%
D20*
%TO.C,H2*%
X101974994Y-147999999D03*
X102458268Y-146833273D03*
X102458268Y-149166725D03*
X103624994Y-146349999D03*
D21*
X103624994Y-147999999D03*
D20*
X103624994Y-149649999D03*
X104791720Y-146833273D03*
X104791720Y-149166725D03*
X105274994Y-147999999D03*
%TD*%
D58*
%TO.C,C27*%
X117124994Y-113904999D03*
X117124994Y-112944999D03*
%TD*%
D60*
%TO.C,C12*%
X126824994Y-99974999D03*
X126824994Y-101874999D03*
%TD*%
D58*
%TO.C,C17*%
X108574994Y-103179999D03*
X108574994Y-102219999D03*
%TD*%
D61*
%TO.C,X1*%
X121662587Y-114786782D03*
X123218329Y-113231040D03*
X121980847Y-111993558D03*
X120425105Y-113549300D03*
%TD*%
D18*
%TO.C,R30*%
X109089988Y-118909998D03*
X108069988Y-118909998D03*
%TD*%
D62*
%TO.C,J4*%
X121150121Y-142199999D03*
X122150121Y-142199999D03*
X123150121Y-142199999D03*
X124150121Y-142199999D03*
D63*
X125450096Y-146199999D03*
X119849892Y-146199999D03*
%TD*%
D11*
%TO.C,U19*%
X91459994Y-139259999D03*
X90459994Y-139259999D03*
X90959994Y-140739999D03*
D12*
X90959994Y-139999999D03*
%TD*%
D64*
%TO.C,LED1*%
X134999664Y-113180372D03*
X133399460Y-113180372D03*
%TD*%
D13*
%TO.C,C4*%
X95274996Y-103199999D03*
X93374996Y-103199999D03*
%TD*%
D17*
%TO.C,C36*%
X98259994Y-124219999D03*
X98259994Y-125179999D03*
%TD*%
D65*
%TO.C,U3*%
X119874981Y-98589083D03*
X119874981Y-99539045D03*
X119874981Y-100489007D03*
X122575007Y-100489007D03*
X122575007Y-99539045D03*
X122575007Y-98589083D03*
%TD*%
D33*
%TO.C,R22*%
X124159994Y-138559999D03*
X124159996Y-137539999D03*
%TD*%
D16*
%TO.C,R20*%
X106304994Y-94049999D03*
X107324994Y-94049997D03*
%TD*%
D64*
%TO.C,LED2*%
X96350324Y-108094627D03*
X97950528Y-108094627D03*
%TD*%
D13*
%TO.C,C13*%
X138424994Y-104949999D03*
X136524994Y-104949999D03*
%TD*%
%TO.C,C1*%
X138399994Y-99024999D03*
X136499994Y-99024999D03*
%TD*%
D18*
%TO.C,R12*%
X127434994Y-98749999D03*
X126414994Y-98749999D03*
%TD*%
D43*
%TO.C,U22*%
X110400102Y-145805044D03*
X110400102Y-144354956D03*
X115799898Y-144354956D03*
X115799898Y-145805044D03*
%TD*%
D50*
%TO.C,C32*%
X124034960Y-111855749D03*
X123356138Y-111176927D03*
%TD*%
D58*
%TO.C,C25*%
X118049994Y-113929999D03*
X118049994Y-112969999D03*
%TD*%
D35*
%TO.C,J3*%
X115999918Y-96155612D03*
X110200070Y-96155612D03*
D36*
X108774873Y-96655739D03*
D37*
X108774873Y-92475907D03*
X117425115Y-92475907D03*
D36*
X117425115Y-96655739D03*
D38*
X116299892Y-97424091D03*
D39*
X115500045Y-97424091D03*
D40*
X114349930Y-97424091D03*
X113349930Y-97424091D03*
X112850058Y-97424091D03*
X111850312Y-97424091D03*
D41*
X109899842Y-97424091D03*
X110699689Y-97424091D03*
D40*
X111349930Y-97424091D03*
X112349930Y-97424091D03*
X113850058Y-97424091D03*
X114850058Y-97424091D03*
%TD*%
D13*
%TO.C,C20*%
X95949994Y-105165563D03*
X94049994Y-105165563D03*
%TD*%
D15*
%TO.C,C34*%
X87859994Y-119445000D03*
X87859994Y-117894998D03*
%TD*%
D27*
%TO.C,J6*%
X85159994Y-93009999D03*
D28*
X85159994Y-95549999D03*
X85159994Y-98089999D03*
X85159994Y-100629999D03*
X85159994Y-103169999D03*
X85159994Y-105709999D03*
X85159994Y-108249999D03*
X85159994Y-110789999D03*
X85159994Y-113329999D03*
X85159994Y-115869999D03*
X85159994Y-118409999D03*
X85159994Y-120949999D03*
X85159994Y-123489999D03*
X85159994Y-126029999D03*
X85159994Y-128569999D03*
X85159994Y-131109999D03*
X85159994Y-133649999D03*
X85159994Y-136189999D03*
X85159994Y-138729999D03*
X85159994Y-141269999D03*
X85159994Y-143809999D03*
X85159994Y-146349999D03*
X85159994Y-148889999D03*
%TD*%
D17*
%TO.C,C30*%
X105274994Y-108444999D03*
X105274994Y-109404999D03*
%TD*%
D19*
%TO.C,C16*%
X99729995Y-99399998D03*
X98769995Y-99399998D03*
%TD*%
D16*
%TO.C,R7*%
X133514994Y-94125000D03*
X134534994Y-94124998D03*
%TD*%
D17*
%TO.C,C29*%
X91849994Y-96144999D03*
X91849994Y-97104999D03*
%TD*%
D19*
%TO.C,C11*%
X124729994Y-98674999D03*
X123769994Y-98674999D03*
%TD*%
D43*
%TO.C,U20*%
X91350102Y-145805044D03*
X91350102Y-144354956D03*
X96749898Y-144354956D03*
X96749898Y-145805044D03*
%TD*%
D48*
%TO.C,SW2*%
X104274905Y-109400139D03*
X104274903Y-107699858D03*
X101175085Y-109400140D03*
X101175083Y-107699859D03*
D49*
X104425021Y-108549999D03*
X101024967Y-108549999D03*
%TD*%
D51*
%TO.C,C21*%
X93749996Y-110665564D03*
X95649996Y-110665564D03*
%TD*%
D66*
%TO.C,U6*%
X112312494Y-102499999D03*
X112312494Y-101549999D03*
X112312494Y-100599999D03*
X110037494Y-100599999D03*
X110037494Y-101549999D03*
X110037494Y-102499999D03*
%TD*%
D67*
%TO.C,U11*%
X128250197Y-106217500D03*
D68*
X127850146Y-106167385D03*
X127450350Y-106167385D03*
X127050299Y-106167385D03*
D69*
X126418346Y-106400050D03*
X126417838Y-106800101D03*
X126417838Y-107199897D03*
X126417838Y-107599948D03*
D68*
X127050299Y-107832613D03*
X127450350Y-107832613D03*
X127850146Y-107832613D03*
X128250197Y-107832613D03*
D69*
X128882150Y-107599948D03*
X128882150Y-107199897D03*
X128882150Y-106800101D03*
X128882150Y-106400050D03*
%TD*%
D44*
%TO.C,U9*%
X120774994Y-133062499D03*
X121724994Y-133062499D03*
X122674994Y-133062499D03*
X122674994Y-130787499D03*
X121724994Y-130787499D03*
X120774994Y-130787499D03*
%TD*%
D18*
%TO.C,R33*%
X109089994Y-137959999D03*
X108069994Y-137959999D03*
%TD*%
D11*
%TO.C,U13*%
X91459994Y-120209999D03*
X90459994Y-120209999D03*
X90959994Y-121689999D03*
D12*
X90959994Y-120949999D03*
%TD*%
D11*
%TO.C,U17*%
X129559994Y-120209999D03*
X128559994Y-120209999D03*
X129059994Y-121689999D03*
D12*
X129059994Y-120949999D03*
%TD*%
D18*
%TO.C,R8*%
X131459994Y-103375000D03*
X130439994Y-103374998D03*
%TD*%
D11*
%TO.C,U21*%
X110509994Y-139259999D03*
X109509994Y-139259999D03*
X110009994Y-140739999D03*
D12*
X110009994Y-139999999D03*
%TD*%
D50*
%TO.C,C23*%
X124489405Y-110339410D03*
X123810583Y-109660588D03*
%TD*%
D70*
%TO.C,J9*%
X89224994Y-100434999D03*
X90240994Y-105514999D03*
X88208994Y-105514999D03*
%TD*%
M02*
