M48
; DRILL file KiCad 10.99.0-unknown date 2026-08-01T02:02:11
; FORMAT={-:-/ absolute / metric / decimal}
; #@! TF.CreationDate,2026-08-01T02:02:11-06:00
; #@! TF.GenerationSoftware,Kicad,Pcbnew,10.99.0-unknown
; #@! TF.FileFunction,NonPlated,1,4,NPTH
FMAT,2
METRIC
; #@! TA.AperFunction,NonPlated,NPTH,ComponentDrill
T1C0.600
; #@! TA.AperFunction,NonPlated,NPTH,ComponentDrill
T2C0.750
; #@! TA.AperFunction,NonPlated,NPTH,ComponentDrill
T3C0.991
; #@! TA.AperFunction,NonPlated,NPTH,ComponentDrill
T4C1.750
; #@! TA.AperFunction,NonPlated,NPTH,ComponentDrill
T5C3.988
%
G90
G05
T1
X83.125Y-98.1
X83.125Y-99.0
X83.125Y-99.9
X83.125Y-100.8
X83.125Y-141.1
X83.125Y-142.0
X83.125Y-142.9
X83.125Y-143.8
X143.075Y-98.1
X143.075Y-99.0
X143.075Y-99.9
X143.075Y-100.8
X143.1Y-141.1
X143.1Y-142.0
X143.1Y-142.9
X143.1Y-143.8
T2
X95.2Y-96.156
X101.0Y-96.156
X110.2Y-96.156
X116.0Y-96.156
X125.2Y-96.156
X131.0Y-96.156
T3
X88.209Y-105.515
X89.225Y-100.435
X90.241Y-105.515
T4
X88.97Y-120.95
X88.97Y-140.0
X99.13Y-120.95
X99.13Y-140.0
X108.02Y-120.95
X108.02Y-140.0
X118.18Y-120.95
X118.18Y-140.0
X127.07Y-120.95
X127.07Y-140.0
X137.23Y-120.95
X137.23Y-140.0
T5
X94.05Y-120.95
X94.05Y-140.0
X113.1Y-120.95
X113.1Y-140.0
X132.15Y-120.95
X132.15Y-140.0
M30
