M48
; DRILL file KiCad 10.99.0-unknown date 2026-08-01T01:27:26
; FORMAT={-:-/ absolute / metric / decimal}
; #@! TF.CreationDate,2026-08-01T01:27:26-06:00
; #@! TF.GenerationSoftware,Kicad,Pcbnew,10.99.0-unknown
; #@! TF.FileFunction,MixedPlating,1,4
FMAT,2
METRIC
; #@! TA.AperFunction,Plated,PTH,ViaDrill
T1C0.300
; #@! TA.AperFunction,Plated,PTH,ViaDrill
T2C0.400
; #@! TA.AperFunction,Plated,PTH,ComponentDrill
T3C0.400
; #@! TA.AperFunction,Plated,PTH,ComponentDrill
T4C0.800
; #@! TA.AperFunction,Plated,PTH,ComponentDrill
T5C1.000
; #@! TA.AperFunction,Plated,PTH,ComponentDrill
T6C2.200
; #@! TA.AperFunction,Plated,PTH,ComponentDrill
T7C3.000
; #@! TA.AperFunction,NonPlated,NPTH,ComponentDrill
T8C0.600
; #@! TA.AperFunction,NonPlated,NPTH,ComponentDrill
T9C0.750
; #@! TA.AperFunction,NonPlated,NPTH,ComponentDrill
T10C0.991
; #@! TA.AperFunction,NonPlated,NPTH,ComponentDrill
T11C1.750
; #@! TA.AperFunction,NonPlated,NPTH,ComponentDrill
T12C3.988
%
G90
G05
T1
X83.725Y-97.2
X84.05Y-99.525
X84.1Y-119.725
X84.1Y-129.85
X84.125Y-137.4
X84.125Y-140.05
X84.175Y-127.425
X84.175Y-132.5
X84.175Y-142.425
X84.175Y-147.775
X84.2Y-144.975
X84.25Y-124.85
X84.3Y-122.525
X84.325Y-134.85
X84.6Y-117.1
X85.75Y-124.7
X85.775Y-104.4
X85.775Y-134.9
X85.85Y-111.95
X85.95Y-109.55
X86.025Y-106.925
X86.05Y-119.7
X86.075Y-142.875
X86.15Y-127.375
X86.175Y-137.6
X86.225Y-117.175
X86.225Y-122.8
X86.425Y-146.775
X86.55Y-132.725
X86.57Y-102.46
X86.725Y-105.1
X86.8Y-97.15
X86.95Y-111.03
X86.99Y-99.91
X87.175Y-148.65
X87.225Y-98.85
X87.33Y-92.84
X87.4Y-106.75
X87.5Y-124.8
X87.5Y-129.35
X87.55Y-127.95
X87.55Y-142.125
X87.625Y-120.5
X87.625Y-139.55
X87.675Y-143.75
X87.725Y-109.925
X87.75Y-102.375
X87.875Y-114.15
X88.34Y-100.96
X88.35Y-122.4
X88.35Y-141.45
X88.45Y-107.85
X88.925Y-117.75
X88.925Y-136.8
X88.975Y-109.3
X89.025Y-130.4
X89.075Y-112.575
X89.1Y-145.35
X89.325Y-107.0
X89.625Y-125.325
X89.7Y-119.7
X89.7Y-138.75
X89.75Y-126.3
X89.78Y-110.99
X89.875Y-144.375
X90.225Y-121.525
X90.225Y-140.575
X90.5Y-102.41
X90.54Y-108.63
X90.55Y-103.575
X90.625Y-104.25
X90.7Y-109.69
X90.725Y-130.65
X90.79Y-99.21
X90.85Y-111.275
X90.875Y-127.95
X90.99Y-93.24
X91.1Y-97.39
X91.45Y-109.25
X91.675Y-121.75
X91.675Y-140.8
X91.75Y-146.925
X91.76Y-95.06
X91.85Y-117.975
X91.85Y-137.025
X92.16Y-103.86
X92.16Y-106.5
X92.3Y-129.15
X92.4Y-99.64
X92.44Y-100.31
X92.52Y-100.97
X92.63Y-110.03
X92.65Y-112.275
X92.66Y-109.44
X92.68Y-111.01
X92.75Y-114.0
X93.22Y-109.62
X93.675Y-131.95
X93.91Y-107.59
X94.3Y-129.05
X94.5Y-137.05
X95.83Y-106.69
X96.05Y-129.125
X96.175Y-95.325
X96.375Y-100.8
X96.375Y-102.625
X96.375Y-103.225
X96.4Y-100.175
X96.425Y-101.375
X96.45Y-101.975
X96.45Y-103.85
X96.775Y-98.55
X96.8Y-143.325
X96.85Y-141.175
X96.92Y-96.23
X97.0Y-128.05
X97.17Y-110.28
X97.175Y-133.975
X97.25Y-104.375
X97.4Y-104.9
X97.5Y-95.88
X97.55Y-105.45
X97.65Y-121.625
X97.675Y-123.7
X97.925Y-105.9
X98.1Y-99.775
X98.1Y-101.95
X98.27Y-95.83
X98.3Y-114.0
X98.35Y-112.275
X98.375Y-129.125
X98.475Y-145.275
X98.55Y-106.225
X98.81Y-96.16
X98.9Y-92.95
X99.0Y-146.7
X99.025Y-104.825
X99.25Y-104.25
X99.31Y-123.7
X99.325Y-106.305
X99.45Y-98.525
X99.6Y-127.725
X99.625Y-104.85
X99.825Y-103.975
X99.925Y-100.8
X99.925Y-101.375
X99.925Y-143.475
X99.95Y-102.0
X99.975Y-103.275
X100.025Y-102.65
X100.1Y-106.305
X100.15Y-100.225
X100.225Y-104.825
X100.325Y-124.675
X100.45Y-145.225
X100.55Y-121.25
X100.85Y-106.305
X100.925Y-104.85
X101.025Y-92.9
X101.075Y-126.725
X101.075Y-128.975
X101.225Y-139.6
X101.525Y-142.125
X101.625Y-106.305
X101.675Y-104.85
X101.7Y-120.17
X102.025Y-111.875
X102.175Y-132.4
X102.26Y-113.81
X102.35Y-106.305
X102.38Y-116.57
X102.425Y-129.85
X102.45Y-104.9
X102.95Y-124.65
X102.975Y-122.075
X103.0Y-106.305
X103.25Y-104.875
X103.45Y-140.125
X103.46Y-112.16
X103.65Y-143.75
X103.675Y-106.305
X103.725Y-126.375
X104.0Y-104.9
X104.15Y-96.75
X104.275Y-129.575
X104.325Y-132.45
X104.375Y-106.305
X104.4Y-92.8
X104.425Y-142.05
X104.8Y-104.9
X105.125Y-106.305
X105.425Y-141.45
X105.525Y-103.65
X105.575Y-104.9
X105.85Y-106.305
X106.075Y-100.65
X106.075Y-118.65
X106.15Y-96.575
X106.15Y-99.975
X106.15Y-101.325
X106.2Y-140.575
X106.25Y-109.67
X106.25Y-145.075
X106.3Y-99.35
X106.3Y-104.895
X106.425Y-123.55
X106.55Y-101.925
X106.625Y-98.725
X106.65Y-106.305
X106.675Y-120.5
X106.675Y-139.55
X107.1Y-98.275
X107.1Y-102.35
X107.275Y-96.525
X107.275Y-104.895
X107.325Y-132.925
X107.4Y-122.4
X107.4Y-141.45
X107.525Y-106.305
X107.7Y-102.6
X107.74Y-111.59
X107.75Y-97.975
X107.75Y-100.75
X107.775Y-100.075
X107.8Y-128.575
X107.85Y-95.75
X107.875Y-93.375
X107.94Y-110.0
X107.975Y-117.75
X107.975Y-136.8
X108.025Y-104.895
X108.025Y-125.45
X108.125Y-143.8
X108.325Y-106.305
X108.35Y-129.975
X108.4Y-124.775
X108.425Y-126.275
X108.575Y-99.3
X108.575Y-145.9
X108.725Y-104.725
X108.75Y-119.7
X108.75Y-138.75
X108.95Y-101.55
X109.1Y-106.2
X109.2Y-97.9
X109.275Y-121.525
X109.275Y-140.575
X109.325Y-104.45
X109.525Y-99.85
X109.725Y-103.275
X109.75Y-105.975
X109.8Y-109.03
X109.875Y-104.0
X110.2Y-98.475
X110.35Y-105.6
X110.4Y-129.725
X110.475Y-103.3
X110.475Y-132.475
X110.575Y-147.1
X110.675Y-92.5
X110.725Y-121.75
X110.725Y-140.8
X110.75Y-94.425
X110.828Y-98.436
X110.9Y-117.975
X110.9Y-137.025
X110.95Y-105.15
X110.95Y-127.775
X111.2Y-101.55
X111.2Y-103.2
X111.25Y-100.05
X111.29Y-95.74
X111.475Y-107.1
X111.55Y-98.575
X111.675Y-104.95
X111.74Y-110.2
X111.875Y-103.3
X112.04Y-112.48
X112.075Y-99.85
X112.38Y-95.68
X112.66Y-117.33
X112.675Y-103.35
X112.7Y-129.75
X112.71Y-115.47
X112.79Y-116.26
X112.8Y-99.575
X112.93Y-96.02
X113.25Y-99.025
X113.275Y-103.75
X113.36Y-114.18
X113.42Y-110.39
X113.425Y-100.1
X113.69Y-102.27
X113.725Y-100.75
X113.825Y-96.25
X113.873Y-106.71
X113.875Y-98.875
X113.9Y-95.575
X114.05Y-115.61
X114.07Y-118.07
X114.15Y-107.45
X114.19Y-117.36
X114.23Y-116.28
X114.4Y-98.575
X114.4Y-100.8
X114.5Y-106.825
X114.6Y-106.15
X114.65Y-132.675
X114.96Y-95.94
X115.075Y-100.8
X115.188Y-114.074
X115.228Y-106.193
X115.448Y-108.161
X115.47Y-108.79
X115.49Y-98.49
X115.52Y-105.54
X115.53Y-116.22
X115.536Y-112.449
X115.69Y-114.39
X115.8Y-104.97
X115.83Y-107.57
X115.925Y-95.225
X116.125Y-92.425
X116.125Y-134.475
X116.175Y-127.75
X116.248Y-105.411
X116.25Y-123.775
X116.273Y-106.04
X116.475Y-98.65
X116.525Y-99.4
X116.72Y-115.77
X116.825Y-106.342
X116.924Y-104.011
X117.15Y-142.225
X117.175Y-129.0
X117.32Y-105.76
X117.36Y-104.71
X117.498Y-103.754
X117.5Y-103.05
X117.566Y-101.359
X117.85Y-127.6
X118.01Y-109.82
X118.01Y-110.55
X118.175Y-101.2
X118.325Y-94.85
X118.33Y-104.82
X118.375Y-146.65
X118.55Y-103.65
X118.6Y-110.32
X118.65Y-109.05
X118.69Y-108.41
X118.7Y-125.1
X118.725Y-92.9
X118.775Y-114.625
X118.8Y-113.95
X118.85Y-115.25
X118.875Y-104.375
X118.9Y-122.95
X118.925Y-100.47
X119.1Y-113.325
X119.125Y-107.725
X119.2Y-132.7
X119.275Y-115.775
X119.35Y-109.125
X119.38Y-101.2
X119.474Y-108.508
X119.55Y-112.875
X119.566Y-104.705
X119.706Y-92.511
X119.775Y-107.375
X119.775Y-116.225
X119.85Y-146.2
X119.85Y-129.525
X119.925Y-112.45
X120.05Y-101.24
X120.075Y-127.775
X120.1Y-108.45
X120.13Y-93.74
X120.15Y-142.1
X120.5Y-116.5
X120.625Y-108.075
X120.65Y-93.74
X120.7Y-111.8
X120.75Y-129.4
X120.85Y-100.45
X120.85Y-123.45
X120.96Y-106.18
X120.975Y-127.175
X121.1Y-121.625
X121.125Y-126.375
X121.16Y-93.74
X121.225Y-143.3
X121.3Y-116.4
X121.475Y-99.85
X121.525Y-98.425
X121.525Y-110.825
X121.725Y-126.05
X121.725Y-131.875
X121.725Y-134.325
X121.73Y-101.691
X121.825Y-120.825
X121.9Y-124.85
X121.975Y-94.9
X121.975Y-95.675
X122.05Y-110.425
X122.075Y-115.975
X122.11Y-121.815
X122.325Y-126.4
X122.328Y-103.476
X122.36Y-101.68
X122.45Y-127.15
X122.525Y-118.75
X122.525Y-119.675
X122.575Y-115.525
X122.725Y-129.425
X122.74Y-97.85
X122.8Y-110.275
X122.9Y-106.9
X122.925Y-103.675
X122.975Y-115.05
X123.25Y-136.75
X123.28Y-97.94
X123.325Y-127.75
X123.45Y-114.6
X123.5Y-145.65
X123.65Y-110.475
X123.675Y-126.8
X123.725Y-129.675
X123.8Y-103.525
X123.8Y-125.325
X123.875Y-114.175
X123.9Y-107.4
X123.975Y-128.1
X124.05Y-119.725
X124.075Y-117.5
X124.1Y-110.925
X124.13Y-97.96
X124.3Y-113.75
X124.375Y-95.3
X124.38Y-116.03
X124.45Y-105.525
X124.6Y-111.35
X124.625Y-106.975
X124.65Y-113.2
X124.75Y-112.575
X124.825Y-111.975
X124.975Y-104.975
X125.1Y-108.225
X125.175Y-127.425
X125.45Y-146.2
X125.53Y-100.61
X125.54Y-99.97
X125.6Y-93.1
X125.6Y-129.875
X125.65Y-107.8
X125.675Y-126.625
X125.68Y-98.98
X125.7Y-98.46
X125.725Y-120.5
X125.725Y-139.55
X126.04Y-110.71
X126.12Y-112.83
X126.35Y-108.15
X126.45Y-122.4
X126.45Y-132.425
X126.45Y-141.45
X126.525Y-95.375
X126.675Y-124.65
X126.725Y-146.55
X127.0Y-105.35
X127.025Y-117.75
X127.025Y-128.7
X127.025Y-136.8
X127.25Y-106.975
X127.3Y-104.25
X127.4Y-113.025
X127.6Y-109.075
X127.8Y-119.7
X127.8Y-138.75
X127.825Y-125.225
X127.85Y-126.425
X127.92Y-103.28
X127.95Y-145.35
X127.975Y-107.025
X128.02Y-99.99
X128.325Y-121.525
X128.325Y-140.575
X128.5Y-129.55
X128.525Y-105.325
X128.91Y-103.89
X129.1Y-105.75
X129.179Y-96.275
X129.275Y-108.325
X129.4Y-132.775
X129.425Y-95.125
X129.7Y-105.125
X129.7Y-113.625
X129.775Y-121.75
X129.775Y-140.8
X129.95Y-117.975
X129.95Y-137.025
X130.0Y-96.275
X130.075Y-147.075
X130.125Y-128.125
X130.225Y-123.025
X130.3Y-110.12
X130.375Y-106.835
X130.5Y-111.25
X130.5Y-98.875
X130.5Y-99.475
X130.6Y-92.95
X130.74Y-108.76
X130.775Y-106.025
X130.8Y-104.71
X130.925Y-107.45
X131.125Y-128.65
X131.175Y-129.6
X131.24Y-112.15
X131.525Y-132.675
X131.67Y-99.95
X131.91Y-98.59
X132.114Y-118.544
X132.16Y-107.26
X132.3Y-108.44
X132.33Y-109.0
X132.33Y-109.63
X132.34Y-103.88
X132.425Y-111.2
X132.74Y-105.23
X132.75Y-116.4
X132.8Y-106.125
X133.0Y-103.85
X133.075Y-100.45
X133.45Y-111.07
X133.525Y-96.025
X133.575Y-115.025
X133.575Y-149.6
X133.77Y-111.62
X133.975Y-98.05
X134.03Y-100.49
X134.23Y-111.14
X134.4Y-93.075
X134.55Y-97.8
X134.56Y-105.06
X134.95Y-140.725
X134.975Y-100.5
X135.025Y-121.8
X135.3Y-103.76
X135.375Y-124.175
X135.55Y-112.38
X135.7Y-108.607
X135.7Y-109.607
X135.7Y-109.607
X135.71Y-98.15
X136.1Y-92.875
X136.2Y-95.0
X136.675Y-147.975
X136.7Y-108.607
X136.7Y-109.607
X136.85Y-145.925
X137.3Y-143.75
X137.46Y-105.59
X137.675Y-94.125
X138.92Y-106.94
X138.925Y-141.975
X138.975Y-127.4
X139.44Y-112.12
X139.6Y-93.4
X139.62Y-105.8
X139.66Y-110.03
X139.675Y-125.575
X139.69Y-107.97
X139.7Y-98.35
X139.725Y-100.325
X139.825Y-95.075
X139.9Y-103.8
X139.925Y-147.725
X139.975Y-102.4
X139.975Y-122.425
X140.025Y-114.825
X141.65Y-124.8
X141.775Y-127.375
X141.875Y-132.5
X141.9Y-135.675
X142.0Y-109.6
X142.025Y-99.425
X142.025Y-129.975
X142.05Y-101.825
X142.075Y-104.45
X142.1Y-96.9
X142.125Y-107.025
X142.15Y-144.825
X142.15Y-147.625
X142.25Y-114.725
X142.275Y-94.4
T2
X87.96Y-115.87
X87.96Y-134.92
X91.1Y-122.475
X91.1Y-141.525
X97.0Y-124.275
X101.41Y-118.41
X101.41Y-137.46
X106.725Y-126.85
X106.725Y-127.725
X107.01Y-115.87
X107.01Y-134.92
X110.15Y-122.475
X110.15Y-141.525
X117.875Y-129.65
X118.525Y-129.0
X120.46Y-118.41
X120.46Y-137.46
X121.55Y-140.3
X126.06Y-115.87
X126.06Y-134.92
X127.74Y-111.96
X129.2Y-122.475
X129.2Y-141.525
X133.756Y-105.675
X133.756Y-106.45
X134.825Y-141.725
X135.675Y-141.725
X136.62Y-96.62
X136.63Y-97.65
X137.39Y-97.13
X137.6Y-127.225
X139.51Y-118.41
X139.51Y-137.46
T3
X100.908Y-102.308
X101.392Y-101.142
X101.392Y-103.475
X101.975Y-148.0
X102.458Y-146.833
X102.458Y-149.167
X102.558Y-100.658
X102.558Y-103.958
X103.625Y-146.35
X103.625Y-149.65
X103.725Y-101.142
X103.725Y-103.475
X104.208Y-102.308
X104.792Y-146.833
X104.792Y-149.167
X105.275Y-148.0
X134.933Y-130.733
X135.417Y-129.567
X135.417Y-131.9
X136.583Y-129.083
X136.583Y-132.383
X137.75Y-129.567
X137.75Y-131.9
X138.233Y-130.733
T5
X85.16Y-93.01
X85.16Y-95.55
X85.16Y-98.09
X85.16Y-100.63
X85.16Y-103.17
X85.16Y-105.71
X85.16Y-108.25
X85.16Y-110.79
X85.16Y-113.33
X85.16Y-115.87
X85.16Y-118.41
X85.16Y-120.95
X85.16Y-123.49
X85.16Y-126.03
X85.16Y-128.57
X85.16Y-131.11
X85.16Y-133.65
X85.16Y-136.19
X85.16Y-138.73
X85.16Y-141.27
X85.16Y-143.81
X85.16Y-146.35
X85.16Y-148.89
X141.04Y-93.01
X141.04Y-95.55
X141.04Y-98.09
X141.04Y-100.63
X141.04Y-103.17
X141.04Y-105.71
X141.04Y-108.25
X141.04Y-110.79
X141.04Y-113.33
X141.04Y-115.87
X141.04Y-120.95
X141.04Y-123.49
X141.04Y-126.03
X141.04Y-128.57
X141.04Y-131.11
X141.04Y-133.65
X141.04Y-141.27
X141.04Y-143.81
X141.04Y-146.35
X141.04Y-148.89
T6
X102.558Y-102.308
X103.625Y-148.0
X136.583Y-130.733
T7
X91.51Y-115.87
X91.51Y-134.92
X97.86Y-118.41
X97.86Y-137.46
X110.56Y-115.87
X110.56Y-134.92
X116.91Y-118.41
X116.91Y-137.46
X129.61Y-115.87
X129.61Y-134.92
X135.96Y-118.41
X135.96Y-137.46
T8
X83.125Y-98.1
X83.125Y-99.0
X83.125Y-99.9
X83.125Y-100.8
X83.125Y-141.1
X83.125Y-142.0
X83.125Y-142.9
X83.125Y-143.8
X143.075Y-98.1
X143.075Y-99.0
X143.075Y-99.9
X143.075Y-100.8
X143.1Y-141.1
X143.1Y-142.0
X143.1Y-142.9
X143.1Y-143.8
T9
X95.2Y-96.156
X101.0Y-96.156
X110.2Y-96.156
X116.0Y-96.156
X125.2Y-96.156
X131.0Y-96.156
T10
X88.209Y-105.515
X89.225Y-100.435
X90.241Y-105.515
T11
X88.97Y-120.95
X88.97Y-140.0
X99.13Y-120.95
X99.13Y-140.0
X108.02Y-120.95
X108.02Y-140.0
X118.18Y-120.95
X118.18Y-140.0
X127.07Y-120.95
X127.07Y-140.0
X137.23Y-120.95
X137.23Y-140.0
T12
X94.05Y-120.95
X94.05Y-140.0
X113.1Y-120.95
X113.1Y-140.0
X132.15Y-120.95
X132.15Y-140.0
T4
X93.775Y-92.776G85X93.775Y-92.176
G05
X93.775Y-97.056G85X93.775Y-96.256
G05
X102.425Y-92.776G85X102.425Y-92.176
G05
X102.425Y-97.056G85X102.425Y-96.256
G05
X108.775Y-92.776G85X108.775Y-92.176
G05
X108.775Y-97.056G85X108.775Y-96.256
G05
X117.425Y-92.776G85X117.425Y-92.176
G05
X117.425Y-97.056G85X117.425Y-96.256
G05
X123.775Y-92.776G85X123.775Y-92.176
G05
X123.775Y-97.056G85X123.775Y-96.256
G05
X132.425Y-92.776G85X132.425Y-92.176
G05
X132.425Y-97.056G85X132.425Y-96.256
G05
M30
