%TF.GenerationSoftware,KiCad,Pcbnew,10.99.0-unknown*%
%TF.CreationDate,2026-08-01T02:02:08-06:00*%
%TF.ProjectId,TMR2615F_osu_pad,544d5232-3631-4354-965f-6f73755f7061,rev?*%
%TF.SameCoordinates,Original*%
%TF.FileFunction,Paste,Top*%
%TF.FilePolarity,Positive*%
%FSLAX46Y46*%
G04 Gerber Fmt 4.6, Leading zero omitted, Abs format (unit mm)*
G04 Created by KiCad (PCBNEW 10.99.0-unknown) date 2026-08-01 02:02:08*
%MOMM*%
%LPD*%
G01*
G04 APERTURE LIST*
G04 Aperture macros list*
%AMRoundRect*
0 Rectangle with rounded corners*
0 $1 Rounding radius*
0 $2 $3 $4 $5 $6 $7 $8 $9 X,Y pos of 4 corners*
0 Add a 4 corners polygon primitive as box body*
4,1,4,$2,$3,$4,$5,$6,$7,$8,$9,$2,$3,0*
0 Add four circle primitives for the rounded corners*
1,1,$1+$1,$2,$3*
1,1,$1+$1,$4,$5*
1,1,$1+$1,$6,$7*
1,1,$1+$1,$8,$9*
0 Add four rect primitives between the rounded corners*
20,1,$1+$1,$2,$3,$4,$5,0*
20,1,$1+$1,$4,$5,$6,$7,0*
20,1,$1+$1,$6,$7,$8,$9,0*
20,1,$1+$1,$8,$9,$2,$3,0*%
%AMRotRect*
0 Rectangle, with rotation*
0 The origin of the aperture is its center*
0 $1 length*
0 $2 width*
0 $3 Rotation angle, in degrees counterclockwise*
0 Add horizontal line*
21,1,$1,$2,0,0,$3*%
%AMFreePoly0*
4,1,9,0.299924,-0.649936,-0.000051,-0.649936,-0.000051,-0.650089,-0.300051,-0.650089,-0.300051,0.649936,-0.000076,0.649936,-0.000076,0.650089,0.299924,0.650089,0.299924,-0.649936,0.299924,-0.649936,$1*%
%AMFreePoly1*
4,1,9,0.300076,-0.650038,0.000127,-0.650038,0.000127,-0.650064,-0.299898,-0.650064,-0.299898,0.649911,0.000051,0.649911,0.000051,0.649936,0.300076,0.649936,0.300076,-0.650038,0.300076,-0.650038,$1*%
%AMFreePoly2*
4,1,5,0.299873,-0.649886,-0.300152,-0.649886,-0.300152,0.650089,0.299873,0.650089,0.299873,-0.649886,0.299873,-0.649886,$1*%
G04 Aperture macros list end*
%ADD10C,0.150000*%
%ADD11RoundRect,0.087500X-0.425000X-0.087500X0.425000X-0.087500X0.425000X0.087500X-0.425000X0.087500X0*%
%ADD12RoundRect,0.080000X0.120000X0.135000X-0.120000X0.135000X-0.120000X-0.135000X0.120000X-0.135000X0*%
%ADD13RoundRect,0.070000X-0.530000X-0.105000X0.530000X-0.105000X0.530000X0.105000X-0.530000X0.105000X0*%
%ADD14RoundRect,0.250000X0.250000X0.475000X-0.250000X0.475000X-0.250000X-0.475000X0.250000X-0.475000X0*%
%ADD15RoundRect,0.135000X-0.185000X0.135000X-0.185000X-0.135000X0.185000X-0.135000X0.185000X0.135000X0*%
%ADD16RoundRect,0.225000X0.250000X-0.225000X0.250000X0.225000X-0.250000X0.225000X-0.250000X-0.225000X0*%
%ADD17RoundRect,0.135000X-0.135000X-0.185000X0.135000X-0.185000X0.135000X0.185000X-0.135000X0.185000X0*%
%ADD18RoundRect,0.140000X-0.170000X0.140000X-0.170000X-0.140000X0.170000X-0.140000X0.170000X0.140000X0*%
%ADD19RoundRect,0.135000X0.135000X0.185000X-0.135000X0.185000X-0.135000X-0.185000X0.135000X-0.185000X0*%
%ADD20RoundRect,0.140000X0.140000X0.170000X-0.140000X0.170000X-0.140000X-0.170000X0.140000X-0.170000X0*%
%ADD21RoundRect,0.218750X-0.335876X-0.026517X-0.026517X-0.335876X0.335876X0.026517X0.026517X0.335876X0*%
%ADD22RoundRect,0.250000X-1.025000X-1.000000X1.025000X-1.000000X1.025000X1.000000X-1.025000X1.000000X0*%
%ADD23R,0.600000X1.070003*%
%ADD24RotRect,0.200000X1.459995X45.000000*%
%ADD25RotRect,1.459995X0.200000X45.000000*%
%ADD26RoundRect,0.135000X0.185000X-0.135000X0.185000X0.135000X-0.185000X0.135000X-0.185000X-0.135000X0*%
%ADD27RoundRect,0.140000X-0.140000X-0.170000X0.140000X-0.170000X0.140000X0.170000X-0.140000X0.170000X0*%
%ADD28FreePoly0,180.000000*%
%ADD29FreePoly1,180.000000*%
%ADD30R,0.300000X1.300000*%
%ADD31FreePoly2,180.000000*%
%ADD32RoundRect,0.140000X0.021213X-0.219203X0.219203X-0.021213X-0.021213X0.219203X-0.219203X0.021213X0*%
%ADD33R,1.700000X0.800000*%
%ADD34RoundRect,0.150000X0.150000X-0.512500X0.150000X0.512500X-0.150000X0.512500X-0.150000X-0.512500X0*%
%ADD35RoundRect,0.135000X-0.226274X-0.035355X-0.035355X-0.226274X0.226274X0.035355X0.035355X0.226274X0*%
%ADD36RoundRect,0.087500X0.425000X0.087500X-0.425000X0.087500X-0.425000X-0.087500X0.425000X-0.087500X0*%
%ADD37R,0.800000X1.700000*%
%ADD38R,0.650013X0.600000*%
%ADD39R,0.324994X0.700000*%
%ADD40RoundRect,0.140000X0.219203X0.021213X0.021213X0.219203X-0.219203X-0.021213X-0.021213X-0.219203X0*%
%ADD41RoundRect,0.250000X-0.250000X-0.475000X0.250000X-0.475000X0.250000X0.475000X-0.250000X0.475000X0*%
%ADD42O,0.364008X1.086995*%
%ADD43O,1.086995X0.364008*%
%ADD44R,3.150013X3.150013*%
%ADD45RoundRect,0.140000X-0.219203X-0.021213X-0.021213X-0.219203X0.219203X0.021213X0.021213X0.219203X0*%
%ADD46RoundRect,0.250000X-0.250000X0.250000X-0.250000X-0.250000X0.250000X-0.250000X0.250000X0.250000X0*%
%ADD47RoundRect,0.225000X-0.250000X0.225000X-0.250000X-0.225000X0.250000X-0.225000X0.250000X0.225000X0*%
%ADD48RoundRect,0.140000X0.170000X-0.140000X0.170000X0.140000X-0.170000X0.140000X-0.170000X-0.140000X0*%
%ADD49RoundRect,0.225000X0.225000X0.250000X-0.225000X0.250000X-0.225000X-0.250000X0.225000X-0.250000X0*%
%ADD50RoundRect,0.250000X-0.475000X0.250000X-0.475000X-0.250000X0.475000X-0.250000X0.475000X0.250000X0*%
%ADD51RotRect,1.400000X1.200000X45.000000*%
%ADD52R,0.600000X1.600000*%
%ADD53R,1.200000X2.000000*%
%ADD54R,0.800000X0.800000*%
%ADD55R,1.100000X0.600000*%
%ADD56RoundRect,0.150000X0.512500X0.150000X-0.512500X0.150000X-0.512500X-0.150000X0.512500X-0.150000X0*%
%ADD57R,0.200000X0.764999*%
%ADD58R,0.200000X0.664999*%
%ADD59R,0.664999X0.200000*%
G04 APERTURE END LIST*
D10*
%TO.C,J1*%
X129700045Y-96774129D02*
X129700045Y-98074154D01*
X130000045Y-98074154D01*
X130000045Y-96774129D01*
X129700045Y-96774129D01*
G36*
X130000045Y-98074154D02*
G01*
X129700045Y-98074154D01*
X129700045Y-96774129D01*
X130000045Y-96774129D01*
X130000045Y-98074154D01*
G37*
X129499918Y-98074154D02*
X129499918Y-96774129D01*
X129199918Y-96774129D01*
X129199918Y-98074154D01*
X129499918Y-98074154D01*
G36*
X129499918Y-98074154D02*
G01*
X129199918Y-98074154D01*
X129199918Y-96774129D01*
X129499918Y-96774129D01*
X129499918Y-98074154D01*
G37*
X128700045Y-96774154D02*
X128700045Y-98074180D01*
X129000045Y-98074180D01*
X129000045Y-96774154D01*
X128700045Y-96774154D01*
G36*
X129000045Y-98074180D02*
G01*
X128700045Y-98074180D01*
X128700045Y-96774154D01*
X129000045Y-96774154D01*
X129000045Y-98074180D01*
G37*
X128199918Y-96774129D02*
X128199918Y-98074154D01*
X128499918Y-98074154D01*
X128499918Y-96774129D01*
X128199918Y-96774129D01*
G36*
X128499918Y-98074154D02*
G01*
X128199918Y-98074154D01*
X128199918Y-96774129D01*
X128499918Y-96774129D01*
X128499918Y-98074154D01*
G37*
X127700045Y-96774154D02*
X127700045Y-98074180D01*
X128000045Y-98074180D01*
X128000045Y-96774154D01*
X127700045Y-96774154D01*
G36*
X128000045Y-98074180D02*
G01*
X127700045Y-98074180D01*
X127700045Y-96774154D01*
X128000045Y-96774154D01*
X128000045Y-98074180D01*
G37*
X127199918Y-96774129D02*
X127199918Y-98074154D01*
X127499918Y-98074154D01*
X127499918Y-96774129D01*
X127199918Y-96774129D01*
G36*
X127499918Y-98074154D02*
G01*
X127199918Y-98074154D01*
X127199918Y-96774129D01*
X127499918Y-96774129D01*
X127499918Y-98074154D01*
G37*
X126700299Y-96774129D02*
X126700299Y-98074154D01*
X127000299Y-98074154D01*
X127000299Y-96774129D01*
X126700299Y-96774129D01*
G36*
X127000299Y-98074154D02*
G01*
X126700299Y-98074154D01*
X126700299Y-96774129D01*
X127000299Y-96774129D01*
X127000299Y-98074154D01*
G37*
X126199918Y-96774129D02*
X126199918Y-98074154D01*
X126499918Y-98074154D01*
X126499918Y-96774129D01*
X126199918Y-96774129D01*
G36*
X126499918Y-98074154D02*
G01*
X126199918Y-98074154D01*
X126199918Y-96774129D01*
X126499918Y-96774129D01*
X126499918Y-98074154D01*
G37*
X130999969Y-96774154D02*
X130999969Y-98074180D01*
X131299969Y-98074180D01*
X131299969Y-98074027D01*
X131599943Y-98074027D01*
X131599943Y-96774002D01*
X131299943Y-96774002D01*
X131299943Y-96774154D01*
X130999969Y-96774154D01*
G36*
X131599943Y-98074027D02*
G01*
X131299969Y-98074027D01*
X131299969Y-98074180D01*
X130999969Y-98074180D01*
X130999969Y-96774154D01*
X131299943Y-96774154D01*
X131299943Y-96774002D01*
X131599943Y-96774002D01*
X131599943Y-98074027D01*
G37*
X130199969Y-96774053D02*
X130199969Y-98074027D01*
X130499994Y-98074027D01*
X130499994Y-98074002D01*
X130799943Y-98074002D01*
X130799943Y-96774027D01*
X130499918Y-96774027D01*
X130499918Y-96774053D01*
X130199969Y-96774053D01*
G36*
X130799943Y-98074002D02*
G01*
X130499994Y-98074002D01*
X130499994Y-98074027D01*
X130199969Y-98074027D01*
X130199969Y-96774053D01*
X130499918Y-96774053D01*
X130499918Y-96774027D01*
X130799943Y-96774027D01*
X130799943Y-98074002D01*
G37*
X125399816Y-96774205D02*
X125399816Y-98074180D01*
X125699816Y-98074180D01*
X125699842Y-98074180D01*
X125999842Y-98074180D01*
X125999842Y-96774205D01*
X125699842Y-96774205D01*
X125699816Y-96774205D01*
X125399816Y-96774205D01*
G36*
X125999842Y-98074180D02*
G01*
X125699842Y-98074180D01*
X125699816Y-98074180D01*
X125399816Y-98074180D01*
X125399816Y-96774205D01*
X125699816Y-96774205D01*
X125699842Y-96774205D01*
X125999842Y-96774205D01*
X125999842Y-98074180D01*
G37*
X124599969Y-96774002D02*
X124599969Y-98073977D01*
X124899969Y-98073977D01*
X124899994Y-98073977D01*
X125199994Y-98073977D01*
X125199994Y-96774002D01*
X124899994Y-96774002D01*
X124899969Y-96774002D01*
X124599969Y-96774002D01*
G36*
X125199994Y-98073977D02*
G01*
X124899994Y-98073977D01*
X124899969Y-98073977D01*
X124599969Y-98073977D01*
X124599969Y-96774002D01*
X124899969Y-96774002D01*
X124899994Y-96774002D01*
X125199994Y-96774002D01*
X125199994Y-98073977D01*
G37*
X132440075Y-93375653D02*
X132469946Y-93374154D01*
X132499715Y-93371183D01*
X132529306Y-93366712D01*
X132558617Y-93360794D01*
X132587624Y-93353403D01*
X132616199Y-93344589D01*
X132644317Y-93334353D01*
X132671876Y-93322745D01*
X132698851Y-93309765D01*
X132725115Y-93295440D01*
X132750642Y-93279844D01*
X132775356Y-93263004D01*
X132799207Y-93244919D01*
X132822117Y-93225691D01*
X132844063Y-93205346D01*
X132864942Y-93183933D01*
X132884754Y-93161505D01*
X132903398Y-93138112D01*
X132920847Y-93113829D01*
X132937078Y-93088683D01*
X132952039Y-93062775D01*
X132965704Y-93036156D01*
X132977998Y-93008902D01*
X132988920Y-92981038D01*
X132998470Y-92952691D01*
X133006573Y-92923888D01*
X133013227Y-92894728D01*
X133018409Y-92865264D01*
X133022143Y-92835572D01*
X133024378Y-92805727D01*
X133025115Y-92775831D01*
X133025115Y-92175831D01*
X133024378Y-92145935D01*
X133022143Y-92116090D01*
X133018409Y-92086397D01*
X133013227Y-92056933D01*
X133006573Y-92027774D01*
X132998470Y-91998970D01*
X132988920Y-91970624D01*
X132977998Y-91942760D01*
X132965704Y-91915506D01*
X132952039Y-91888886D01*
X132937078Y-91862978D01*
X132920847Y-91837832D01*
X132903398Y-91813550D01*
X132884754Y-91790156D01*
X132864942Y-91767728D01*
X132844063Y-91746316D01*
X132822117Y-91725971D01*
X132799207Y-91706743D01*
X132775356Y-91688658D01*
X132750642Y-91671818D01*
X132725115Y-91656222D01*
X132698851Y-91641896D01*
X132671876Y-91628917D01*
X132644317Y-91617309D01*
X132616199Y-91607073D01*
X132587624Y-91598259D01*
X132558617Y-91590868D01*
X132529306Y-91584949D01*
X132499715Y-91580479D01*
X132469946Y-91577507D01*
X132440075Y-91576009D01*
X132410154Y-91576009D01*
X132380284Y-91577507D01*
X132350515Y-91580479D01*
X132320924Y-91584949D01*
X132291612Y-91590868D01*
X132262605Y-91598259D01*
X132234030Y-91607073D01*
X132205912Y-91617309D01*
X132178353Y-91628917D01*
X132151378Y-91641896D01*
X132125115Y-91656222D01*
X132099588Y-91671818D01*
X132074873Y-91688658D01*
X132051023Y-91706743D01*
X132028112Y-91725971D01*
X132006166Y-91746316D01*
X131985287Y-91767728D01*
X131965475Y-91790156D01*
X131946832Y-91813550D01*
X131929382Y-91837832D01*
X131913151Y-91862978D01*
X131898191Y-91888886D01*
X131884525Y-91915506D01*
X131872232Y-91942760D01*
X131861310Y-91970624D01*
X131851759Y-91998970D01*
X131843657Y-92027774D01*
X131837002Y-92056933D01*
X131831820Y-92086397D01*
X131828086Y-92116090D01*
X131825851Y-92145935D01*
X131825115Y-92175831D01*
X131825115Y-92775831D01*
X131825851Y-92805727D01*
X131828086Y-92835572D01*
X131831820Y-92865264D01*
X131837002Y-92894728D01*
X131843657Y-92923888D01*
X131851759Y-92952691D01*
X131861310Y-92981038D01*
X131872232Y-93008902D01*
X131884525Y-93036156D01*
X131898191Y-93062775D01*
X131913151Y-93088683D01*
X131929382Y-93113829D01*
X131946832Y-93138112D01*
X131965475Y-93161505D01*
X131985287Y-93183933D01*
X132006166Y-93205346D01*
X132028112Y-93225691D01*
X132051023Y-93244919D01*
X132074873Y-93263004D01*
X132099588Y-93279844D01*
X132125115Y-93295440D01*
X132151378Y-93309765D01*
X132178353Y-93322745D01*
X132205912Y-93334353D01*
X132234030Y-93344589D01*
X132262605Y-93353403D01*
X132291612Y-93360794D01*
X132320924Y-93366712D01*
X132350515Y-93371183D01*
X132380284Y-93374154D01*
X132410154Y-93375653D01*
X132440075Y-93375653D01*
G36*
X132469946Y-91577507D02*
G01*
X132499715Y-91580479D01*
X132529306Y-91584949D01*
X132558617Y-91590868D01*
X132587624Y-91598259D01*
X132616199Y-91607073D01*
X132644317Y-91617309D01*
X132671876Y-91628917D01*
X132698851Y-91641896D01*
X132725115Y-91656222D01*
X132750642Y-91671818D01*
X132775356Y-91688658D01*
X132799207Y-91706743D01*
X132822117Y-91725971D01*
X132844063Y-91746316D01*
X132864942Y-91767728D01*
X132884754Y-91790156D01*
X132903398Y-91813550D01*
X132920847Y-91837832D01*
X132937078Y-91862978D01*
X132952039Y-91888886D01*
X132965704Y-91915506D01*
X132977998Y-91942760D01*
X132988920Y-91970624D01*
X132998470Y-91998970D01*
X133006573Y-92027774D01*
X133013227Y-92056933D01*
X133018409Y-92086397D01*
X133022143Y-92116090D01*
X133024378Y-92145935D01*
X133025115Y-92175831D01*
X133025115Y-92775831D01*
X133024378Y-92805727D01*
X133022143Y-92835572D01*
X133018409Y-92865264D01*
X133013227Y-92894728D01*
X133006573Y-92923888D01*
X132998470Y-92952691D01*
X132988920Y-92981038D01*
X132977998Y-93008902D01*
X132965704Y-93036156D01*
X132952039Y-93062775D01*
X132937078Y-93088683D01*
X132920847Y-93113829D01*
X132903398Y-93138112D01*
X132884754Y-93161505D01*
X132864942Y-93183933D01*
X132844063Y-93205346D01*
X132822117Y-93225691D01*
X132799207Y-93244919D01*
X132775356Y-93263004D01*
X132750642Y-93279844D01*
X132725115Y-93295440D01*
X132698851Y-93309765D01*
X132671876Y-93322745D01*
X132644317Y-93334353D01*
X132616199Y-93344589D01*
X132587624Y-93353403D01*
X132558617Y-93360794D01*
X132529306Y-93366712D01*
X132499715Y-93371183D01*
X132469946Y-93374154D01*
X132440075Y-93375653D01*
X132410154Y-93375653D01*
X132380284Y-93374154D01*
X132350515Y-93371183D01*
X132320924Y-93366712D01*
X132291612Y-93360794D01*
X132262605Y-93353403D01*
X132234030Y-93344589D01*
X132205912Y-93334353D01*
X132178353Y-93322745D01*
X132151378Y-93309765D01*
X132125115Y-93295440D01*
X132099588Y-93279844D01*
X132074873Y-93263004D01*
X132051023Y-93244919D01*
X132028112Y-93225691D01*
X132006166Y-93205346D01*
X131985287Y-93183933D01*
X131965475Y-93161505D01*
X131946832Y-93138112D01*
X131929382Y-93113829D01*
X131913151Y-93088683D01*
X131898191Y-93062775D01*
X131884525Y-93036156D01*
X131872232Y-93008902D01*
X131861310Y-92981038D01*
X131851759Y-92952691D01*
X131843657Y-92923888D01*
X131837002Y-92894728D01*
X131831820Y-92865264D01*
X131828086Y-92835572D01*
X131825851Y-92805727D01*
X131825115Y-92775831D01*
X131825115Y-92175831D01*
X131825851Y-92145935D01*
X131828086Y-92116090D01*
X131831820Y-92086397D01*
X131837002Y-92056933D01*
X131843657Y-92027774D01*
X131851759Y-91998970D01*
X131861310Y-91970624D01*
X131872232Y-91942760D01*
X131884525Y-91915506D01*
X131898191Y-91888886D01*
X131913151Y-91862978D01*
X131929382Y-91837832D01*
X131946832Y-91813550D01*
X131965475Y-91790156D01*
X131985287Y-91767728D01*
X132006166Y-91746316D01*
X132028112Y-91725971D01*
X132051023Y-91706743D01*
X132074873Y-91688658D01*
X132099588Y-91671818D01*
X132125115Y-91656222D01*
X132151378Y-91641896D01*
X132178353Y-91628917D01*
X132205912Y-91617309D01*
X132234030Y-91607073D01*
X132262605Y-91598259D01*
X132291612Y-91590868D01*
X132320924Y-91584949D01*
X132350515Y-91580479D01*
X132380284Y-91577507D01*
X132410154Y-91576009D01*
X132440075Y-91576009D01*
X132469946Y-91577507D01*
G37*
X132380284Y-97654063D02*
X132410154Y-97655562D01*
X132440075Y-97655562D01*
X132469946Y-97654063D01*
X132499715Y-97651091D01*
X132529306Y-97646621D01*
X132558617Y-97640703D01*
X132587624Y-97633311D01*
X132616199Y-97624497D01*
X132644317Y-97614261D01*
X132671876Y-97602653D01*
X132698851Y-97589674D01*
X132725115Y-97575348D01*
X132750642Y-97559753D01*
X132775356Y-97542912D01*
X132799207Y-97524828D01*
X132822117Y-97505600D01*
X132844063Y-97485254D01*
X132864942Y-97463842D01*
X132884754Y-97441414D01*
X132903398Y-97418020D01*
X132920847Y-97393738D01*
X132937078Y-97368592D01*
X132952039Y-97342684D01*
X132965704Y-97316065D01*
X132977998Y-97288810D01*
X132988920Y-97260946D01*
X132998470Y-97232600D01*
X133006573Y-97203796D01*
X133013227Y-97174637D01*
X133018409Y-97145173D01*
X133022143Y-97115480D01*
X133024378Y-97085635D01*
X133025115Y-97055739D01*
X133025115Y-96255739D01*
X133024378Y-96225844D01*
X133022143Y-96195998D01*
X133018409Y-96166306D01*
X133013227Y-96136842D01*
X133006573Y-96107683D01*
X132998470Y-96078879D01*
X132988920Y-96050532D01*
X132977998Y-96022669D01*
X132965704Y-95995414D01*
X132952039Y-95968795D01*
X132937078Y-95942887D01*
X132920847Y-95917741D01*
X132903398Y-95893458D01*
X132884754Y-95870065D01*
X132864942Y-95847637D01*
X132844063Y-95826225D01*
X132822117Y-95805879D01*
X132799207Y-95786651D01*
X132775356Y-95768566D01*
X132750642Y-95751726D01*
X132725115Y-95736131D01*
X132698851Y-95721805D01*
X132671876Y-95708826D01*
X132644317Y-95697218D01*
X132616199Y-95686981D01*
X132587624Y-95678168D01*
X132558617Y-95670776D01*
X132529306Y-95664858D01*
X132499715Y-95660388D01*
X132469946Y-95657416D01*
X132440075Y-95655917D01*
X132410154Y-95655917D01*
X132380284Y-95657416D01*
X132350515Y-95660388D01*
X132320924Y-95664858D01*
X132291612Y-95670776D01*
X132262605Y-95678168D01*
X132234030Y-95686981D01*
X132205912Y-95697218D01*
X132178353Y-95708826D01*
X132151378Y-95721805D01*
X132125115Y-95736131D01*
X132099588Y-95751726D01*
X132074873Y-95768566D01*
X132051023Y-95786651D01*
X132028112Y-95805879D01*
X132006166Y-95826225D01*
X131985287Y-95847637D01*
X131965475Y-95870065D01*
X131946832Y-95893458D01*
X131929382Y-95917741D01*
X131913151Y-95942887D01*
X131898191Y-95968795D01*
X131884525Y-95995414D01*
X131872232Y-96022669D01*
X131861310Y-96050532D01*
X131851759Y-96078879D01*
X131843657Y-96107683D01*
X131837002Y-96136842D01*
X131831820Y-96166306D01*
X131828086Y-96195998D01*
X131825851Y-96225844D01*
X131825115Y-96255739D01*
X131825115Y-97055739D01*
X131825851Y-97085635D01*
X131828086Y-97115480D01*
X131831820Y-97145173D01*
X131837002Y-97174637D01*
X131843657Y-97203796D01*
X131851759Y-97232600D01*
X131861310Y-97260946D01*
X131872232Y-97288810D01*
X131884525Y-97316065D01*
X131898191Y-97342684D01*
X131913151Y-97368592D01*
X131929382Y-97393738D01*
X131946832Y-97418020D01*
X131965475Y-97441414D01*
X131985287Y-97463842D01*
X132006166Y-97485254D01*
X132028112Y-97505600D01*
X132051023Y-97524828D01*
X132074873Y-97542912D01*
X132099588Y-97559753D01*
X132125115Y-97575348D01*
X132151378Y-97589674D01*
X132178353Y-97602653D01*
X132205912Y-97614261D01*
X132234030Y-97624497D01*
X132262605Y-97633311D01*
X132291612Y-97640703D01*
X132320924Y-97646621D01*
X132350515Y-97651091D01*
X132380284Y-97654063D01*
G36*
X132469946Y-95657416D02*
G01*
X132499715Y-95660388D01*
X132529306Y-95664858D01*
X132558617Y-95670776D01*
X132587624Y-95678168D01*
X132616199Y-95686981D01*
X132644317Y-95697218D01*
X132671876Y-95708826D01*
X132698851Y-95721805D01*
X132725115Y-95736131D01*
X132750642Y-95751726D01*
X132775356Y-95768566D01*
X132799207Y-95786651D01*
X132822117Y-95805879D01*
X132844063Y-95826225D01*
X132864942Y-95847637D01*
X132884754Y-95870065D01*
X132903398Y-95893458D01*
X132920847Y-95917741D01*
X132937078Y-95942887D01*
X132952039Y-95968795D01*
X132965704Y-95995414D01*
X132977998Y-96022669D01*
X132988920Y-96050532D01*
X132998470Y-96078879D01*
X133006573Y-96107683D01*
X133013227Y-96136842D01*
X133018409Y-96166306D01*
X133022143Y-96195998D01*
X133024378Y-96225844D01*
X133025115Y-96255739D01*
X133025115Y-97055739D01*
X133024378Y-97085635D01*
X133022143Y-97115480D01*
X133018409Y-97145173D01*
X133013227Y-97174637D01*
X133006573Y-97203796D01*
X132998470Y-97232600D01*
X132988920Y-97260946D01*
X132977998Y-97288810D01*
X132965704Y-97316065D01*
X132952039Y-97342684D01*
X132937078Y-97368592D01*
X132920847Y-97393738D01*
X132903398Y-97418020D01*
X132884754Y-97441414D01*
X132864942Y-97463842D01*
X132844063Y-97485254D01*
X132822117Y-97505600D01*
X132799207Y-97524828D01*
X132775356Y-97542912D01*
X132750642Y-97559753D01*
X132725115Y-97575348D01*
X132698851Y-97589674D01*
X132671876Y-97602653D01*
X132644317Y-97614261D01*
X132616199Y-97624497D01*
X132587624Y-97633311D01*
X132558617Y-97640703D01*
X132529306Y-97646621D01*
X132499715Y-97651091D01*
X132469946Y-97654063D01*
X132440075Y-97655562D01*
X132410154Y-97655562D01*
X132380284Y-97654063D01*
X132350515Y-97651091D01*
X132320924Y-97646621D01*
X132291612Y-97640703D01*
X132262605Y-97633311D01*
X132234030Y-97624497D01*
X132205912Y-97614261D01*
X132178353Y-97602653D01*
X132151378Y-97589674D01*
X132125115Y-97575348D01*
X132099588Y-97559753D01*
X132074873Y-97542912D01*
X132051023Y-97524828D01*
X132028112Y-97505600D01*
X132006166Y-97485254D01*
X131985287Y-97463842D01*
X131965475Y-97441414D01*
X131946832Y-97418020D01*
X131929382Y-97393738D01*
X131913151Y-97368592D01*
X131898191Y-97342684D01*
X131884525Y-97316065D01*
X131872232Y-97288810D01*
X131861310Y-97260946D01*
X131851759Y-97232600D01*
X131843657Y-97203796D01*
X131837002Y-97174637D01*
X131831820Y-97145173D01*
X131828086Y-97115480D01*
X131825851Y-97085635D01*
X131825115Y-97055739D01*
X131825115Y-96255739D01*
X131825851Y-96225844D01*
X131828086Y-96195998D01*
X131831820Y-96166306D01*
X131837002Y-96136842D01*
X131843657Y-96107683D01*
X131851759Y-96078879D01*
X131861310Y-96050532D01*
X131872232Y-96022669D01*
X131884525Y-95995414D01*
X131898191Y-95968795D01*
X131913151Y-95942887D01*
X131929382Y-95917741D01*
X131946832Y-95893458D01*
X131965475Y-95870065D01*
X131985287Y-95847637D01*
X132006166Y-95826225D01*
X132028112Y-95805879D01*
X132051023Y-95786651D01*
X132074873Y-95768566D01*
X132099588Y-95751726D01*
X132125115Y-95736131D01*
X132151378Y-95721805D01*
X132178353Y-95708826D01*
X132205912Y-95697218D01*
X132234030Y-95686981D01*
X132262605Y-95678168D01*
X132291612Y-95670776D01*
X132320924Y-95664858D01*
X132350515Y-95660388D01*
X132380284Y-95657416D01*
X132410154Y-95655917D01*
X132440075Y-95655917D01*
X132469946Y-95657416D01*
G37*
X123730042Y-97654063D02*
X123759913Y-97655562D01*
X123789834Y-97655562D01*
X123819704Y-97654063D01*
X123849473Y-97651091D01*
X123879064Y-97646621D01*
X123908376Y-97640703D01*
X123937383Y-97633311D01*
X123965958Y-97624497D01*
X123994076Y-97614261D01*
X124021635Y-97602653D01*
X124048610Y-97589674D01*
X124074873Y-97575348D01*
X124100400Y-97559753D01*
X124125115Y-97542912D01*
X124148965Y-97524828D01*
X124171876Y-97505600D01*
X124193822Y-97485254D01*
X124214701Y-97463842D01*
X124234513Y-97441414D01*
X124253156Y-97418020D01*
X124270606Y-97393738D01*
X124286837Y-97368592D01*
X124301797Y-97342684D01*
X124315463Y-97316065D01*
X124327756Y-97288810D01*
X124338678Y-97260946D01*
X124348229Y-97232600D01*
X124356331Y-97203796D01*
X124362986Y-97174637D01*
X124368168Y-97145173D01*
X124371902Y-97115480D01*
X124374137Y-97085635D01*
X124374873Y-97055739D01*
X124374873Y-96255739D01*
X124374137Y-96225844D01*
X124371902Y-96195998D01*
X124368168Y-96166306D01*
X124362986Y-96136842D01*
X124356331Y-96107683D01*
X124348229Y-96078879D01*
X124338678Y-96050532D01*
X124327756Y-96022669D01*
X124315463Y-95995414D01*
X124301797Y-95968795D01*
X124286837Y-95942887D01*
X124270606Y-95917741D01*
X124253156Y-95893458D01*
X124234513Y-95870065D01*
X124214701Y-95847637D01*
X124193822Y-95826225D01*
X124171876Y-95805879D01*
X124148965Y-95786651D01*
X124125115Y-95768566D01*
X124100400Y-95751726D01*
X124074873Y-95736131D01*
X124048610Y-95721805D01*
X124021635Y-95708826D01*
X123994076Y-95697218D01*
X123965958Y-95686981D01*
X123937383Y-95678168D01*
X123908376Y-95670776D01*
X123879064Y-95664858D01*
X123849473Y-95660388D01*
X123819704Y-95657416D01*
X123789834Y-95655917D01*
X123759913Y-95655917D01*
X123730042Y-95657416D01*
X123700273Y-95660388D01*
X123670682Y-95664858D01*
X123641371Y-95670776D01*
X123612364Y-95678168D01*
X123583789Y-95686981D01*
X123555671Y-95697218D01*
X123528112Y-95708826D01*
X123501137Y-95721805D01*
X123474873Y-95736131D01*
X123449346Y-95751726D01*
X123424632Y-95768566D01*
X123400781Y-95786651D01*
X123377871Y-95805879D01*
X123355925Y-95826225D01*
X123335046Y-95847637D01*
X123315234Y-95870065D01*
X123296590Y-95893458D01*
X123279141Y-95917741D01*
X123262910Y-95942887D01*
X123247949Y-95968795D01*
X123234284Y-95995414D01*
X123221990Y-96022669D01*
X123211068Y-96050532D01*
X123201518Y-96078879D01*
X123193415Y-96107683D01*
X123186761Y-96136842D01*
X123181579Y-96166306D01*
X123177845Y-96195998D01*
X123175610Y-96225844D01*
X123174873Y-96255739D01*
X123174873Y-97055739D01*
X123175610Y-97085635D01*
X123177845Y-97115480D01*
X123181579Y-97145173D01*
X123186761Y-97174637D01*
X123193415Y-97203796D01*
X123201518Y-97232600D01*
X123211068Y-97260946D01*
X123221990Y-97288810D01*
X123234284Y-97316065D01*
X123247949Y-97342684D01*
X123262910Y-97368592D01*
X123279141Y-97393738D01*
X123296590Y-97418020D01*
X123315234Y-97441414D01*
X123335046Y-97463842D01*
X123355925Y-97485254D01*
X123377871Y-97505600D01*
X123400781Y-97524828D01*
X123424632Y-97542912D01*
X123449346Y-97559753D01*
X123474873Y-97575348D01*
X123501137Y-97589674D01*
X123528112Y-97602653D01*
X123555671Y-97614261D01*
X123583789Y-97624497D01*
X123612364Y-97633311D01*
X123641371Y-97640703D01*
X123670682Y-97646621D01*
X123700273Y-97651091D01*
X123730042Y-97654063D01*
G36*
X123819704Y-95657416D02*
G01*
X123849473Y-95660388D01*
X123879064Y-95664858D01*
X123908376Y-95670776D01*
X123937383Y-95678168D01*
X123965958Y-95686981D01*
X123994076Y-95697218D01*
X124021635Y-95708826D01*
X124048610Y-95721805D01*
X124074873Y-95736131D01*
X124100400Y-95751726D01*
X124125115Y-95768566D01*
X124148965Y-95786651D01*
X124171876Y-95805879D01*
X124193822Y-95826225D01*
X124214701Y-95847637D01*
X124234513Y-95870065D01*
X124253156Y-95893458D01*
X124270606Y-95917741D01*
X124286837Y-95942887D01*
X124301797Y-95968795D01*
X124315463Y-95995414D01*
X124327756Y-96022669D01*
X124338678Y-96050532D01*
X124348229Y-96078879D01*
X124356331Y-96107683D01*
X124362986Y-96136842D01*
X124368168Y-96166306D01*
X124371902Y-96195998D01*
X124374137Y-96225844D01*
X124374873Y-96255739D01*
X124374873Y-97055739D01*
X124374137Y-97085635D01*
X124371902Y-97115480D01*
X124368168Y-97145173D01*
X124362986Y-97174637D01*
X124356331Y-97203796D01*
X124348229Y-97232600D01*
X124338678Y-97260946D01*
X124327756Y-97288810D01*
X124315463Y-97316065D01*
X124301797Y-97342684D01*
X124286837Y-97368592D01*
X124270606Y-97393738D01*
X124253156Y-97418020D01*
X124234513Y-97441414D01*
X124214701Y-97463842D01*
X124193822Y-97485254D01*
X124171876Y-97505600D01*
X124148965Y-97524828D01*
X124125115Y-97542912D01*
X124100400Y-97559753D01*
X124074873Y-97575348D01*
X124048610Y-97589674D01*
X124021635Y-97602653D01*
X123994076Y-97614261D01*
X123965958Y-97624497D01*
X123937383Y-97633311D01*
X123908376Y-97640703D01*
X123879064Y-97646621D01*
X123849473Y-97651091D01*
X123819704Y-97654063D01*
X123789834Y-97655562D01*
X123759913Y-97655562D01*
X123730042Y-97654063D01*
X123700273Y-97651091D01*
X123670682Y-97646621D01*
X123641371Y-97640703D01*
X123612364Y-97633311D01*
X123583789Y-97624497D01*
X123555671Y-97614261D01*
X123528112Y-97602653D01*
X123501137Y-97589674D01*
X123474873Y-97575348D01*
X123449346Y-97559753D01*
X123424632Y-97542912D01*
X123400781Y-97524828D01*
X123377871Y-97505600D01*
X123355925Y-97485254D01*
X123335046Y-97463842D01*
X123315234Y-97441414D01*
X123296590Y-97418020D01*
X123279141Y-97393738D01*
X123262910Y-97368592D01*
X123247949Y-97342684D01*
X123234284Y-97316065D01*
X123221990Y-97288810D01*
X123211068Y-97260946D01*
X123201518Y-97232600D01*
X123193415Y-97203796D01*
X123186761Y-97174637D01*
X123181579Y-97145173D01*
X123177845Y-97115480D01*
X123175610Y-97085635D01*
X123174873Y-97055739D01*
X123174873Y-96255739D01*
X123175610Y-96225844D01*
X123177845Y-96195998D01*
X123181579Y-96166306D01*
X123186761Y-96136842D01*
X123193415Y-96107683D01*
X123201518Y-96078879D01*
X123211068Y-96050532D01*
X123221990Y-96022669D01*
X123234284Y-95995414D01*
X123247949Y-95968795D01*
X123262910Y-95942887D01*
X123279141Y-95917741D01*
X123296590Y-95893458D01*
X123315234Y-95870065D01*
X123335046Y-95847637D01*
X123355925Y-95826225D01*
X123377871Y-95805879D01*
X123400781Y-95786651D01*
X123424632Y-95768566D01*
X123449346Y-95751726D01*
X123474873Y-95736131D01*
X123501137Y-95721805D01*
X123528112Y-95708826D01*
X123555671Y-95697218D01*
X123583789Y-95686981D01*
X123612364Y-95678168D01*
X123641371Y-95670776D01*
X123670682Y-95664858D01*
X123700273Y-95660388D01*
X123730042Y-95657416D01*
X123759913Y-95655917D01*
X123789834Y-95655917D01*
X123819704Y-95657416D01*
G37*
X123730042Y-93374154D02*
X123759913Y-93375653D01*
X123789834Y-93375653D01*
X123819704Y-93374154D01*
X123849473Y-93371183D01*
X123879064Y-93366712D01*
X123908376Y-93360794D01*
X123937383Y-93353403D01*
X123965958Y-93344589D01*
X123994076Y-93334353D01*
X124021635Y-93322745D01*
X124048610Y-93309765D01*
X124074873Y-93295440D01*
X124100400Y-93279844D01*
X124125115Y-93263004D01*
X124148965Y-93244919D01*
X124171876Y-93225691D01*
X124193822Y-93205346D01*
X124214701Y-93183933D01*
X124234513Y-93161505D01*
X124253156Y-93138112D01*
X124270606Y-93113829D01*
X124286837Y-93088683D01*
X124301797Y-93062775D01*
X124315463Y-93036156D01*
X124327756Y-93008902D01*
X124338678Y-92981038D01*
X124348229Y-92952691D01*
X124356331Y-92923888D01*
X124362986Y-92894728D01*
X124368168Y-92865264D01*
X124371902Y-92835572D01*
X124374137Y-92805727D01*
X124374873Y-92775831D01*
X124374873Y-92175831D01*
X124374137Y-92145935D01*
X124371902Y-92116090D01*
X124368168Y-92086397D01*
X124362986Y-92056933D01*
X124356331Y-92027774D01*
X124348229Y-91998970D01*
X124338678Y-91970624D01*
X124327756Y-91942760D01*
X124315463Y-91915506D01*
X124301797Y-91888886D01*
X124286837Y-91862978D01*
X124270606Y-91837832D01*
X124253156Y-91813550D01*
X124234513Y-91790156D01*
X124214701Y-91767728D01*
X124193822Y-91746316D01*
X124171876Y-91725971D01*
X124148965Y-91706743D01*
X124125115Y-91688658D01*
X124100400Y-91671818D01*
X124074873Y-91656222D01*
X124048610Y-91641896D01*
X124021635Y-91628917D01*
X123994076Y-91617309D01*
X123965958Y-91607073D01*
X123937383Y-91598259D01*
X123908376Y-91590868D01*
X123879064Y-91584949D01*
X123849473Y-91580479D01*
X123819704Y-91577507D01*
X123789834Y-91576009D01*
X123759913Y-91576009D01*
X123730042Y-91577507D01*
X123700273Y-91580479D01*
X123670682Y-91584949D01*
X123641371Y-91590868D01*
X123612364Y-91598259D01*
X123583789Y-91607073D01*
X123555671Y-91617309D01*
X123528112Y-91628917D01*
X123501137Y-91641896D01*
X123474873Y-91656222D01*
X123449346Y-91671818D01*
X123424632Y-91688658D01*
X123400781Y-91706743D01*
X123377871Y-91725971D01*
X123355925Y-91746316D01*
X123335046Y-91767728D01*
X123315234Y-91790156D01*
X123296590Y-91813550D01*
X123279141Y-91837832D01*
X123262910Y-91862978D01*
X123247949Y-91888886D01*
X123234284Y-91915506D01*
X123221990Y-91942760D01*
X123211068Y-91970624D01*
X123201518Y-91998970D01*
X123193415Y-92027774D01*
X123186761Y-92056933D01*
X123181579Y-92086397D01*
X123177845Y-92116090D01*
X123175610Y-92145935D01*
X123174873Y-92175831D01*
X123174873Y-92775831D01*
X123175610Y-92805727D01*
X123177845Y-92835572D01*
X123181579Y-92865264D01*
X123186761Y-92894728D01*
X123193415Y-92923888D01*
X123201518Y-92952691D01*
X123211068Y-92981038D01*
X123221990Y-93008902D01*
X123234284Y-93036156D01*
X123247949Y-93062775D01*
X123262910Y-93088683D01*
X123279141Y-93113829D01*
X123296590Y-93138112D01*
X123315234Y-93161505D01*
X123335046Y-93183933D01*
X123355925Y-93205346D01*
X123377871Y-93225691D01*
X123400781Y-93244919D01*
X123424632Y-93263004D01*
X123449346Y-93279844D01*
X123474873Y-93295440D01*
X123501137Y-93309765D01*
X123528112Y-93322745D01*
X123555671Y-93334353D01*
X123583789Y-93344589D01*
X123612364Y-93353403D01*
X123641371Y-93360794D01*
X123670682Y-93366712D01*
X123700273Y-93371183D01*
X123730042Y-93374154D01*
G36*
X123819704Y-91577507D02*
G01*
X123849473Y-91580479D01*
X123879064Y-91584949D01*
X123908376Y-91590868D01*
X123937383Y-91598259D01*
X123965958Y-91607073D01*
X123994076Y-91617309D01*
X124021635Y-91628917D01*
X124048610Y-91641896D01*
X124074873Y-91656222D01*
X124100400Y-91671818D01*
X124125115Y-91688658D01*
X124148965Y-91706743D01*
X124171876Y-91725971D01*
X124193822Y-91746316D01*
X124214701Y-91767728D01*
X124234513Y-91790156D01*
X124253156Y-91813550D01*
X124270606Y-91837832D01*
X124286837Y-91862978D01*
X124301797Y-91888886D01*
X124315463Y-91915506D01*
X124327756Y-91942760D01*
X124338678Y-91970624D01*
X124348229Y-91998970D01*
X124356331Y-92027774D01*
X124362986Y-92056933D01*
X124368168Y-92086397D01*
X124371902Y-92116090D01*
X124374137Y-92145935D01*
X124374873Y-92175831D01*
X124374873Y-92775831D01*
X124374137Y-92805727D01*
X124371902Y-92835572D01*
X124368168Y-92865264D01*
X124362986Y-92894728D01*
X124356331Y-92923888D01*
X124348229Y-92952691D01*
X124338678Y-92981038D01*
X124327756Y-93008902D01*
X124315463Y-93036156D01*
X124301797Y-93062775D01*
X124286837Y-93088683D01*
X124270606Y-93113829D01*
X124253156Y-93138112D01*
X124234513Y-93161505D01*
X124214701Y-93183933D01*
X124193822Y-93205346D01*
X124171876Y-93225691D01*
X124148965Y-93244919D01*
X124125115Y-93263004D01*
X124100400Y-93279844D01*
X124074873Y-93295440D01*
X124048610Y-93309765D01*
X124021635Y-93322745D01*
X123994076Y-93334353D01*
X123965958Y-93344589D01*
X123937383Y-93353403D01*
X123908376Y-93360794D01*
X123879064Y-93366712D01*
X123849473Y-93371183D01*
X123819704Y-93374154D01*
X123789834Y-93375653D01*
X123759913Y-93375653D01*
X123730042Y-93374154D01*
X123700273Y-93371183D01*
X123670682Y-93366712D01*
X123641371Y-93360794D01*
X123612364Y-93353403D01*
X123583789Y-93344589D01*
X123555671Y-93334353D01*
X123528112Y-93322745D01*
X123501137Y-93309765D01*
X123474873Y-93295440D01*
X123449346Y-93279844D01*
X123424632Y-93263004D01*
X123400781Y-93244919D01*
X123377871Y-93225691D01*
X123355925Y-93205346D01*
X123335046Y-93183933D01*
X123315234Y-93161505D01*
X123296590Y-93138112D01*
X123279141Y-93113829D01*
X123262910Y-93088683D01*
X123247949Y-93062775D01*
X123234284Y-93036156D01*
X123221990Y-93008902D01*
X123211068Y-92981038D01*
X123201518Y-92952691D01*
X123193415Y-92923888D01*
X123186761Y-92894728D01*
X123181579Y-92865264D01*
X123177845Y-92835572D01*
X123175610Y-92805727D01*
X123174873Y-92775831D01*
X123174873Y-92175831D01*
X123175610Y-92145935D01*
X123177845Y-92116090D01*
X123181579Y-92086397D01*
X123186761Y-92056933D01*
X123193415Y-92027774D01*
X123201518Y-91998970D01*
X123211068Y-91970624D01*
X123221990Y-91942760D01*
X123234284Y-91915506D01*
X123247949Y-91888886D01*
X123262910Y-91862978D01*
X123279141Y-91837832D01*
X123296590Y-91813550D01*
X123315234Y-91790156D01*
X123335046Y-91767728D01*
X123355925Y-91746316D01*
X123377871Y-91725971D01*
X123400781Y-91706743D01*
X123424632Y-91688658D01*
X123449346Y-91671818D01*
X123474873Y-91656222D01*
X123501137Y-91641896D01*
X123528112Y-91628917D01*
X123555671Y-91617309D01*
X123583789Y-91607073D01*
X123612364Y-91598259D01*
X123641371Y-91590868D01*
X123670682Y-91584949D01*
X123700273Y-91580479D01*
X123730042Y-91577507D01*
X123759913Y-91576009D01*
X123789834Y-91576009D01*
X123819704Y-91577507D01*
G37*
%TO.C,J2*%
X99700045Y-96774129D02*
X99700045Y-98074154D01*
X100000045Y-98074154D01*
X100000045Y-96774129D01*
X99700045Y-96774129D01*
G36*
X100000045Y-98074154D02*
G01*
X99700045Y-98074154D01*
X99700045Y-96774129D01*
X100000045Y-96774129D01*
X100000045Y-98074154D01*
G37*
X99499918Y-98074154D02*
X99499918Y-96774129D01*
X99199918Y-96774129D01*
X99199918Y-98074154D01*
X99499918Y-98074154D01*
G36*
X99499918Y-98074154D02*
G01*
X99199918Y-98074154D01*
X99199918Y-96774129D01*
X99499918Y-96774129D01*
X99499918Y-98074154D01*
G37*
X98700045Y-96774154D02*
X98700045Y-98074180D01*
X99000045Y-98074180D01*
X99000045Y-96774154D01*
X98700045Y-96774154D01*
G36*
X99000045Y-98074180D02*
G01*
X98700045Y-98074180D01*
X98700045Y-96774154D01*
X99000045Y-96774154D01*
X99000045Y-98074180D01*
G37*
X98199918Y-96774129D02*
X98199918Y-98074154D01*
X98499918Y-98074154D01*
X98499918Y-96774129D01*
X98199918Y-96774129D01*
G36*
X98499918Y-98074154D02*
G01*
X98199918Y-98074154D01*
X98199918Y-96774129D01*
X98499918Y-96774129D01*
X98499918Y-98074154D01*
G37*
X97700045Y-96774154D02*
X97700045Y-98074180D01*
X98000045Y-98074180D01*
X98000045Y-96774154D01*
X97700045Y-96774154D01*
G36*
X98000045Y-98074180D02*
G01*
X97700045Y-98074180D01*
X97700045Y-96774154D01*
X98000045Y-96774154D01*
X98000045Y-98074180D01*
G37*
X97199918Y-96774129D02*
X97199918Y-98074154D01*
X97499918Y-98074154D01*
X97499918Y-96774129D01*
X97199918Y-96774129D01*
G36*
X97499918Y-98074154D02*
G01*
X97199918Y-98074154D01*
X97199918Y-96774129D01*
X97499918Y-96774129D01*
X97499918Y-98074154D01*
G37*
X96700299Y-96774129D02*
X96700299Y-98074154D01*
X97000299Y-98074154D01*
X97000299Y-96774129D01*
X96700299Y-96774129D01*
G36*
X97000299Y-98074154D02*
G01*
X96700299Y-98074154D01*
X96700299Y-96774129D01*
X97000299Y-96774129D01*
X97000299Y-98074154D01*
G37*
X96199918Y-96774129D02*
X96199918Y-98074154D01*
X96499918Y-98074154D01*
X96499918Y-96774129D01*
X96199918Y-96774129D01*
G36*
X96499918Y-98074154D02*
G01*
X96199918Y-98074154D01*
X96199918Y-96774129D01*
X96499918Y-96774129D01*
X96499918Y-98074154D01*
G37*
X100999969Y-96774154D02*
X100999969Y-98074180D01*
X101299969Y-98074180D01*
X101299969Y-98074027D01*
X101599943Y-98074027D01*
X101599943Y-96774002D01*
X101299943Y-96774002D01*
X101299943Y-96774154D01*
X100999969Y-96774154D01*
G36*
X101599943Y-98074027D02*
G01*
X101299969Y-98074027D01*
X101299969Y-98074180D01*
X100999969Y-98074180D01*
X100999969Y-96774154D01*
X101299943Y-96774154D01*
X101299943Y-96774002D01*
X101599943Y-96774002D01*
X101599943Y-98074027D01*
G37*
X100199969Y-96774053D02*
X100199969Y-98074027D01*
X100499994Y-98074027D01*
X100499994Y-98074002D01*
X100799943Y-98074002D01*
X100799943Y-96774027D01*
X100499918Y-96774027D01*
X100499918Y-96774053D01*
X100199969Y-96774053D01*
G36*
X100799943Y-98074002D02*
G01*
X100499994Y-98074002D01*
X100499994Y-98074027D01*
X100199969Y-98074027D01*
X100199969Y-96774053D01*
X100499918Y-96774053D01*
X100499918Y-96774027D01*
X100799943Y-96774027D01*
X100799943Y-98074002D01*
G37*
X95399816Y-96774205D02*
X95399816Y-98074180D01*
X95699816Y-98074180D01*
X95699842Y-98074180D01*
X95999842Y-98074180D01*
X95999842Y-96774205D01*
X95699842Y-96774205D01*
X95699816Y-96774205D01*
X95399816Y-96774205D01*
G36*
X95999842Y-98074180D02*
G01*
X95699842Y-98074180D01*
X95699816Y-98074180D01*
X95399816Y-98074180D01*
X95399816Y-96774205D01*
X95699816Y-96774205D01*
X95699842Y-96774205D01*
X95999842Y-96774205D01*
X95999842Y-98074180D01*
G37*
X94599969Y-96774002D02*
X94599969Y-98073977D01*
X94899969Y-98073977D01*
X94899994Y-98073977D01*
X95199994Y-98073977D01*
X95199994Y-96774002D01*
X94899994Y-96774002D01*
X94899969Y-96774002D01*
X94599969Y-96774002D01*
G36*
X95199994Y-98073977D02*
G01*
X94899994Y-98073977D01*
X94899969Y-98073977D01*
X94599969Y-98073977D01*
X94599969Y-96774002D01*
X94899969Y-96774002D01*
X94899994Y-96774002D01*
X95199994Y-96774002D01*
X95199994Y-98073977D01*
G37*
X102440075Y-93375653D02*
X102469946Y-93374154D01*
X102499715Y-93371183D01*
X102529306Y-93366712D01*
X102558617Y-93360794D01*
X102587624Y-93353403D01*
X102616199Y-93344589D01*
X102644317Y-93334353D01*
X102671876Y-93322745D01*
X102698851Y-93309765D01*
X102725115Y-93295440D01*
X102750642Y-93279844D01*
X102775356Y-93263004D01*
X102799207Y-93244919D01*
X102822117Y-93225691D01*
X102844063Y-93205346D01*
X102864942Y-93183933D01*
X102884754Y-93161505D01*
X102903398Y-93138112D01*
X102920847Y-93113829D01*
X102937078Y-93088683D01*
X102952039Y-93062775D01*
X102965704Y-93036156D01*
X102977998Y-93008902D01*
X102988920Y-92981038D01*
X102998470Y-92952691D01*
X103006573Y-92923888D01*
X103013227Y-92894728D01*
X103018409Y-92865264D01*
X103022143Y-92835572D01*
X103024378Y-92805727D01*
X103025115Y-92775831D01*
X103025115Y-92175831D01*
X103024378Y-92145935D01*
X103022143Y-92116090D01*
X103018409Y-92086397D01*
X103013227Y-92056933D01*
X103006573Y-92027774D01*
X102998470Y-91998970D01*
X102988920Y-91970624D01*
X102977998Y-91942760D01*
X102965704Y-91915506D01*
X102952039Y-91888886D01*
X102937078Y-91862978D01*
X102920847Y-91837832D01*
X102903398Y-91813550D01*
X102884754Y-91790156D01*
X102864942Y-91767728D01*
X102844063Y-91746316D01*
X102822117Y-91725971D01*
X102799207Y-91706743D01*
X102775356Y-91688658D01*
X102750642Y-91671818D01*
X102725115Y-91656222D01*
X102698851Y-91641896D01*
X102671876Y-91628917D01*
X102644317Y-91617309D01*
X102616199Y-91607073D01*
X102587624Y-91598259D01*
X102558617Y-91590868D01*
X102529306Y-91584949D01*
X102499715Y-91580479D01*
X102469946Y-91577507D01*
X102440075Y-91576009D01*
X102410154Y-91576009D01*
X102380284Y-91577507D01*
X102350515Y-91580479D01*
X102320924Y-91584949D01*
X102291612Y-91590868D01*
X102262605Y-91598259D01*
X102234030Y-91607073D01*
X102205912Y-91617309D01*
X102178353Y-91628917D01*
X102151378Y-91641896D01*
X102125115Y-91656222D01*
X102099588Y-91671818D01*
X102074873Y-91688658D01*
X102051023Y-91706743D01*
X102028112Y-91725971D01*
X102006166Y-91746316D01*
X101985287Y-91767728D01*
X101965475Y-91790156D01*
X101946832Y-91813550D01*
X101929382Y-91837832D01*
X101913151Y-91862978D01*
X101898191Y-91888886D01*
X101884525Y-91915506D01*
X101872232Y-91942760D01*
X101861310Y-91970624D01*
X101851759Y-91998970D01*
X101843657Y-92027774D01*
X101837002Y-92056933D01*
X101831820Y-92086397D01*
X101828086Y-92116090D01*
X101825851Y-92145935D01*
X101825115Y-92175831D01*
X101825115Y-92775831D01*
X101825851Y-92805727D01*
X101828086Y-92835572D01*
X101831820Y-92865264D01*
X101837002Y-92894728D01*
X101843657Y-92923888D01*
X101851759Y-92952691D01*
X101861310Y-92981038D01*
X101872232Y-93008902D01*
X101884525Y-93036156D01*
X101898191Y-93062775D01*
X101913151Y-93088683D01*
X101929382Y-93113829D01*
X101946832Y-93138112D01*
X101965475Y-93161505D01*
X101985287Y-93183933D01*
X102006166Y-93205346D01*
X102028112Y-93225691D01*
X102051023Y-93244919D01*
X102074873Y-93263004D01*
X102099588Y-93279844D01*
X102125115Y-93295440D01*
X102151378Y-93309765D01*
X102178353Y-93322745D01*
X102205912Y-93334353D01*
X102234030Y-93344589D01*
X102262605Y-93353403D01*
X102291612Y-93360794D01*
X102320924Y-93366712D01*
X102350515Y-93371183D01*
X102380284Y-93374154D01*
X102410154Y-93375653D01*
X102440075Y-93375653D01*
G36*
X102469946Y-91577507D02*
G01*
X102499715Y-91580479D01*
X102529306Y-91584949D01*
X102558617Y-91590868D01*
X102587624Y-91598259D01*
X102616199Y-91607073D01*
X102644317Y-91617309D01*
X102671876Y-91628917D01*
X102698851Y-91641896D01*
X102725115Y-91656222D01*
X102750642Y-91671818D01*
X102775356Y-91688658D01*
X102799207Y-91706743D01*
X102822117Y-91725971D01*
X102844063Y-91746316D01*
X102864942Y-91767728D01*
X102884754Y-91790156D01*
X102903398Y-91813550D01*
X102920847Y-91837832D01*
X102937078Y-91862978D01*
X102952039Y-91888886D01*
X102965704Y-91915506D01*
X102977998Y-91942760D01*
X102988920Y-91970624D01*
X102998470Y-91998970D01*
X103006573Y-92027774D01*
X103013227Y-92056933D01*
X103018409Y-92086397D01*
X103022143Y-92116090D01*
X103024378Y-92145935D01*
X103025115Y-92175831D01*
X103025115Y-92775831D01*
X103024378Y-92805727D01*
X103022143Y-92835572D01*
X103018409Y-92865264D01*
X103013227Y-92894728D01*
X103006573Y-92923888D01*
X102998470Y-92952691D01*
X102988920Y-92981038D01*
X102977998Y-93008902D01*
X102965704Y-93036156D01*
X102952039Y-93062775D01*
X102937078Y-93088683D01*
X102920847Y-93113829D01*
X102903398Y-93138112D01*
X102884754Y-93161505D01*
X102864942Y-93183933D01*
X102844063Y-93205346D01*
X102822117Y-93225691D01*
X102799207Y-93244919D01*
X102775356Y-93263004D01*
X102750642Y-93279844D01*
X102725115Y-93295440D01*
X102698851Y-93309765D01*
X102671876Y-93322745D01*
X102644317Y-93334353D01*
X102616199Y-93344589D01*
X102587624Y-93353403D01*
X102558617Y-93360794D01*
X102529306Y-93366712D01*
X102499715Y-93371183D01*
X102469946Y-93374154D01*
X102440075Y-93375653D01*
X102410154Y-93375653D01*
X102380284Y-93374154D01*
X102350515Y-93371183D01*
X102320924Y-93366712D01*
X102291612Y-93360794D01*
X102262605Y-93353403D01*
X102234030Y-93344589D01*
X102205912Y-93334353D01*
X102178353Y-93322745D01*
X102151378Y-93309765D01*
X102125115Y-93295440D01*
X102099588Y-93279844D01*
X102074873Y-93263004D01*
X102051023Y-93244919D01*
X102028112Y-93225691D01*
X102006166Y-93205346D01*
X101985287Y-93183933D01*
X101965475Y-93161505D01*
X101946832Y-93138112D01*
X101929382Y-93113829D01*
X101913151Y-93088683D01*
X101898191Y-93062775D01*
X101884525Y-93036156D01*
X101872232Y-93008902D01*
X101861310Y-92981038D01*
X101851759Y-92952691D01*
X101843657Y-92923888D01*
X101837002Y-92894728D01*
X101831820Y-92865264D01*
X101828086Y-92835572D01*
X101825851Y-92805727D01*
X101825115Y-92775831D01*
X101825115Y-92175831D01*
X101825851Y-92145935D01*
X101828086Y-92116090D01*
X101831820Y-92086397D01*
X101837002Y-92056933D01*
X101843657Y-92027774D01*
X101851759Y-91998970D01*
X101861310Y-91970624D01*
X101872232Y-91942760D01*
X101884525Y-91915506D01*
X101898191Y-91888886D01*
X101913151Y-91862978D01*
X101929382Y-91837832D01*
X101946832Y-91813550D01*
X101965475Y-91790156D01*
X101985287Y-91767728D01*
X102006166Y-91746316D01*
X102028112Y-91725971D01*
X102051023Y-91706743D01*
X102074873Y-91688658D01*
X102099588Y-91671818D01*
X102125115Y-91656222D01*
X102151378Y-91641896D01*
X102178353Y-91628917D01*
X102205912Y-91617309D01*
X102234030Y-91607073D01*
X102262605Y-91598259D01*
X102291612Y-91590868D01*
X102320924Y-91584949D01*
X102350515Y-91580479D01*
X102380284Y-91577507D01*
X102410154Y-91576009D01*
X102440075Y-91576009D01*
X102469946Y-91577507D01*
G37*
X102380284Y-97654063D02*
X102410154Y-97655562D01*
X102440075Y-97655562D01*
X102469946Y-97654063D01*
X102499715Y-97651091D01*
X102529306Y-97646621D01*
X102558617Y-97640703D01*
X102587624Y-97633311D01*
X102616199Y-97624497D01*
X102644317Y-97614261D01*
X102671876Y-97602653D01*
X102698851Y-97589674D01*
X102725115Y-97575348D01*
X102750642Y-97559753D01*
X102775356Y-97542912D01*
X102799207Y-97524828D01*
X102822117Y-97505600D01*
X102844063Y-97485254D01*
X102864942Y-97463842D01*
X102884754Y-97441414D01*
X102903398Y-97418020D01*
X102920847Y-97393738D01*
X102937078Y-97368592D01*
X102952039Y-97342684D01*
X102965704Y-97316065D01*
X102977998Y-97288810D01*
X102988920Y-97260946D01*
X102998470Y-97232600D01*
X103006573Y-97203796D01*
X103013227Y-97174637D01*
X103018409Y-97145173D01*
X103022143Y-97115480D01*
X103024378Y-97085635D01*
X103025115Y-97055739D01*
X103025115Y-96255739D01*
X103024378Y-96225844D01*
X103022143Y-96195998D01*
X103018409Y-96166306D01*
X103013227Y-96136842D01*
X103006573Y-96107683D01*
X102998470Y-96078879D01*
X102988920Y-96050532D01*
X102977998Y-96022669D01*
X102965704Y-95995414D01*
X102952039Y-95968795D01*
X102937078Y-95942887D01*
X102920847Y-95917741D01*
X102903398Y-95893458D01*
X102884754Y-95870065D01*
X102864942Y-95847637D01*
X102844063Y-95826225D01*
X102822117Y-95805879D01*
X102799207Y-95786651D01*
X102775356Y-95768566D01*
X102750642Y-95751726D01*
X102725115Y-95736131D01*
X102698851Y-95721805D01*
X102671876Y-95708826D01*
X102644317Y-95697218D01*
X102616199Y-95686981D01*
X102587624Y-95678168D01*
X102558617Y-95670776D01*
X102529306Y-95664858D01*
X102499715Y-95660388D01*
X102469946Y-95657416D01*
X102440075Y-95655917D01*
X102410154Y-95655917D01*
X102380284Y-95657416D01*
X102350515Y-95660388D01*
X102320924Y-95664858D01*
X102291612Y-95670776D01*
X102262605Y-95678168D01*
X102234030Y-95686981D01*
X102205912Y-95697218D01*
X102178353Y-95708826D01*
X102151378Y-95721805D01*
X102125115Y-95736131D01*
X102099588Y-95751726D01*
X102074873Y-95768566D01*
X102051023Y-95786651D01*
X102028112Y-95805879D01*
X102006166Y-95826225D01*
X101985287Y-95847637D01*
X101965475Y-95870065D01*
X101946832Y-95893458D01*
X101929382Y-95917741D01*
X101913151Y-95942887D01*
X101898191Y-95968795D01*
X101884525Y-95995414D01*
X101872232Y-96022669D01*
X101861310Y-96050532D01*
X101851759Y-96078879D01*
X101843657Y-96107683D01*
X101837002Y-96136842D01*
X101831820Y-96166306D01*
X101828086Y-96195998D01*
X101825851Y-96225844D01*
X101825115Y-96255739D01*
X101825115Y-97055739D01*
X101825851Y-97085635D01*
X101828086Y-97115480D01*
X101831820Y-97145173D01*
X101837002Y-97174637D01*
X101843657Y-97203796D01*
X101851759Y-97232600D01*
X101861310Y-97260946D01*
X101872232Y-97288810D01*
X101884525Y-97316065D01*
X101898191Y-97342684D01*
X101913151Y-97368592D01*
X101929382Y-97393738D01*
X101946832Y-97418020D01*
X101965475Y-97441414D01*
X101985287Y-97463842D01*
X102006166Y-97485254D01*
X102028112Y-97505600D01*
X102051023Y-97524828D01*
X102074873Y-97542912D01*
X102099588Y-97559753D01*
X102125115Y-97575348D01*
X102151378Y-97589674D01*
X102178353Y-97602653D01*
X102205912Y-97614261D01*
X102234030Y-97624497D01*
X102262605Y-97633311D01*
X102291612Y-97640703D01*
X102320924Y-97646621D01*
X102350515Y-97651091D01*
X102380284Y-97654063D01*
G36*
X102469946Y-95657416D02*
G01*
X102499715Y-95660388D01*
X102529306Y-95664858D01*
X102558617Y-95670776D01*
X102587624Y-95678168D01*
X102616199Y-95686981D01*
X102644317Y-95697218D01*
X102671876Y-95708826D01*
X102698851Y-95721805D01*
X102725115Y-95736131D01*
X102750642Y-95751726D01*
X102775356Y-95768566D01*
X102799207Y-95786651D01*
X102822117Y-95805879D01*
X102844063Y-95826225D01*
X102864942Y-95847637D01*
X102884754Y-95870065D01*
X102903398Y-95893458D01*
X102920847Y-95917741D01*
X102937078Y-95942887D01*
X102952039Y-95968795D01*
X102965704Y-95995414D01*
X102977998Y-96022669D01*
X102988920Y-96050532D01*
X102998470Y-96078879D01*
X103006573Y-96107683D01*
X103013227Y-96136842D01*
X103018409Y-96166306D01*
X103022143Y-96195998D01*
X103024378Y-96225844D01*
X103025115Y-96255739D01*
X103025115Y-97055739D01*
X103024378Y-97085635D01*
X103022143Y-97115480D01*
X103018409Y-97145173D01*
X103013227Y-97174637D01*
X103006573Y-97203796D01*
X102998470Y-97232600D01*
X102988920Y-97260946D01*
X102977998Y-97288810D01*
X102965704Y-97316065D01*
X102952039Y-97342684D01*
X102937078Y-97368592D01*
X102920847Y-97393738D01*
X102903398Y-97418020D01*
X102884754Y-97441414D01*
X102864942Y-97463842D01*
X102844063Y-97485254D01*
X102822117Y-97505600D01*
X102799207Y-97524828D01*
X102775356Y-97542912D01*
X102750642Y-97559753D01*
X102725115Y-97575348D01*
X102698851Y-97589674D01*
X102671876Y-97602653D01*
X102644317Y-97614261D01*
X102616199Y-97624497D01*
X102587624Y-97633311D01*
X102558617Y-97640703D01*
X102529306Y-97646621D01*
X102499715Y-97651091D01*
X102469946Y-97654063D01*
X102440075Y-97655562D01*
X102410154Y-97655562D01*
X102380284Y-97654063D01*
X102350515Y-97651091D01*
X102320924Y-97646621D01*
X102291612Y-97640703D01*
X102262605Y-97633311D01*
X102234030Y-97624497D01*
X102205912Y-97614261D01*
X102178353Y-97602653D01*
X102151378Y-97589674D01*
X102125115Y-97575348D01*
X102099588Y-97559753D01*
X102074873Y-97542912D01*
X102051023Y-97524828D01*
X102028112Y-97505600D01*
X102006166Y-97485254D01*
X101985287Y-97463842D01*
X101965475Y-97441414D01*
X101946832Y-97418020D01*
X101929382Y-97393738D01*
X101913151Y-97368592D01*
X101898191Y-97342684D01*
X101884525Y-97316065D01*
X101872232Y-97288810D01*
X101861310Y-97260946D01*
X101851759Y-97232600D01*
X101843657Y-97203796D01*
X101837002Y-97174637D01*
X101831820Y-97145173D01*
X101828086Y-97115480D01*
X101825851Y-97085635D01*
X101825115Y-97055739D01*
X101825115Y-96255739D01*
X101825851Y-96225844D01*
X101828086Y-96195998D01*
X101831820Y-96166306D01*
X101837002Y-96136842D01*
X101843657Y-96107683D01*
X101851759Y-96078879D01*
X101861310Y-96050532D01*
X101872232Y-96022669D01*
X101884525Y-95995414D01*
X101898191Y-95968795D01*
X101913151Y-95942887D01*
X101929382Y-95917741D01*
X101946832Y-95893458D01*
X101965475Y-95870065D01*
X101985287Y-95847637D01*
X102006166Y-95826225D01*
X102028112Y-95805879D01*
X102051023Y-95786651D01*
X102074873Y-95768566D01*
X102099588Y-95751726D01*
X102125115Y-95736131D01*
X102151378Y-95721805D01*
X102178353Y-95708826D01*
X102205912Y-95697218D01*
X102234030Y-95686981D01*
X102262605Y-95678168D01*
X102291612Y-95670776D01*
X102320924Y-95664858D01*
X102350515Y-95660388D01*
X102380284Y-95657416D01*
X102410154Y-95655917D01*
X102440075Y-95655917D01*
X102469946Y-95657416D01*
G37*
X93730042Y-97654063D02*
X93759913Y-97655562D01*
X93789834Y-97655562D01*
X93819704Y-97654063D01*
X93849473Y-97651091D01*
X93879064Y-97646621D01*
X93908376Y-97640703D01*
X93937383Y-97633311D01*
X93965958Y-97624497D01*
X93994076Y-97614261D01*
X94021635Y-97602653D01*
X94048610Y-97589674D01*
X94074873Y-97575348D01*
X94100400Y-97559753D01*
X94125115Y-97542912D01*
X94148965Y-97524828D01*
X94171876Y-97505600D01*
X94193822Y-97485254D01*
X94214701Y-97463842D01*
X94234513Y-97441414D01*
X94253156Y-97418020D01*
X94270606Y-97393738D01*
X94286837Y-97368592D01*
X94301797Y-97342684D01*
X94315463Y-97316065D01*
X94327756Y-97288810D01*
X94338678Y-97260946D01*
X94348229Y-97232600D01*
X94356331Y-97203796D01*
X94362986Y-97174637D01*
X94368168Y-97145173D01*
X94371902Y-97115480D01*
X94374137Y-97085635D01*
X94374873Y-97055739D01*
X94374873Y-96255739D01*
X94374137Y-96225844D01*
X94371902Y-96195998D01*
X94368168Y-96166306D01*
X94362986Y-96136842D01*
X94356331Y-96107683D01*
X94348229Y-96078879D01*
X94338678Y-96050532D01*
X94327756Y-96022669D01*
X94315463Y-95995414D01*
X94301797Y-95968795D01*
X94286837Y-95942887D01*
X94270606Y-95917741D01*
X94253156Y-95893458D01*
X94234513Y-95870065D01*
X94214701Y-95847637D01*
X94193822Y-95826225D01*
X94171876Y-95805879D01*
X94148965Y-95786651D01*
X94125115Y-95768566D01*
X94100400Y-95751726D01*
X94074873Y-95736131D01*
X94048610Y-95721805D01*
X94021635Y-95708826D01*
X93994076Y-95697218D01*
X93965958Y-95686981D01*
X93937383Y-95678168D01*
X93908376Y-95670776D01*
X93879064Y-95664858D01*
X93849473Y-95660388D01*
X93819704Y-95657416D01*
X93789834Y-95655917D01*
X93759913Y-95655917D01*
X93730042Y-95657416D01*
X93700273Y-95660388D01*
X93670682Y-95664858D01*
X93641371Y-95670776D01*
X93612364Y-95678168D01*
X93583789Y-95686981D01*
X93555671Y-95697218D01*
X93528112Y-95708826D01*
X93501137Y-95721805D01*
X93474873Y-95736131D01*
X93449346Y-95751726D01*
X93424632Y-95768566D01*
X93400781Y-95786651D01*
X93377871Y-95805879D01*
X93355925Y-95826225D01*
X93335046Y-95847637D01*
X93315234Y-95870065D01*
X93296590Y-95893458D01*
X93279141Y-95917741D01*
X93262910Y-95942887D01*
X93247949Y-95968795D01*
X93234284Y-95995414D01*
X93221990Y-96022669D01*
X93211068Y-96050532D01*
X93201518Y-96078879D01*
X93193415Y-96107683D01*
X93186761Y-96136842D01*
X93181579Y-96166306D01*
X93177845Y-96195998D01*
X93175610Y-96225844D01*
X93174873Y-96255739D01*
X93174873Y-97055739D01*
X93175610Y-97085635D01*
X93177845Y-97115480D01*
X93181579Y-97145173D01*
X93186761Y-97174637D01*
X93193415Y-97203796D01*
X93201518Y-97232600D01*
X93211068Y-97260946D01*
X93221990Y-97288810D01*
X93234284Y-97316065D01*
X93247949Y-97342684D01*
X93262910Y-97368592D01*
X93279141Y-97393738D01*
X93296590Y-97418020D01*
X93315234Y-97441414D01*
X93335046Y-97463842D01*
X93355925Y-97485254D01*
X93377871Y-97505600D01*
X93400781Y-97524828D01*
X93424632Y-97542912D01*
X93449346Y-97559753D01*
X93474873Y-97575348D01*
X93501137Y-97589674D01*
X93528112Y-97602653D01*
X93555671Y-97614261D01*
X93583789Y-97624497D01*
X93612364Y-97633311D01*
X93641371Y-97640703D01*
X93670682Y-97646621D01*
X93700273Y-97651091D01*
X93730042Y-97654063D01*
G36*
X93819704Y-95657416D02*
G01*
X93849473Y-95660388D01*
X93879064Y-95664858D01*
X93908376Y-95670776D01*
X93937383Y-95678168D01*
X93965958Y-95686981D01*
X93994076Y-95697218D01*
X94021635Y-95708826D01*
X94048610Y-95721805D01*
X94074873Y-95736131D01*
X94100400Y-95751726D01*
X94125115Y-95768566D01*
X94148965Y-95786651D01*
X94171876Y-95805879D01*
X94193822Y-95826225D01*
X94214701Y-95847637D01*
X94234513Y-95870065D01*
X94253156Y-95893458D01*
X94270606Y-95917741D01*
X94286837Y-95942887D01*
X94301797Y-95968795D01*
X94315463Y-95995414D01*
X94327756Y-96022669D01*
X94338678Y-96050532D01*
X94348229Y-96078879D01*
X94356331Y-96107683D01*
X94362986Y-96136842D01*
X94368168Y-96166306D01*
X94371902Y-96195998D01*
X94374137Y-96225844D01*
X94374873Y-96255739D01*
X94374873Y-97055739D01*
X94374137Y-97085635D01*
X94371902Y-97115480D01*
X94368168Y-97145173D01*
X94362986Y-97174637D01*
X94356331Y-97203796D01*
X94348229Y-97232600D01*
X94338678Y-97260946D01*
X94327756Y-97288810D01*
X94315463Y-97316065D01*
X94301797Y-97342684D01*
X94286837Y-97368592D01*
X94270606Y-97393738D01*
X94253156Y-97418020D01*
X94234513Y-97441414D01*
X94214701Y-97463842D01*
X94193822Y-97485254D01*
X94171876Y-97505600D01*
X94148965Y-97524828D01*
X94125115Y-97542912D01*
X94100400Y-97559753D01*
X94074873Y-97575348D01*
X94048610Y-97589674D01*
X94021635Y-97602653D01*
X93994076Y-97614261D01*
X93965958Y-97624497D01*
X93937383Y-97633311D01*
X93908376Y-97640703D01*
X93879064Y-97646621D01*
X93849473Y-97651091D01*
X93819704Y-97654063D01*
X93789834Y-97655562D01*
X93759913Y-97655562D01*
X93730042Y-97654063D01*
X93700273Y-97651091D01*
X93670682Y-97646621D01*
X93641371Y-97640703D01*
X93612364Y-97633311D01*
X93583789Y-97624497D01*
X93555671Y-97614261D01*
X93528112Y-97602653D01*
X93501137Y-97589674D01*
X93474873Y-97575348D01*
X93449346Y-97559753D01*
X93424632Y-97542912D01*
X93400781Y-97524828D01*
X93377871Y-97505600D01*
X93355925Y-97485254D01*
X93335046Y-97463842D01*
X93315234Y-97441414D01*
X93296590Y-97418020D01*
X93279141Y-97393738D01*
X93262910Y-97368592D01*
X93247949Y-97342684D01*
X93234284Y-97316065D01*
X93221990Y-97288810D01*
X93211068Y-97260946D01*
X93201518Y-97232600D01*
X93193415Y-97203796D01*
X93186761Y-97174637D01*
X93181579Y-97145173D01*
X93177845Y-97115480D01*
X93175610Y-97085635D01*
X93174873Y-97055739D01*
X93174873Y-96255739D01*
X93175610Y-96225844D01*
X93177845Y-96195998D01*
X93181579Y-96166306D01*
X93186761Y-96136842D01*
X93193415Y-96107683D01*
X93201518Y-96078879D01*
X93211068Y-96050532D01*
X93221990Y-96022669D01*
X93234284Y-95995414D01*
X93247949Y-95968795D01*
X93262910Y-95942887D01*
X93279141Y-95917741D01*
X93296590Y-95893458D01*
X93315234Y-95870065D01*
X93335046Y-95847637D01*
X93355925Y-95826225D01*
X93377871Y-95805879D01*
X93400781Y-95786651D01*
X93424632Y-95768566D01*
X93449346Y-95751726D01*
X93474873Y-95736131D01*
X93501137Y-95721805D01*
X93528112Y-95708826D01*
X93555671Y-95697218D01*
X93583789Y-95686981D01*
X93612364Y-95678168D01*
X93641371Y-95670776D01*
X93670682Y-95664858D01*
X93700273Y-95660388D01*
X93730042Y-95657416D01*
X93759913Y-95655917D01*
X93789834Y-95655917D01*
X93819704Y-95657416D01*
G37*
X93730042Y-93374154D02*
X93759913Y-93375653D01*
X93789834Y-93375653D01*
X93819704Y-93374154D01*
X93849473Y-93371183D01*
X93879064Y-93366712D01*
X93908376Y-93360794D01*
X93937383Y-93353403D01*
X93965958Y-93344589D01*
X93994076Y-93334353D01*
X94021635Y-93322745D01*
X94048610Y-93309765D01*
X94074873Y-93295440D01*
X94100400Y-93279844D01*
X94125115Y-93263004D01*
X94148965Y-93244919D01*
X94171876Y-93225691D01*
X94193822Y-93205346D01*
X94214701Y-93183933D01*
X94234513Y-93161505D01*
X94253156Y-93138112D01*
X94270606Y-93113829D01*
X94286837Y-93088683D01*
X94301797Y-93062775D01*
X94315463Y-93036156D01*
X94327756Y-93008902D01*
X94338678Y-92981038D01*
X94348229Y-92952691D01*
X94356331Y-92923888D01*
X94362986Y-92894728D01*
X94368168Y-92865264D01*
X94371902Y-92835572D01*
X94374137Y-92805727D01*
X94374873Y-92775831D01*
X94374873Y-92175831D01*
X94374137Y-92145935D01*
X94371902Y-92116090D01*
X94368168Y-92086397D01*
X94362986Y-92056933D01*
X94356331Y-92027774D01*
X94348229Y-91998970D01*
X94338678Y-91970624D01*
X94327756Y-91942760D01*
X94315463Y-91915506D01*
X94301797Y-91888886D01*
X94286837Y-91862978D01*
X94270606Y-91837832D01*
X94253156Y-91813550D01*
X94234513Y-91790156D01*
X94214701Y-91767728D01*
X94193822Y-91746316D01*
X94171876Y-91725971D01*
X94148965Y-91706743D01*
X94125115Y-91688658D01*
X94100400Y-91671818D01*
X94074873Y-91656222D01*
X94048610Y-91641896D01*
X94021635Y-91628917D01*
X93994076Y-91617309D01*
X93965958Y-91607073D01*
X93937383Y-91598259D01*
X93908376Y-91590868D01*
X93879064Y-91584949D01*
X93849473Y-91580479D01*
X93819704Y-91577507D01*
X93789834Y-91576009D01*
X93759913Y-91576009D01*
X93730042Y-91577507D01*
X93700273Y-91580479D01*
X93670682Y-91584949D01*
X93641371Y-91590868D01*
X93612364Y-91598259D01*
X93583789Y-91607073D01*
X93555671Y-91617309D01*
X93528112Y-91628917D01*
X93501137Y-91641896D01*
X93474873Y-91656222D01*
X93449346Y-91671818D01*
X93424632Y-91688658D01*
X93400781Y-91706743D01*
X93377871Y-91725971D01*
X93355925Y-91746316D01*
X93335046Y-91767728D01*
X93315234Y-91790156D01*
X93296590Y-91813550D01*
X93279141Y-91837832D01*
X93262910Y-91862978D01*
X93247949Y-91888886D01*
X93234284Y-91915506D01*
X93221990Y-91942760D01*
X93211068Y-91970624D01*
X93201518Y-91998970D01*
X93193415Y-92027774D01*
X93186761Y-92056933D01*
X93181579Y-92086397D01*
X93177845Y-92116090D01*
X93175610Y-92145935D01*
X93174873Y-92175831D01*
X93174873Y-92775831D01*
X93175610Y-92805727D01*
X93177845Y-92835572D01*
X93181579Y-92865264D01*
X93186761Y-92894728D01*
X93193415Y-92923888D01*
X93201518Y-92952691D01*
X93211068Y-92981038D01*
X93221990Y-93008902D01*
X93234284Y-93036156D01*
X93247949Y-93062775D01*
X93262910Y-93088683D01*
X93279141Y-93113829D01*
X93296590Y-93138112D01*
X93315234Y-93161505D01*
X93335046Y-93183933D01*
X93355925Y-93205346D01*
X93377871Y-93225691D01*
X93400781Y-93244919D01*
X93424632Y-93263004D01*
X93449346Y-93279844D01*
X93474873Y-93295440D01*
X93501137Y-93309765D01*
X93528112Y-93322745D01*
X93555671Y-93334353D01*
X93583789Y-93344589D01*
X93612364Y-93353403D01*
X93641371Y-93360794D01*
X93670682Y-93366712D01*
X93700273Y-93371183D01*
X93730042Y-93374154D01*
G36*
X93819704Y-91577507D02*
G01*
X93849473Y-91580479D01*
X93879064Y-91584949D01*
X93908376Y-91590868D01*
X93937383Y-91598259D01*
X93965958Y-91607073D01*
X93994076Y-91617309D01*
X94021635Y-91628917D01*
X94048610Y-91641896D01*
X94074873Y-91656222D01*
X94100400Y-91671818D01*
X94125115Y-91688658D01*
X94148965Y-91706743D01*
X94171876Y-91725971D01*
X94193822Y-91746316D01*
X94214701Y-91767728D01*
X94234513Y-91790156D01*
X94253156Y-91813550D01*
X94270606Y-91837832D01*
X94286837Y-91862978D01*
X94301797Y-91888886D01*
X94315463Y-91915506D01*
X94327756Y-91942760D01*
X94338678Y-91970624D01*
X94348229Y-91998970D01*
X94356331Y-92027774D01*
X94362986Y-92056933D01*
X94368168Y-92086397D01*
X94371902Y-92116090D01*
X94374137Y-92145935D01*
X94374873Y-92175831D01*
X94374873Y-92775831D01*
X94374137Y-92805727D01*
X94371902Y-92835572D01*
X94368168Y-92865264D01*
X94362986Y-92894728D01*
X94356331Y-92923888D01*
X94348229Y-92952691D01*
X94338678Y-92981038D01*
X94327756Y-93008902D01*
X94315463Y-93036156D01*
X94301797Y-93062775D01*
X94286837Y-93088683D01*
X94270606Y-93113829D01*
X94253156Y-93138112D01*
X94234513Y-93161505D01*
X94214701Y-93183933D01*
X94193822Y-93205346D01*
X94171876Y-93225691D01*
X94148965Y-93244919D01*
X94125115Y-93263004D01*
X94100400Y-93279844D01*
X94074873Y-93295440D01*
X94048610Y-93309765D01*
X94021635Y-93322745D01*
X93994076Y-93334353D01*
X93965958Y-93344589D01*
X93937383Y-93353403D01*
X93908376Y-93360794D01*
X93879064Y-93366712D01*
X93849473Y-93371183D01*
X93819704Y-93374154D01*
X93789834Y-93375653D01*
X93759913Y-93375653D01*
X93730042Y-93374154D01*
X93700273Y-93371183D01*
X93670682Y-93366712D01*
X93641371Y-93360794D01*
X93612364Y-93353403D01*
X93583789Y-93344589D01*
X93555671Y-93334353D01*
X93528112Y-93322745D01*
X93501137Y-93309765D01*
X93474873Y-93295440D01*
X93449346Y-93279844D01*
X93424632Y-93263004D01*
X93400781Y-93244919D01*
X93377871Y-93225691D01*
X93355925Y-93205346D01*
X93335046Y-93183933D01*
X93315234Y-93161505D01*
X93296590Y-93138112D01*
X93279141Y-93113829D01*
X93262910Y-93088683D01*
X93247949Y-93062775D01*
X93234284Y-93036156D01*
X93221990Y-93008902D01*
X93211068Y-92981038D01*
X93201518Y-92952691D01*
X93193415Y-92923888D01*
X93186761Y-92894728D01*
X93181579Y-92865264D01*
X93177845Y-92835572D01*
X93175610Y-92805727D01*
X93174873Y-92775831D01*
X93174873Y-92175831D01*
X93175610Y-92145935D01*
X93177845Y-92116090D01*
X93181579Y-92086397D01*
X93186761Y-92056933D01*
X93193415Y-92027774D01*
X93201518Y-91998970D01*
X93211068Y-91970624D01*
X93221990Y-91942760D01*
X93234284Y-91915506D01*
X93247949Y-91888886D01*
X93262910Y-91862978D01*
X93279141Y-91837832D01*
X93296590Y-91813550D01*
X93315234Y-91790156D01*
X93335046Y-91767728D01*
X93355925Y-91746316D01*
X93377871Y-91725971D01*
X93400781Y-91706743D01*
X93424632Y-91688658D01*
X93449346Y-91671818D01*
X93474873Y-91656222D01*
X93501137Y-91641896D01*
X93528112Y-91628917D01*
X93555671Y-91617309D01*
X93583789Y-91607073D01*
X93612364Y-91598259D01*
X93641371Y-91590868D01*
X93670682Y-91584949D01*
X93700273Y-91580479D01*
X93730042Y-91577507D01*
X93759913Y-91576009D01*
X93789834Y-91576009D01*
X93819704Y-91577507D01*
G37*
%TO.C,U4*%
X134939962Y-110367641D02*
X134939962Y-107847626D01*
X137459977Y-107847626D01*
X137459977Y-110367641D01*
X134939962Y-110367641D01*
G36*
X137459977Y-110367641D02*
G01*
X134939962Y-110367641D01*
X134939962Y-107847626D01*
X137459977Y-107847626D01*
X137459977Y-110367641D01*
G37*
X135082024Y-111937491D02*
X135078047Y-111975335D01*
X135066288Y-112011524D01*
X135047262Y-112044478D01*
X135021800Y-112072756D01*
X134991016Y-112095123D01*
X134956254Y-112110600D01*
X134919033Y-112118511D01*
X134880981Y-112118511D01*
X134843761Y-112110600D01*
X134808999Y-112095123D01*
X134778214Y-112072756D01*
X134752753Y-112044478D01*
X134733727Y-112011524D01*
X134721968Y-111975335D01*
X134717991Y-111937491D01*
X134717991Y-111214504D01*
X134721968Y-111176661D01*
X134733727Y-111140472D01*
X134752753Y-111107518D01*
X134778214Y-111079240D01*
X134808999Y-111056873D01*
X134843761Y-111041396D01*
X134880981Y-111033485D01*
X134919033Y-111033485D01*
X134956254Y-111041396D01*
X134991016Y-111056873D01*
X135021800Y-111079240D01*
X135047262Y-111107518D01*
X135066288Y-111140472D01*
X135078047Y-111176661D01*
X135082024Y-111214504D01*
X135082024Y-111937491D01*
G36*
X134956254Y-111041396D02*
G01*
X134991016Y-111056873D01*
X135021800Y-111079240D01*
X135047262Y-111107518D01*
X135066288Y-111140472D01*
X135078047Y-111176661D01*
X135082024Y-111214504D01*
X135082024Y-111937491D01*
X135078047Y-111975335D01*
X135066288Y-112011524D01*
X135047262Y-112044478D01*
X135021800Y-112072756D01*
X134991016Y-112095123D01*
X134956254Y-112110600D01*
X134919033Y-112118511D01*
X134880981Y-112118511D01*
X134843761Y-112110600D01*
X134808999Y-112095123D01*
X134778214Y-112072756D01*
X134752753Y-112044478D01*
X134733727Y-112011524D01*
X134721968Y-111975335D01*
X134717991Y-111937491D01*
X134717991Y-111214504D01*
X134721968Y-111176661D01*
X134733727Y-111140472D01*
X134752753Y-111107518D01*
X134778214Y-111079240D01*
X134808999Y-111056873D01*
X134843761Y-111041396D01*
X134880981Y-111033485D01*
X134919033Y-111033485D01*
X134956254Y-111041396D01*
G37*
X135732011Y-111937491D02*
X135728034Y-111975335D01*
X135716275Y-112011524D01*
X135697249Y-112044478D01*
X135671788Y-112072756D01*
X135641003Y-112095123D01*
X135606241Y-112110600D01*
X135569021Y-112118511D01*
X135530969Y-112118511D01*
X135493748Y-112110600D01*
X135458986Y-112095123D01*
X135428202Y-112072756D01*
X135402740Y-112044478D01*
X135383714Y-112011524D01*
X135371955Y-111975335D01*
X135367978Y-111937491D01*
X135367978Y-111214504D01*
X135371955Y-111176661D01*
X135383714Y-111140472D01*
X135402740Y-111107518D01*
X135428202Y-111079240D01*
X135458986Y-111056873D01*
X135493748Y-111041396D01*
X135530969Y-111033485D01*
X135569021Y-111033485D01*
X135606241Y-111041396D01*
X135641003Y-111056873D01*
X135671788Y-111079240D01*
X135697249Y-111107518D01*
X135716275Y-111140472D01*
X135728034Y-111176661D01*
X135732011Y-111214504D01*
X135732011Y-111937491D01*
G36*
X135606241Y-111041396D02*
G01*
X135641003Y-111056873D01*
X135671788Y-111079240D01*
X135697249Y-111107518D01*
X135716275Y-111140472D01*
X135728034Y-111176661D01*
X135732011Y-111214504D01*
X135732011Y-111937491D01*
X135728034Y-111975335D01*
X135716275Y-112011524D01*
X135697249Y-112044478D01*
X135671788Y-112072756D01*
X135641003Y-112095123D01*
X135606241Y-112110600D01*
X135569021Y-112118511D01*
X135530969Y-112118511D01*
X135493748Y-112110600D01*
X135458986Y-112095123D01*
X135428202Y-112072756D01*
X135402740Y-112044478D01*
X135383714Y-112011524D01*
X135371955Y-111975335D01*
X135367978Y-111937491D01*
X135367978Y-111214504D01*
X135371955Y-111176661D01*
X135383714Y-111140472D01*
X135402740Y-111107518D01*
X135428202Y-111079240D01*
X135458986Y-111056873D01*
X135493748Y-111041396D01*
X135530969Y-111033485D01*
X135569021Y-111033485D01*
X135606241Y-111041396D01*
G37*
X137031986Y-111937491D02*
X137028009Y-111975335D01*
X137016250Y-112011524D01*
X136997224Y-112044478D01*
X136971762Y-112072756D01*
X136940978Y-112095123D01*
X136906216Y-112110600D01*
X136868995Y-112118511D01*
X136830943Y-112118511D01*
X136793723Y-112110600D01*
X136758961Y-112095123D01*
X136728176Y-112072756D01*
X136702715Y-112044478D01*
X136683689Y-112011524D01*
X136671930Y-111975335D01*
X136667953Y-111937491D01*
X136667953Y-111214504D01*
X136671930Y-111176661D01*
X136683689Y-111140472D01*
X136702715Y-111107518D01*
X136728176Y-111079240D01*
X136758961Y-111056873D01*
X136793723Y-111041396D01*
X136830943Y-111033485D01*
X136868995Y-111033485D01*
X136906216Y-111041396D01*
X136940978Y-111056873D01*
X136971762Y-111079240D01*
X136997224Y-111107518D01*
X137016250Y-111140472D01*
X137028009Y-111176661D01*
X137031986Y-111214504D01*
X137031986Y-111937491D01*
G36*
X136906216Y-111041396D02*
G01*
X136940978Y-111056873D01*
X136971762Y-111079240D01*
X136997224Y-111107518D01*
X137016250Y-111140472D01*
X137028009Y-111176661D01*
X137031986Y-111214504D01*
X137031986Y-111937491D01*
X137028009Y-111975335D01*
X137016250Y-112011524D01*
X136997224Y-112044478D01*
X136971762Y-112072756D01*
X136940978Y-112095123D01*
X136906216Y-112110600D01*
X136868995Y-112118511D01*
X136830943Y-112118511D01*
X136793723Y-112110600D01*
X136758961Y-112095123D01*
X136728176Y-112072756D01*
X136702715Y-112044478D01*
X136683689Y-112011524D01*
X136671930Y-111975335D01*
X136667953Y-111937491D01*
X136667953Y-111214504D01*
X136671930Y-111176661D01*
X136683689Y-111140472D01*
X136702715Y-111107518D01*
X136728176Y-111079240D01*
X136758961Y-111056873D01*
X136793723Y-111041396D01*
X136830943Y-111033485D01*
X136868995Y-111033485D01*
X136906216Y-111041396D01*
G37*
X137681973Y-111937491D02*
X137677996Y-111975335D01*
X137666237Y-112011524D01*
X137647211Y-112044478D01*
X137621750Y-112072756D01*
X137590965Y-112095123D01*
X137556203Y-112110600D01*
X137518983Y-112118511D01*
X137480931Y-112118511D01*
X137443710Y-112110600D01*
X137408948Y-112095123D01*
X137378164Y-112072756D01*
X137352702Y-112044478D01*
X137333676Y-112011524D01*
X137321917Y-111975335D01*
X137317940Y-111937491D01*
X137317940Y-111214504D01*
X137321917Y-111176661D01*
X137333676Y-111140472D01*
X137352702Y-111107518D01*
X137378164Y-111079240D01*
X137408948Y-111056873D01*
X137443710Y-111041396D01*
X137480931Y-111033485D01*
X137518983Y-111033485D01*
X137556203Y-111041396D01*
X137590965Y-111056873D01*
X137621750Y-111079240D01*
X137647211Y-111107518D01*
X137666237Y-111140472D01*
X137677996Y-111176661D01*
X137681973Y-111214504D01*
X137681973Y-111937491D01*
G36*
X137556203Y-111041396D02*
G01*
X137590965Y-111056873D01*
X137621750Y-111079240D01*
X137647211Y-111107518D01*
X137666237Y-111140472D01*
X137677996Y-111176661D01*
X137681973Y-111214504D01*
X137681973Y-111937491D01*
X137677996Y-111975335D01*
X137666237Y-112011524D01*
X137647211Y-112044478D01*
X137621750Y-112072756D01*
X137590965Y-112095123D01*
X137556203Y-112110600D01*
X137518983Y-112118511D01*
X137480931Y-112118511D01*
X137443710Y-112110600D01*
X137408948Y-112095123D01*
X137378164Y-112072756D01*
X137352702Y-112044478D01*
X137333676Y-112011524D01*
X137321917Y-111975335D01*
X137317940Y-111937491D01*
X137317940Y-111214504D01*
X137321917Y-111176661D01*
X137333676Y-111140472D01*
X137352702Y-111107518D01*
X137378164Y-111079240D01*
X137408948Y-111056873D01*
X137443710Y-111041396D01*
X137480931Y-111033485D01*
X137518983Y-111033485D01*
X137556203Y-111041396D01*
G37*
X133370112Y-110589612D02*
X133332268Y-110585635D01*
X133296079Y-110573876D01*
X133263125Y-110554850D01*
X133234847Y-110529389D01*
X133212480Y-110498604D01*
X133197003Y-110463842D01*
X133189092Y-110426622D01*
X133189092Y-110388570D01*
X133197003Y-110351349D01*
X133212480Y-110316587D01*
X133234847Y-110285803D01*
X133263125Y-110260341D01*
X133296079Y-110241315D01*
X133332268Y-110229556D01*
X133370112Y-110225579D01*
X134093099Y-110225579D01*
X134130942Y-110229556D01*
X134167131Y-110241315D01*
X134200085Y-110260341D01*
X134228363Y-110285803D01*
X134250730Y-110316587D01*
X134266207Y-110351349D01*
X134274118Y-110388570D01*
X134274118Y-110426622D01*
X134266207Y-110463842D01*
X134250730Y-110498604D01*
X134228363Y-110529389D01*
X134200085Y-110554850D01*
X134167131Y-110573876D01*
X134130942Y-110585635D01*
X134093099Y-110589612D01*
X133370112Y-110589612D01*
G36*
X134130942Y-110229556D02*
G01*
X134167131Y-110241315D01*
X134200085Y-110260341D01*
X134228363Y-110285803D01*
X134250730Y-110316587D01*
X134266207Y-110351349D01*
X134274118Y-110388570D01*
X134274118Y-110426622D01*
X134266207Y-110463842D01*
X134250730Y-110498604D01*
X134228363Y-110529389D01*
X134200085Y-110554850D01*
X134167131Y-110573876D01*
X134130942Y-110585635D01*
X134093099Y-110589612D01*
X133370112Y-110589612D01*
X133332268Y-110585635D01*
X133296079Y-110573876D01*
X133263125Y-110554850D01*
X133234847Y-110529389D01*
X133212480Y-110498604D01*
X133197003Y-110463842D01*
X133189092Y-110426622D01*
X133189092Y-110388570D01*
X133197003Y-110351349D01*
X133212480Y-110316587D01*
X133234847Y-110285803D01*
X133263125Y-110260341D01*
X133296079Y-110241315D01*
X133332268Y-110229556D01*
X133370112Y-110225579D01*
X134093099Y-110225579D01*
X134130942Y-110229556D01*
G37*
X138307119Y-110589612D02*
X138269276Y-110585635D01*
X138233087Y-110573876D01*
X138200133Y-110554850D01*
X138171855Y-110529389D01*
X138149488Y-110498604D01*
X138134011Y-110463842D01*
X138126100Y-110426622D01*
X138126100Y-110388570D01*
X138134011Y-110351349D01*
X138149488Y-110316587D01*
X138171855Y-110285803D01*
X138200133Y-110260341D01*
X138233087Y-110241315D01*
X138269276Y-110229556D01*
X138307119Y-110225579D01*
X139030106Y-110225579D01*
X139067950Y-110229556D01*
X139104139Y-110241315D01*
X139137093Y-110260341D01*
X139165371Y-110285803D01*
X139187738Y-110316587D01*
X139203215Y-110351349D01*
X139211126Y-110388570D01*
X139211126Y-110426622D01*
X139203215Y-110463842D01*
X139187738Y-110498604D01*
X139165371Y-110529389D01*
X139137093Y-110554850D01*
X139104139Y-110573876D01*
X139067950Y-110585635D01*
X139030106Y-110589612D01*
X138307119Y-110589612D01*
G36*
X139067950Y-110229556D02*
G01*
X139104139Y-110241315D01*
X139137093Y-110260341D01*
X139165371Y-110285803D01*
X139187738Y-110316587D01*
X139203215Y-110351349D01*
X139211126Y-110388570D01*
X139211126Y-110426622D01*
X139203215Y-110463842D01*
X139187738Y-110498604D01*
X139165371Y-110529389D01*
X139137093Y-110554850D01*
X139104139Y-110573876D01*
X139067950Y-110585635D01*
X139030106Y-110589612D01*
X138307119Y-110589612D01*
X138269276Y-110585635D01*
X138233087Y-110573876D01*
X138200133Y-110554850D01*
X138171855Y-110529389D01*
X138149488Y-110498604D01*
X138134011Y-110463842D01*
X138126100Y-110426622D01*
X138126100Y-110388570D01*
X138134011Y-110351349D01*
X138149488Y-110316587D01*
X138171855Y-110285803D01*
X138200133Y-110260341D01*
X138233087Y-110241315D01*
X138269276Y-110229556D01*
X138307119Y-110225579D01*
X139030106Y-110225579D01*
X139067950Y-110229556D01*
G37*
X133370112Y-109939625D02*
X133332268Y-109935648D01*
X133296079Y-109923889D01*
X133263125Y-109904863D01*
X133234847Y-109879401D01*
X133212480Y-109848617D01*
X133197003Y-109813855D01*
X133189092Y-109776634D01*
X133189092Y-109738582D01*
X133197003Y-109701362D01*
X133212480Y-109666600D01*
X133234847Y-109635815D01*
X133263125Y-109610354D01*
X133296079Y-109591328D01*
X133332268Y-109579569D01*
X133370112Y-109575592D01*
X134093099Y-109575592D01*
X134130942Y-109579569D01*
X134167131Y-109591328D01*
X134200085Y-109610354D01*
X134228363Y-109635815D01*
X134250730Y-109666600D01*
X134266207Y-109701362D01*
X134274118Y-109738582D01*
X134274118Y-109776634D01*
X134266207Y-109813855D01*
X134250730Y-109848617D01*
X134228363Y-109879401D01*
X134200085Y-109904863D01*
X134167131Y-109923889D01*
X134130942Y-109935648D01*
X134093099Y-109939625D01*
X133370112Y-109939625D01*
G36*
X134130942Y-109579569D02*
G01*
X134167131Y-109591328D01*
X134200085Y-109610354D01*
X134228363Y-109635815D01*
X134250730Y-109666600D01*
X134266207Y-109701362D01*
X134274118Y-109738582D01*
X134274118Y-109776634D01*
X134266207Y-109813855D01*
X134250730Y-109848617D01*
X134228363Y-109879401D01*
X134200085Y-109904863D01*
X134167131Y-109923889D01*
X134130942Y-109935648D01*
X134093099Y-109939625D01*
X133370112Y-109939625D01*
X133332268Y-109935648D01*
X133296079Y-109923889D01*
X133263125Y-109904863D01*
X133234847Y-109879401D01*
X133212480Y-109848617D01*
X133197003Y-109813855D01*
X133189092Y-109776634D01*
X133189092Y-109738582D01*
X133197003Y-109701362D01*
X133212480Y-109666600D01*
X133234847Y-109635815D01*
X133263125Y-109610354D01*
X133296079Y-109591328D01*
X133332268Y-109579569D01*
X133370112Y-109575592D01*
X134093099Y-109575592D01*
X134130942Y-109579569D01*
G37*
X138307119Y-109939625D02*
X138269276Y-109935648D01*
X138233087Y-109923889D01*
X138200133Y-109904863D01*
X138171855Y-109879401D01*
X138149488Y-109848617D01*
X138134011Y-109813855D01*
X138126100Y-109776634D01*
X138126100Y-109738582D01*
X138134011Y-109701362D01*
X138149488Y-109666600D01*
X138171855Y-109635815D01*
X138200133Y-109610354D01*
X138233087Y-109591328D01*
X138269276Y-109579569D01*
X138307119Y-109575592D01*
X139030106Y-109575592D01*
X139067950Y-109579569D01*
X139104139Y-109591328D01*
X139137093Y-109610354D01*
X139165371Y-109635815D01*
X139187738Y-109666600D01*
X139203215Y-109701362D01*
X139211126Y-109738582D01*
X139211126Y-109776634D01*
X139203215Y-109813855D01*
X139187738Y-109848617D01*
X139165371Y-109879401D01*
X139137093Y-109904863D01*
X139104139Y-109923889D01*
X139067950Y-109935648D01*
X139030106Y-109939625D01*
X138307119Y-109939625D01*
G36*
X139067950Y-109579569D02*
G01*
X139104139Y-109591328D01*
X139137093Y-109610354D01*
X139165371Y-109635815D01*
X139187738Y-109666600D01*
X139203215Y-109701362D01*
X139211126Y-109738582D01*
X139211126Y-109776634D01*
X139203215Y-109813855D01*
X139187738Y-109848617D01*
X139165371Y-109879401D01*
X139137093Y-109904863D01*
X139104139Y-109923889D01*
X139067950Y-109935648D01*
X139030106Y-109939625D01*
X138307119Y-109939625D01*
X138269276Y-109935648D01*
X138233087Y-109923889D01*
X138200133Y-109904863D01*
X138171855Y-109879401D01*
X138149488Y-109848617D01*
X138134011Y-109813855D01*
X138126100Y-109776634D01*
X138126100Y-109738582D01*
X138134011Y-109701362D01*
X138149488Y-109666600D01*
X138171855Y-109635815D01*
X138200133Y-109610354D01*
X138233087Y-109591328D01*
X138269276Y-109579569D01*
X138307119Y-109575592D01*
X139030106Y-109575592D01*
X139067950Y-109579569D01*
G37*
X133370112Y-108639650D02*
X133332268Y-108635673D01*
X133296079Y-108623914D01*
X133263125Y-108604888D01*
X133234847Y-108579427D01*
X133212480Y-108548642D01*
X133197003Y-108513880D01*
X133189092Y-108476660D01*
X133189092Y-108438608D01*
X133197003Y-108401387D01*
X133212480Y-108366625D01*
X133234847Y-108335841D01*
X133263125Y-108310379D01*
X133296079Y-108291353D01*
X133332268Y-108279594D01*
X133370112Y-108275617D01*
X134093099Y-108275617D01*
X134130942Y-108279594D01*
X134167131Y-108291353D01*
X134200085Y-108310379D01*
X134228363Y-108335841D01*
X134250730Y-108366625D01*
X134266207Y-108401387D01*
X134274118Y-108438608D01*
X134274118Y-108476660D01*
X134266207Y-108513880D01*
X134250730Y-108548642D01*
X134228363Y-108579427D01*
X134200085Y-108604888D01*
X134167131Y-108623914D01*
X134130942Y-108635673D01*
X134093099Y-108639650D01*
X133370112Y-108639650D01*
G36*
X134130942Y-108279594D02*
G01*
X134167131Y-108291353D01*
X134200085Y-108310379D01*
X134228363Y-108335841D01*
X134250730Y-108366625D01*
X134266207Y-108401387D01*
X134274118Y-108438608D01*
X134274118Y-108476660D01*
X134266207Y-108513880D01*
X134250730Y-108548642D01*
X134228363Y-108579427D01*
X134200085Y-108604888D01*
X134167131Y-108623914D01*
X134130942Y-108635673D01*
X134093099Y-108639650D01*
X133370112Y-108639650D01*
X133332268Y-108635673D01*
X133296079Y-108623914D01*
X133263125Y-108604888D01*
X133234847Y-108579427D01*
X133212480Y-108548642D01*
X133197003Y-108513880D01*
X133189092Y-108476660D01*
X133189092Y-108438608D01*
X133197003Y-108401387D01*
X133212480Y-108366625D01*
X133234847Y-108335841D01*
X133263125Y-108310379D01*
X133296079Y-108291353D01*
X133332268Y-108279594D01*
X133370112Y-108275617D01*
X134093099Y-108275617D01*
X134130942Y-108279594D01*
G37*
X138307119Y-108639650D02*
X138269276Y-108635673D01*
X138233087Y-108623914D01*
X138200133Y-108604888D01*
X138171855Y-108579427D01*
X138149488Y-108548642D01*
X138134011Y-108513880D01*
X138126100Y-108476660D01*
X138126100Y-108438608D01*
X138134011Y-108401387D01*
X138149488Y-108366625D01*
X138171855Y-108335841D01*
X138200133Y-108310379D01*
X138233087Y-108291353D01*
X138269276Y-108279594D01*
X138307119Y-108275617D01*
X139030106Y-108275617D01*
X139067950Y-108279594D01*
X139104139Y-108291353D01*
X139137093Y-108310379D01*
X139165371Y-108335841D01*
X139187738Y-108366625D01*
X139203215Y-108401387D01*
X139211126Y-108438608D01*
X139211126Y-108476660D01*
X139203215Y-108513880D01*
X139187738Y-108548642D01*
X139165371Y-108579427D01*
X139137093Y-108604888D01*
X139104139Y-108623914D01*
X139067950Y-108635673D01*
X139030106Y-108639650D01*
X138307119Y-108639650D01*
G36*
X139067950Y-108279594D02*
G01*
X139104139Y-108291353D01*
X139137093Y-108310379D01*
X139165371Y-108335841D01*
X139187738Y-108366625D01*
X139203215Y-108401387D01*
X139211126Y-108438608D01*
X139211126Y-108476660D01*
X139203215Y-108513880D01*
X139187738Y-108548642D01*
X139165371Y-108579427D01*
X139137093Y-108604888D01*
X139104139Y-108623914D01*
X139067950Y-108635673D01*
X139030106Y-108639650D01*
X138307119Y-108639650D01*
X138269276Y-108635673D01*
X138233087Y-108623914D01*
X138200133Y-108604888D01*
X138171855Y-108579427D01*
X138149488Y-108548642D01*
X138134011Y-108513880D01*
X138126100Y-108476660D01*
X138126100Y-108438608D01*
X138134011Y-108401387D01*
X138149488Y-108366625D01*
X138171855Y-108335841D01*
X138200133Y-108310379D01*
X138233087Y-108291353D01*
X138269276Y-108279594D01*
X138307119Y-108275617D01*
X139030106Y-108275617D01*
X139067950Y-108279594D01*
G37*
X133370112Y-107989663D02*
X133332268Y-107985686D01*
X133296079Y-107973927D01*
X133263125Y-107954901D01*
X133234847Y-107929439D01*
X133212480Y-107898655D01*
X133197003Y-107863893D01*
X133189092Y-107826672D01*
X133189092Y-107788620D01*
X133197003Y-107751400D01*
X133212480Y-107716638D01*
X133234847Y-107685853D01*
X133263125Y-107660392D01*
X133296079Y-107641366D01*
X133332268Y-107629607D01*
X133370112Y-107625630D01*
X134093099Y-107625630D01*
X134130942Y-107629607D01*
X134167131Y-107641366D01*
X134200085Y-107660392D01*
X134228363Y-107685853D01*
X134250730Y-107716638D01*
X134266207Y-107751400D01*
X134274118Y-107788620D01*
X134274118Y-107826672D01*
X134266207Y-107863893D01*
X134250730Y-107898655D01*
X134228363Y-107929439D01*
X134200085Y-107954901D01*
X134167131Y-107973927D01*
X134130942Y-107985686D01*
X134093099Y-107989663D01*
X133370112Y-107989663D01*
G36*
X134130942Y-107629607D02*
G01*
X134167131Y-107641366D01*
X134200085Y-107660392D01*
X134228363Y-107685853D01*
X134250730Y-107716638D01*
X134266207Y-107751400D01*
X134274118Y-107788620D01*
X134274118Y-107826672D01*
X134266207Y-107863893D01*
X134250730Y-107898655D01*
X134228363Y-107929439D01*
X134200085Y-107954901D01*
X134167131Y-107973927D01*
X134130942Y-107985686D01*
X134093099Y-107989663D01*
X133370112Y-107989663D01*
X133332268Y-107985686D01*
X133296079Y-107973927D01*
X133263125Y-107954901D01*
X133234847Y-107929439D01*
X133212480Y-107898655D01*
X133197003Y-107863893D01*
X133189092Y-107826672D01*
X133189092Y-107788620D01*
X133197003Y-107751400D01*
X133212480Y-107716638D01*
X133234847Y-107685853D01*
X133263125Y-107660392D01*
X133296079Y-107641366D01*
X133332268Y-107629607D01*
X133370112Y-107625630D01*
X134093099Y-107625630D01*
X134130942Y-107629607D01*
G37*
X138307119Y-107989663D02*
X138269276Y-107985686D01*
X138233087Y-107973927D01*
X138200133Y-107954901D01*
X138171855Y-107929439D01*
X138149488Y-107898655D01*
X138134011Y-107863893D01*
X138126100Y-107826672D01*
X138126100Y-107788620D01*
X138134011Y-107751400D01*
X138149488Y-107716638D01*
X138171855Y-107685853D01*
X138200133Y-107660392D01*
X138233087Y-107641366D01*
X138269276Y-107629607D01*
X138307119Y-107625630D01*
X139030106Y-107625630D01*
X139067950Y-107629607D01*
X139104139Y-107641366D01*
X139137093Y-107660392D01*
X139165371Y-107685853D01*
X139187738Y-107716638D01*
X139203215Y-107751400D01*
X139211126Y-107788620D01*
X139211126Y-107826672D01*
X139203215Y-107863893D01*
X139187738Y-107898655D01*
X139165371Y-107929439D01*
X139137093Y-107954901D01*
X139104139Y-107973927D01*
X139067950Y-107985686D01*
X139030106Y-107989663D01*
X138307119Y-107989663D01*
G36*
X139067950Y-107629607D02*
G01*
X139104139Y-107641366D01*
X139137093Y-107660392D01*
X139165371Y-107685853D01*
X139187738Y-107716638D01*
X139203215Y-107751400D01*
X139211126Y-107788620D01*
X139211126Y-107826672D01*
X139203215Y-107863893D01*
X139187738Y-107898655D01*
X139165371Y-107929439D01*
X139137093Y-107954901D01*
X139104139Y-107973927D01*
X139067950Y-107985686D01*
X139030106Y-107989663D01*
X138307119Y-107989663D01*
X138269276Y-107985686D01*
X138233087Y-107973927D01*
X138200133Y-107954901D01*
X138171855Y-107929439D01*
X138149488Y-107898655D01*
X138134011Y-107863893D01*
X138126100Y-107826672D01*
X138126100Y-107788620D01*
X138134011Y-107751400D01*
X138149488Y-107716638D01*
X138171855Y-107685853D01*
X138200133Y-107660392D01*
X138233087Y-107641366D01*
X138269276Y-107629607D01*
X138307119Y-107625630D01*
X139030106Y-107625630D01*
X139067950Y-107629607D01*
G37*
X135082024Y-107000484D02*
X135078047Y-107038327D01*
X135066288Y-107074516D01*
X135047262Y-107107470D01*
X135021800Y-107135748D01*
X134991016Y-107158115D01*
X134956254Y-107173592D01*
X134919033Y-107181503D01*
X134880981Y-107181503D01*
X134843761Y-107173592D01*
X134808999Y-107158115D01*
X134778214Y-107135748D01*
X134752753Y-107107470D01*
X134733727Y-107074516D01*
X134721968Y-107038327D01*
X134717991Y-107000484D01*
X134717991Y-106277497D01*
X134721968Y-106239653D01*
X134733727Y-106203464D01*
X134752753Y-106170510D01*
X134778214Y-106142232D01*
X134808999Y-106119865D01*
X134843761Y-106104388D01*
X134880981Y-106096477D01*
X134919033Y-106096477D01*
X134956254Y-106104388D01*
X134991016Y-106119865D01*
X135021800Y-106142232D01*
X135047262Y-106170510D01*
X135066288Y-106203464D01*
X135078047Y-106239653D01*
X135082024Y-106277497D01*
X135082024Y-107000484D01*
G36*
X134956254Y-106104388D02*
G01*
X134991016Y-106119865D01*
X135021800Y-106142232D01*
X135047262Y-106170510D01*
X135066288Y-106203464D01*
X135078047Y-106239653D01*
X135082024Y-106277497D01*
X135082024Y-107000484D01*
X135078047Y-107038327D01*
X135066288Y-107074516D01*
X135047262Y-107107470D01*
X135021800Y-107135748D01*
X134991016Y-107158115D01*
X134956254Y-107173592D01*
X134919033Y-107181503D01*
X134880981Y-107181503D01*
X134843761Y-107173592D01*
X134808999Y-107158115D01*
X134778214Y-107135748D01*
X134752753Y-107107470D01*
X134733727Y-107074516D01*
X134721968Y-107038327D01*
X134717991Y-107000484D01*
X134717991Y-106277497D01*
X134721968Y-106239653D01*
X134733727Y-106203464D01*
X134752753Y-106170510D01*
X134778214Y-106142232D01*
X134808999Y-106119865D01*
X134843761Y-106104388D01*
X134880981Y-106096477D01*
X134919033Y-106096477D01*
X134956254Y-106104388D01*
G37*
X135732011Y-107000484D02*
X135728034Y-107038327D01*
X135716275Y-107074516D01*
X135697249Y-107107470D01*
X135671788Y-107135748D01*
X135641003Y-107158115D01*
X135606241Y-107173592D01*
X135569021Y-107181503D01*
X135530969Y-107181503D01*
X135493748Y-107173592D01*
X135458986Y-107158115D01*
X135428202Y-107135748D01*
X135402740Y-107107470D01*
X135383714Y-107074516D01*
X135371955Y-107038327D01*
X135367978Y-107000484D01*
X135367978Y-106277497D01*
X135371955Y-106239653D01*
X135383714Y-106203464D01*
X135402740Y-106170510D01*
X135428202Y-106142232D01*
X135458986Y-106119865D01*
X135493748Y-106104388D01*
X135530969Y-106096477D01*
X135569021Y-106096477D01*
X135606241Y-106104388D01*
X135641003Y-106119865D01*
X135671788Y-106142232D01*
X135697249Y-106170510D01*
X135716275Y-106203464D01*
X135728034Y-106239653D01*
X135732011Y-106277497D01*
X135732011Y-107000484D01*
G36*
X135606241Y-106104388D02*
G01*
X135641003Y-106119865D01*
X135671788Y-106142232D01*
X135697249Y-106170510D01*
X135716275Y-106203464D01*
X135728034Y-106239653D01*
X135732011Y-106277497D01*
X135732011Y-107000484D01*
X135728034Y-107038327D01*
X135716275Y-107074516D01*
X135697249Y-107107470D01*
X135671788Y-107135748D01*
X135641003Y-107158115D01*
X135606241Y-107173592D01*
X135569021Y-107181503D01*
X135530969Y-107181503D01*
X135493748Y-107173592D01*
X135458986Y-107158115D01*
X135428202Y-107135748D01*
X135402740Y-107107470D01*
X135383714Y-107074516D01*
X135371955Y-107038327D01*
X135367978Y-107000484D01*
X135367978Y-106277497D01*
X135371955Y-106239653D01*
X135383714Y-106203464D01*
X135402740Y-106170510D01*
X135428202Y-106142232D01*
X135458986Y-106119865D01*
X135493748Y-106104388D01*
X135530969Y-106096477D01*
X135569021Y-106096477D01*
X135606241Y-106104388D01*
G37*
X137031986Y-107000484D02*
X137028009Y-107038327D01*
X137016250Y-107074516D01*
X136997224Y-107107470D01*
X136971762Y-107135748D01*
X136940978Y-107158115D01*
X136906216Y-107173592D01*
X136868995Y-107181503D01*
X136830943Y-107181503D01*
X136793723Y-107173592D01*
X136758961Y-107158115D01*
X136728176Y-107135748D01*
X136702715Y-107107470D01*
X136683689Y-107074516D01*
X136671930Y-107038327D01*
X136667953Y-107000484D01*
X136667953Y-106277497D01*
X136671930Y-106239653D01*
X136683689Y-106203464D01*
X136702715Y-106170510D01*
X136728176Y-106142232D01*
X136758961Y-106119865D01*
X136793723Y-106104388D01*
X136830943Y-106096477D01*
X136868995Y-106096477D01*
X136906216Y-106104388D01*
X136940978Y-106119865D01*
X136971762Y-106142232D01*
X136997224Y-106170510D01*
X137016250Y-106203464D01*
X137028009Y-106239653D01*
X137031986Y-106277497D01*
X137031986Y-107000484D01*
G36*
X136906216Y-106104388D02*
G01*
X136940978Y-106119865D01*
X136971762Y-106142232D01*
X136997224Y-106170510D01*
X137016250Y-106203464D01*
X137028009Y-106239653D01*
X137031986Y-106277497D01*
X137031986Y-107000484D01*
X137028009Y-107038327D01*
X137016250Y-107074516D01*
X136997224Y-107107470D01*
X136971762Y-107135748D01*
X136940978Y-107158115D01*
X136906216Y-107173592D01*
X136868995Y-107181503D01*
X136830943Y-107181503D01*
X136793723Y-107173592D01*
X136758961Y-107158115D01*
X136728176Y-107135748D01*
X136702715Y-107107470D01*
X136683689Y-107074516D01*
X136671930Y-107038327D01*
X136667953Y-107000484D01*
X136667953Y-106277497D01*
X136671930Y-106239653D01*
X136683689Y-106203464D01*
X136702715Y-106170510D01*
X136728176Y-106142232D01*
X136758961Y-106119865D01*
X136793723Y-106104388D01*
X136830943Y-106096477D01*
X136868995Y-106096477D01*
X136906216Y-106104388D01*
G37*
X137681973Y-107000484D02*
X137677996Y-107038327D01*
X137666237Y-107074516D01*
X137647211Y-107107470D01*
X137621750Y-107135748D01*
X137590965Y-107158115D01*
X137556203Y-107173592D01*
X137518983Y-107181503D01*
X137480931Y-107181503D01*
X137443710Y-107173592D01*
X137408948Y-107158115D01*
X137378164Y-107135748D01*
X137352702Y-107107470D01*
X137333676Y-107074516D01*
X137321917Y-107038327D01*
X137317940Y-107000484D01*
X137317940Y-106277497D01*
X137321917Y-106239653D01*
X137333676Y-106203464D01*
X137352702Y-106170510D01*
X137378164Y-106142232D01*
X137408948Y-106119865D01*
X137443710Y-106104388D01*
X137480931Y-106096477D01*
X137518983Y-106096477D01*
X137556203Y-106104388D01*
X137590965Y-106119865D01*
X137621750Y-106142232D01*
X137647211Y-106170510D01*
X137666237Y-106203464D01*
X137677996Y-106239653D01*
X137681973Y-106277497D01*
X137681973Y-107000484D01*
G36*
X137556203Y-106104388D02*
G01*
X137590965Y-106119865D01*
X137621750Y-106142232D01*
X137647211Y-106170510D01*
X137666237Y-106203464D01*
X137677996Y-106239653D01*
X137681973Y-106277497D01*
X137681973Y-107000484D01*
X137677996Y-107038327D01*
X137666237Y-107074516D01*
X137647211Y-107107470D01*
X137621750Y-107135748D01*
X137590965Y-107158115D01*
X137556203Y-107173592D01*
X137518983Y-107181503D01*
X137480931Y-107181503D01*
X137443710Y-107173592D01*
X137408948Y-107158115D01*
X137378164Y-107135748D01*
X137352702Y-107107470D01*
X137333676Y-107074516D01*
X137321917Y-107038327D01*
X137317940Y-107000484D01*
X137317940Y-106277497D01*
X137321917Y-106239653D01*
X137333676Y-106203464D01*
X137352702Y-106170510D01*
X137378164Y-106142232D01*
X137408948Y-106119865D01*
X137443710Y-106104388D01*
X137480931Y-106096477D01*
X137518983Y-106096477D01*
X137556203Y-106104388D01*
G37*
X136381999Y-111937491D02*
X136378501Y-111973001D01*
X136368144Y-112007146D01*
X136351323Y-112038615D01*
X136328687Y-112066197D01*
X136301105Y-112088833D01*
X136269637Y-112105653D01*
X136235492Y-112116011D01*
X136199982Y-112119508D01*
X136164472Y-112116011D01*
X136130327Y-112105653D01*
X136098859Y-112088833D01*
X136071277Y-112066197D01*
X136048641Y-112038615D01*
X136031820Y-112007146D01*
X136021463Y-111973001D01*
X136017965Y-111937491D01*
X136017965Y-111214504D01*
X136021463Y-111178995D01*
X136031820Y-111144850D01*
X136048641Y-111113381D01*
X136071277Y-111085799D01*
X136098859Y-111063163D01*
X136130327Y-111046343D01*
X136164472Y-111035985D01*
X136199982Y-111032488D01*
X136235492Y-111035985D01*
X136269637Y-111046343D01*
X136301105Y-111063163D01*
X136328687Y-111085799D01*
X136351323Y-111113381D01*
X136368144Y-111144850D01*
X136378501Y-111178995D01*
X136381999Y-111214504D01*
X136381999Y-111937491D01*
G36*
X136235492Y-111035985D02*
G01*
X136269637Y-111046343D01*
X136301105Y-111063163D01*
X136328687Y-111085799D01*
X136351323Y-111113381D01*
X136368144Y-111144850D01*
X136378501Y-111178995D01*
X136381999Y-111214504D01*
X136381999Y-111937491D01*
X136378501Y-111973001D01*
X136368144Y-112007146D01*
X136351323Y-112038615D01*
X136328687Y-112066197D01*
X136301105Y-112088833D01*
X136269637Y-112105653D01*
X136235492Y-112116011D01*
X136199982Y-112119508D01*
X136164472Y-112116011D01*
X136130327Y-112105653D01*
X136098859Y-112088833D01*
X136071277Y-112066197D01*
X136048641Y-112038615D01*
X136031820Y-112007146D01*
X136021463Y-111973001D01*
X136017965Y-111937491D01*
X136017965Y-111214504D01*
X136021463Y-111178995D01*
X136031820Y-111144850D01*
X136048641Y-111113381D01*
X136071277Y-111085799D01*
X136098859Y-111063163D01*
X136130327Y-111046343D01*
X136164472Y-111035985D01*
X136199982Y-111032488D01*
X136235492Y-111035985D01*
G37*
X133370112Y-109289638D02*
X133334602Y-109286140D01*
X133300457Y-109275783D01*
X133268988Y-109258962D01*
X133241406Y-109236326D01*
X133218770Y-109208744D01*
X133201950Y-109177276D01*
X133191592Y-109143131D01*
X133188095Y-109107621D01*
X133191592Y-109072111D01*
X133201950Y-109037966D01*
X133218770Y-109006498D01*
X133241406Y-108978916D01*
X133268988Y-108956280D01*
X133300457Y-108939459D01*
X133334602Y-108929102D01*
X133370112Y-108925604D01*
X134093099Y-108925604D01*
X134128608Y-108929102D01*
X134162753Y-108939459D01*
X134194222Y-108956280D01*
X134221804Y-108978916D01*
X134244440Y-109006498D01*
X134261260Y-109037966D01*
X134271618Y-109072111D01*
X134275115Y-109107621D01*
X134271618Y-109143131D01*
X134261260Y-109177276D01*
X134244440Y-109208744D01*
X134221804Y-109236326D01*
X134194222Y-109258962D01*
X134162753Y-109275783D01*
X134128608Y-109286140D01*
X134093099Y-109289638D01*
X133370112Y-109289638D01*
G36*
X134128608Y-108929102D02*
G01*
X134162753Y-108939459D01*
X134194222Y-108956280D01*
X134221804Y-108978916D01*
X134244440Y-109006498D01*
X134261260Y-109037966D01*
X134271618Y-109072111D01*
X134275115Y-109107621D01*
X134271618Y-109143131D01*
X134261260Y-109177276D01*
X134244440Y-109208744D01*
X134221804Y-109236326D01*
X134194222Y-109258962D01*
X134162753Y-109275783D01*
X134128608Y-109286140D01*
X134093099Y-109289638D01*
X133370112Y-109289638D01*
X133334602Y-109286140D01*
X133300457Y-109275783D01*
X133268988Y-109258962D01*
X133241406Y-109236326D01*
X133218770Y-109208744D01*
X133201950Y-109177276D01*
X133191592Y-109143131D01*
X133188095Y-109107621D01*
X133191592Y-109072111D01*
X133201950Y-109037966D01*
X133218770Y-109006498D01*
X133241406Y-108978916D01*
X133268988Y-108956280D01*
X133300457Y-108939459D01*
X133334602Y-108929102D01*
X133370112Y-108925604D01*
X134093099Y-108925604D01*
X134128608Y-108929102D01*
G37*
X138307119Y-109289638D02*
X138271610Y-109286140D01*
X138237465Y-109275783D01*
X138205996Y-109258962D01*
X138178414Y-109236326D01*
X138155778Y-109208744D01*
X138138958Y-109177276D01*
X138128600Y-109143131D01*
X138125103Y-109107621D01*
X138128600Y-109072111D01*
X138138958Y-109037966D01*
X138155778Y-109006498D01*
X138178414Y-108978916D01*
X138205996Y-108956280D01*
X138237465Y-108939459D01*
X138271610Y-108929102D01*
X138307119Y-108925604D01*
X139030106Y-108925604D01*
X139065616Y-108929102D01*
X139099761Y-108939459D01*
X139131230Y-108956280D01*
X139158812Y-108978916D01*
X139181448Y-109006498D01*
X139198268Y-109037966D01*
X139208626Y-109072111D01*
X139212123Y-109107621D01*
X139208626Y-109143131D01*
X139198268Y-109177276D01*
X139181448Y-109208744D01*
X139158812Y-109236326D01*
X139131230Y-109258962D01*
X139099761Y-109275783D01*
X139065616Y-109286140D01*
X139030106Y-109289638D01*
X138307119Y-109289638D01*
G36*
X139065616Y-108929102D02*
G01*
X139099761Y-108939459D01*
X139131230Y-108956280D01*
X139158812Y-108978916D01*
X139181448Y-109006498D01*
X139198268Y-109037966D01*
X139208626Y-109072111D01*
X139212123Y-109107621D01*
X139208626Y-109143131D01*
X139198268Y-109177276D01*
X139181448Y-109208744D01*
X139158812Y-109236326D01*
X139131230Y-109258962D01*
X139099761Y-109275783D01*
X139065616Y-109286140D01*
X139030106Y-109289638D01*
X138307119Y-109289638D01*
X138271610Y-109286140D01*
X138237465Y-109275783D01*
X138205996Y-109258962D01*
X138178414Y-109236326D01*
X138155778Y-109208744D01*
X138138958Y-109177276D01*
X138128600Y-109143131D01*
X138125103Y-109107621D01*
X138128600Y-109072111D01*
X138138958Y-109037966D01*
X138155778Y-109006498D01*
X138178414Y-108978916D01*
X138205996Y-108956280D01*
X138237465Y-108939459D01*
X138271610Y-108929102D01*
X138307119Y-108925604D01*
X139030106Y-108925604D01*
X139065616Y-108929102D01*
G37*
X136381999Y-107000484D02*
X136378501Y-107035993D01*
X136368144Y-107070138D01*
X136351323Y-107101607D01*
X136328687Y-107129189D01*
X136301105Y-107151825D01*
X136269637Y-107168645D01*
X136235492Y-107179003D01*
X136199982Y-107182500D01*
X136164472Y-107179003D01*
X136130327Y-107168645D01*
X136098859Y-107151825D01*
X136071277Y-107129189D01*
X136048641Y-107101607D01*
X136031820Y-107070138D01*
X136021463Y-107035993D01*
X136017965Y-107000484D01*
X136017965Y-106277497D01*
X136021463Y-106241987D01*
X136031820Y-106207842D01*
X136048641Y-106176373D01*
X136071277Y-106148791D01*
X136098859Y-106126155D01*
X136130327Y-106109335D01*
X136164472Y-106098977D01*
X136199982Y-106095480D01*
X136235492Y-106098977D01*
X136269637Y-106109335D01*
X136301105Y-106126155D01*
X136328687Y-106148791D01*
X136351323Y-106176373D01*
X136368144Y-106207842D01*
X136378501Y-106241987D01*
X136381999Y-106277497D01*
X136381999Y-107000484D01*
G36*
X136235492Y-106098977D02*
G01*
X136269637Y-106109335D01*
X136301105Y-106126155D01*
X136328687Y-106148791D01*
X136351323Y-106176373D01*
X136368144Y-106207842D01*
X136378501Y-106241987D01*
X136381999Y-106277497D01*
X136381999Y-107000484D01*
X136378501Y-107035993D01*
X136368144Y-107070138D01*
X136351323Y-107101607D01*
X136328687Y-107129189D01*
X136301105Y-107151825D01*
X136269637Y-107168645D01*
X136235492Y-107179003D01*
X136199982Y-107182500D01*
X136164472Y-107179003D01*
X136130327Y-107168645D01*
X136098859Y-107151825D01*
X136071277Y-107129189D01*
X136048641Y-107101607D01*
X136031820Y-107070138D01*
X136021463Y-107035993D01*
X136017965Y-107000484D01*
X136017965Y-106277497D01*
X136021463Y-106241987D01*
X136031820Y-106207842D01*
X136048641Y-106176373D01*
X136071277Y-106148791D01*
X136098859Y-106126155D01*
X136130327Y-106109335D01*
X136164472Y-106098977D01*
X136199982Y-106095480D01*
X136235492Y-106098977D01*
G37*
%TO.C,J3*%
X114700045Y-96774129D02*
X114700045Y-98074154D01*
X115000045Y-98074154D01*
X115000045Y-96774129D01*
X114700045Y-96774129D01*
G36*
X115000045Y-98074154D02*
G01*
X114700045Y-98074154D01*
X114700045Y-96774129D01*
X115000045Y-96774129D01*
X115000045Y-98074154D01*
G37*
X114499918Y-98074154D02*
X114499918Y-96774129D01*
X114199918Y-96774129D01*
X114199918Y-98074154D01*
X114499918Y-98074154D01*
G36*
X114499918Y-98074154D02*
G01*
X114199918Y-98074154D01*
X114199918Y-96774129D01*
X114499918Y-96774129D01*
X114499918Y-98074154D01*
G37*
X113700045Y-96774154D02*
X113700045Y-98074180D01*
X114000045Y-98074180D01*
X114000045Y-96774154D01*
X113700045Y-96774154D01*
G36*
X114000045Y-98074180D02*
G01*
X113700045Y-98074180D01*
X113700045Y-96774154D01*
X114000045Y-96774154D01*
X114000045Y-98074180D01*
G37*
X113199918Y-96774129D02*
X113199918Y-98074154D01*
X113499918Y-98074154D01*
X113499918Y-96774129D01*
X113199918Y-96774129D01*
G36*
X113499918Y-98074154D02*
G01*
X113199918Y-98074154D01*
X113199918Y-96774129D01*
X113499918Y-96774129D01*
X113499918Y-98074154D01*
G37*
X112700045Y-96774154D02*
X112700045Y-98074180D01*
X113000045Y-98074180D01*
X113000045Y-96774154D01*
X112700045Y-96774154D01*
G36*
X113000045Y-98074180D02*
G01*
X112700045Y-98074180D01*
X112700045Y-96774154D01*
X113000045Y-96774154D01*
X113000045Y-98074180D01*
G37*
X112199918Y-96774129D02*
X112199918Y-98074154D01*
X112499918Y-98074154D01*
X112499918Y-96774129D01*
X112199918Y-96774129D01*
G36*
X112499918Y-98074154D02*
G01*
X112199918Y-98074154D01*
X112199918Y-96774129D01*
X112499918Y-96774129D01*
X112499918Y-98074154D01*
G37*
X111700299Y-96774129D02*
X111700299Y-98074154D01*
X112000299Y-98074154D01*
X112000299Y-96774129D01*
X111700299Y-96774129D01*
G36*
X112000299Y-98074154D02*
G01*
X111700299Y-98074154D01*
X111700299Y-96774129D01*
X112000299Y-96774129D01*
X112000299Y-98074154D01*
G37*
X111199918Y-96774129D02*
X111199918Y-98074154D01*
X111499918Y-98074154D01*
X111499918Y-96774129D01*
X111199918Y-96774129D01*
G36*
X111499918Y-98074154D02*
G01*
X111199918Y-98074154D01*
X111199918Y-96774129D01*
X111499918Y-96774129D01*
X111499918Y-98074154D01*
G37*
X115999969Y-96774154D02*
X115999969Y-98074180D01*
X116299969Y-98074180D01*
X116299969Y-98074027D01*
X116599943Y-98074027D01*
X116599943Y-96774002D01*
X116299943Y-96774002D01*
X116299943Y-96774154D01*
X115999969Y-96774154D01*
G36*
X116599943Y-98074027D02*
G01*
X116299969Y-98074027D01*
X116299969Y-98074180D01*
X115999969Y-98074180D01*
X115999969Y-96774154D01*
X116299943Y-96774154D01*
X116299943Y-96774002D01*
X116599943Y-96774002D01*
X116599943Y-98074027D01*
G37*
X115199969Y-96774053D02*
X115199969Y-98074027D01*
X115499994Y-98074027D01*
X115499994Y-98074002D01*
X115799943Y-98074002D01*
X115799943Y-96774027D01*
X115499918Y-96774027D01*
X115499918Y-96774053D01*
X115199969Y-96774053D01*
G36*
X115799943Y-98074002D02*
G01*
X115499994Y-98074002D01*
X115499994Y-98074027D01*
X115199969Y-98074027D01*
X115199969Y-96774053D01*
X115499918Y-96774053D01*
X115499918Y-96774027D01*
X115799943Y-96774027D01*
X115799943Y-98074002D01*
G37*
X110399816Y-96774205D02*
X110399816Y-98074180D01*
X110699816Y-98074180D01*
X110699842Y-98074180D01*
X110999842Y-98074180D01*
X110999842Y-96774205D01*
X110699842Y-96774205D01*
X110699816Y-96774205D01*
X110399816Y-96774205D01*
G36*
X110999842Y-98074180D02*
G01*
X110699842Y-98074180D01*
X110699816Y-98074180D01*
X110399816Y-98074180D01*
X110399816Y-96774205D01*
X110699816Y-96774205D01*
X110699842Y-96774205D01*
X110999842Y-96774205D01*
X110999842Y-98074180D01*
G37*
X109599969Y-96774002D02*
X109599969Y-98073977D01*
X109899969Y-98073977D01*
X109899994Y-98073977D01*
X110199994Y-98073977D01*
X110199994Y-96774002D01*
X109899994Y-96774002D01*
X109899969Y-96774002D01*
X109599969Y-96774002D01*
G36*
X110199994Y-98073977D02*
G01*
X109899994Y-98073977D01*
X109899969Y-98073977D01*
X109599969Y-98073977D01*
X109599969Y-96774002D01*
X109899969Y-96774002D01*
X109899994Y-96774002D01*
X110199994Y-96774002D01*
X110199994Y-98073977D01*
G37*
X117440075Y-93375653D02*
X117469946Y-93374154D01*
X117499715Y-93371183D01*
X117529306Y-93366712D01*
X117558617Y-93360794D01*
X117587624Y-93353403D01*
X117616199Y-93344589D01*
X117644317Y-93334353D01*
X117671876Y-93322745D01*
X117698851Y-93309765D01*
X117725115Y-93295440D01*
X117750642Y-93279844D01*
X117775356Y-93263004D01*
X117799207Y-93244919D01*
X117822117Y-93225691D01*
X117844063Y-93205346D01*
X117864942Y-93183933D01*
X117884754Y-93161505D01*
X117903398Y-93138112D01*
X117920847Y-93113829D01*
X117937078Y-93088683D01*
X117952039Y-93062775D01*
X117965704Y-93036156D01*
X117977998Y-93008902D01*
X117988920Y-92981038D01*
X117998470Y-92952691D01*
X118006573Y-92923888D01*
X118013227Y-92894728D01*
X118018409Y-92865264D01*
X118022143Y-92835572D01*
X118024378Y-92805727D01*
X118025115Y-92775831D01*
X118025115Y-92175831D01*
X118024378Y-92145935D01*
X118022143Y-92116090D01*
X118018409Y-92086397D01*
X118013227Y-92056933D01*
X118006573Y-92027774D01*
X117998470Y-91998970D01*
X117988920Y-91970624D01*
X117977998Y-91942760D01*
X117965704Y-91915506D01*
X117952039Y-91888886D01*
X117937078Y-91862978D01*
X117920847Y-91837832D01*
X117903398Y-91813550D01*
X117884754Y-91790156D01*
X117864942Y-91767728D01*
X117844063Y-91746316D01*
X117822117Y-91725971D01*
X117799207Y-91706743D01*
X117775356Y-91688658D01*
X117750642Y-91671818D01*
X117725115Y-91656222D01*
X117698851Y-91641896D01*
X117671876Y-91628917D01*
X117644317Y-91617309D01*
X117616199Y-91607073D01*
X117587624Y-91598259D01*
X117558617Y-91590868D01*
X117529306Y-91584949D01*
X117499715Y-91580479D01*
X117469946Y-91577507D01*
X117440075Y-91576009D01*
X117410154Y-91576009D01*
X117380284Y-91577507D01*
X117350515Y-91580479D01*
X117320924Y-91584949D01*
X117291612Y-91590868D01*
X117262605Y-91598259D01*
X117234030Y-91607073D01*
X117205912Y-91617309D01*
X117178353Y-91628917D01*
X117151378Y-91641896D01*
X117125115Y-91656222D01*
X117099588Y-91671818D01*
X117074873Y-91688658D01*
X117051023Y-91706743D01*
X117028112Y-91725971D01*
X117006166Y-91746316D01*
X116985287Y-91767728D01*
X116965475Y-91790156D01*
X116946832Y-91813550D01*
X116929382Y-91837832D01*
X116913151Y-91862978D01*
X116898191Y-91888886D01*
X116884525Y-91915506D01*
X116872232Y-91942760D01*
X116861310Y-91970624D01*
X116851759Y-91998970D01*
X116843657Y-92027774D01*
X116837002Y-92056933D01*
X116831820Y-92086397D01*
X116828086Y-92116090D01*
X116825851Y-92145935D01*
X116825115Y-92175831D01*
X116825115Y-92775831D01*
X116825851Y-92805727D01*
X116828086Y-92835572D01*
X116831820Y-92865264D01*
X116837002Y-92894728D01*
X116843657Y-92923888D01*
X116851759Y-92952691D01*
X116861310Y-92981038D01*
X116872232Y-93008902D01*
X116884525Y-93036156D01*
X116898191Y-93062775D01*
X116913151Y-93088683D01*
X116929382Y-93113829D01*
X116946832Y-93138112D01*
X116965475Y-93161505D01*
X116985287Y-93183933D01*
X117006166Y-93205346D01*
X117028112Y-93225691D01*
X117051023Y-93244919D01*
X117074873Y-93263004D01*
X117099588Y-93279844D01*
X117125115Y-93295440D01*
X117151378Y-93309765D01*
X117178353Y-93322745D01*
X117205912Y-93334353D01*
X117234030Y-93344589D01*
X117262605Y-93353403D01*
X117291612Y-93360794D01*
X117320924Y-93366712D01*
X117350515Y-93371183D01*
X117380284Y-93374154D01*
X117410154Y-93375653D01*
X117440075Y-93375653D01*
G36*
X117469946Y-91577507D02*
G01*
X117499715Y-91580479D01*
X117529306Y-91584949D01*
X117558617Y-91590868D01*
X117587624Y-91598259D01*
X117616199Y-91607073D01*
X117644317Y-91617309D01*
X117671876Y-91628917D01*
X117698851Y-91641896D01*
X117725115Y-91656222D01*
X117750642Y-91671818D01*
X117775356Y-91688658D01*
X117799207Y-91706743D01*
X117822117Y-91725971D01*
X117844063Y-91746316D01*
X117864942Y-91767728D01*
X117884754Y-91790156D01*
X117903398Y-91813550D01*
X117920847Y-91837832D01*
X117937078Y-91862978D01*
X117952039Y-91888886D01*
X117965704Y-91915506D01*
X117977998Y-91942760D01*
X117988920Y-91970624D01*
X117998470Y-91998970D01*
X118006573Y-92027774D01*
X118013227Y-92056933D01*
X118018409Y-92086397D01*
X118022143Y-92116090D01*
X118024378Y-92145935D01*
X118025115Y-92175831D01*
X118025115Y-92775831D01*
X118024378Y-92805727D01*
X118022143Y-92835572D01*
X118018409Y-92865264D01*
X118013227Y-92894728D01*
X118006573Y-92923888D01*
X117998470Y-92952691D01*
X117988920Y-92981038D01*
X117977998Y-93008902D01*
X117965704Y-93036156D01*
X117952039Y-93062775D01*
X117937078Y-93088683D01*
X117920847Y-93113829D01*
X117903398Y-93138112D01*
X117884754Y-93161505D01*
X117864942Y-93183933D01*
X117844063Y-93205346D01*
X117822117Y-93225691D01*
X117799207Y-93244919D01*
X117775356Y-93263004D01*
X117750642Y-93279844D01*
X117725115Y-93295440D01*
X117698851Y-93309765D01*
X117671876Y-93322745D01*
X117644317Y-93334353D01*
X117616199Y-93344589D01*
X117587624Y-93353403D01*
X117558617Y-93360794D01*
X117529306Y-93366712D01*
X117499715Y-93371183D01*
X117469946Y-93374154D01*
X117440075Y-93375653D01*
X117410154Y-93375653D01*
X117380284Y-93374154D01*
X117350515Y-93371183D01*
X117320924Y-93366712D01*
X117291612Y-93360794D01*
X117262605Y-93353403D01*
X117234030Y-93344589D01*
X117205912Y-93334353D01*
X117178353Y-93322745D01*
X117151378Y-93309765D01*
X117125115Y-93295440D01*
X117099588Y-93279844D01*
X117074873Y-93263004D01*
X117051023Y-93244919D01*
X117028112Y-93225691D01*
X117006166Y-93205346D01*
X116985287Y-93183933D01*
X116965475Y-93161505D01*
X116946832Y-93138112D01*
X116929382Y-93113829D01*
X116913151Y-93088683D01*
X116898191Y-93062775D01*
X116884525Y-93036156D01*
X116872232Y-93008902D01*
X116861310Y-92981038D01*
X116851759Y-92952691D01*
X116843657Y-92923888D01*
X116837002Y-92894728D01*
X116831820Y-92865264D01*
X116828086Y-92835572D01*
X116825851Y-92805727D01*
X116825115Y-92775831D01*
X116825115Y-92175831D01*
X116825851Y-92145935D01*
X116828086Y-92116090D01*
X116831820Y-92086397D01*
X116837002Y-92056933D01*
X116843657Y-92027774D01*
X116851759Y-91998970D01*
X116861310Y-91970624D01*
X116872232Y-91942760D01*
X116884525Y-91915506D01*
X116898191Y-91888886D01*
X116913151Y-91862978D01*
X116929382Y-91837832D01*
X116946832Y-91813550D01*
X116965475Y-91790156D01*
X116985287Y-91767728D01*
X117006166Y-91746316D01*
X117028112Y-91725971D01*
X117051023Y-91706743D01*
X117074873Y-91688658D01*
X117099588Y-91671818D01*
X117125115Y-91656222D01*
X117151378Y-91641896D01*
X117178353Y-91628917D01*
X117205912Y-91617309D01*
X117234030Y-91607073D01*
X117262605Y-91598259D01*
X117291612Y-91590868D01*
X117320924Y-91584949D01*
X117350515Y-91580479D01*
X117380284Y-91577507D01*
X117410154Y-91576009D01*
X117440075Y-91576009D01*
X117469946Y-91577507D01*
G37*
X117380284Y-97654063D02*
X117410154Y-97655562D01*
X117440075Y-97655562D01*
X117469946Y-97654063D01*
X117499715Y-97651091D01*
X117529306Y-97646621D01*
X117558617Y-97640703D01*
X117587624Y-97633311D01*
X117616199Y-97624497D01*
X117644317Y-97614261D01*
X117671876Y-97602653D01*
X117698851Y-97589674D01*
X117725115Y-97575348D01*
X117750642Y-97559753D01*
X117775356Y-97542912D01*
X117799207Y-97524828D01*
X117822117Y-97505600D01*
X117844063Y-97485254D01*
X117864942Y-97463842D01*
X117884754Y-97441414D01*
X117903398Y-97418020D01*
X117920847Y-97393738D01*
X117937078Y-97368592D01*
X117952039Y-97342684D01*
X117965704Y-97316065D01*
X117977998Y-97288810D01*
X117988920Y-97260946D01*
X117998470Y-97232600D01*
X118006573Y-97203796D01*
X118013227Y-97174637D01*
X118018409Y-97145173D01*
X118022143Y-97115480D01*
X118024378Y-97085635D01*
X118025115Y-97055739D01*
X118025115Y-96255739D01*
X118024378Y-96225844D01*
X118022143Y-96195998D01*
X118018409Y-96166306D01*
X118013227Y-96136842D01*
X118006573Y-96107683D01*
X117998470Y-96078879D01*
X117988920Y-96050532D01*
X117977998Y-96022669D01*
X117965704Y-95995414D01*
X117952039Y-95968795D01*
X117937078Y-95942887D01*
X117920847Y-95917741D01*
X117903398Y-95893458D01*
X117884754Y-95870065D01*
X117864942Y-95847637D01*
X117844063Y-95826225D01*
X117822117Y-95805879D01*
X117799207Y-95786651D01*
X117775356Y-95768566D01*
X117750642Y-95751726D01*
X117725115Y-95736131D01*
X117698851Y-95721805D01*
X117671876Y-95708826D01*
X117644317Y-95697218D01*
X117616199Y-95686981D01*
X117587624Y-95678168D01*
X117558617Y-95670776D01*
X117529306Y-95664858D01*
X117499715Y-95660388D01*
X117469946Y-95657416D01*
X117440075Y-95655917D01*
X117410154Y-95655917D01*
X117380284Y-95657416D01*
X117350515Y-95660388D01*
X117320924Y-95664858D01*
X117291612Y-95670776D01*
X117262605Y-95678168D01*
X117234030Y-95686981D01*
X117205912Y-95697218D01*
X117178353Y-95708826D01*
X117151378Y-95721805D01*
X117125115Y-95736131D01*
X117099588Y-95751726D01*
X117074873Y-95768566D01*
X117051023Y-95786651D01*
X117028112Y-95805879D01*
X117006166Y-95826225D01*
X116985287Y-95847637D01*
X116965475Y-95870065D01*
X116946832Y-95893458D01*
X116929382Y-95917741D01*
X116913151Y-95942887D01*
X116898191Y-95968795D01*
X116884525Y-95995414D01*
X116872232Y-96022669D01*
X116861310Y-96050532D01*
X116851759Y-96078879D01*
X116843657Y-96107683D01*
X116837002Y-96136842D01*
X116831820Y-96166306D01*
X116828086Y-96195998D01*
X116825851Y-96225844D01*
X116825115Y-96255739D01*
X116825115Y-97055739D01*
X116825851Y-97085635D01*
X116828086Y-97115480D01*
X116831820Y-97145173D01*
X116837002Y-97174637D01*
X116843657Y-97203796D01*
X116851759Y-97232600D01*
X116861310Y-97260946D01*
X116872232Y-97288810D01*
X116884525Y-97316065D01*
X116898191Y-97342684D01*
X116913151Y-97368592D01*
X116929382Y-97393738D01*
X116946832Y-97418020D01*
X116965475Y-97441414D01*
X116985287Y-97463842D01*
X117006166Y-97485254D01*
X117028112Y-97505600D01*
X117051023Y-97524828D01*
X117074873Y-97542912D01*
X117099588Y-97559753D01*
X117125115Y-97575348D01*
X117151378Y-97589674D01*
X117178353Y-97602653D01*
X117205912Y-97614261D01*
X117234030Y-97624497D01*
X117262605Y-97633311D01*
X117291612Y-97640703D01*
X117320924Y-97646621D01*
X117350515Y-97651091D01*
X117380284Y-97654063D01*
G36*
X117469946Y-95657416D02*
G01*
X117499715Y-95660388D01*
X117529306Y-95664858D01*
X117558617Y-95670776D01*
X117587624Y-95678168D01*
X117616199Y-95686981D01*
X117644317Y-95697218D01*
X117671876Y-95708826D01*
X117698851Y-95721805D01*
X117725115Y-95736131D01*
X117750642Y-95751726D01*
X117775356Y-95768566D01*
X117799207Y-95786651D01*
X117822117Y-95805879D01*
X117844063Y-95826225D01*
X117864942Y-95847637D01*
X117884754Y-95870065D01*
X117903398Y-95893458D01*
X117920847Y-95917741D01*
X117937078Y-95942887D01*
X117952039Y-95968795D01*
X117965704Y-95995414D01*
X117977998Y-96022669D01*
X117988920Y-96050532D01*
X117998470Y-96078879D01*
X118006573Y-96107683D01*
X118013227Y-96136842D01*
X118018409Y-96166306D01*
X118022143Y-96195998D01*
X118024378Y-96225844D01*
X118025115Y-96255739D01*
X118025115Y-97055739D01*
X118024378Y-97085635D01*
X118022143Y-97115480D01*
X118018409Y-97145173D01*
X118013227Y-97174637D01*
X118006573Y-97203796D01*
X117998470Y-97232600D01*
X117988920Y-97260946D01*
X117977998Y-97288810D01*
X117965704Y-97316065D01*
X117952039Y-97342684D01*
X117937078Y-97368592D01*
X117920847Y-97393738D01*
X117903398Y-97418020D01*
X117884754Y-97441414D01*
X117864942Y-97463842D01*
X117844063Y-97485254D01*
X117822117Y-97505600D01*
X117799207Y-97524828D01*
X117775356Y-97542912D01*
X117750642Y-97559753D01*
X117725115Y-97575348D01*
X117698851Y-97589674D01*
X117671876Y-97602653D01*
X117644317Y-97614261D01*
X117616199Y-97624497D01*
X117587624Y-97633311D01*
X117558617Y-97640703D01*
X117529306Y-97646621D01*
X117499715Y-97651091D01*
X117469946Y-97654063D01*
X117440075Y-97655562D01*
X117410154Y-97655562D01*
X117380284Y-97654063D01*
X117350515Y-97651091D01*
X117320924Y-97646621D01*
X117291612Y-97640703D01*
X117262605Y-97633311D01*
X117234030Y-97624497D01*
X117205912Y-97614261D01*
X117178353Y-97602653D01*
X117151378Y-97589674D01*
X117125115Y-97575348D01*
X117099588Y-97559753D01*
X117074873Y-97542912D01*
X117051023Y-97524828D01*
X117028112Y-97505600D01*
X117006166Y-97485254D01*
X116985287Y-97463842D01*
X116965475Y-97441414D01*
X116946832Y-97418020D01*
X116929382Y-97393738D01*
X116913151Y-97368592D01*
X116898191Y-97342684D01*
X116884525Y-97316065D01*
X116872232Y-97288810D01*
X116861310Y-97260946D01*
X116851759Y-97232600D01*
X116843657Y-97203796D01*
X116837002Y-97174637D01*
X116831820Y-97145173D01*
X116828086Y-97115480D01*
X116825851Y-97085635D01*
X116825115Y-97055739D01*
X116825115Y-96255739D01*
X116825851Y-96225844D01*
X116828086Y-96195998D01*
X116831820Y-96166306D01*
X116837002Y-96136842D01*
X116843657Y-96107683D01*
X116851759Y-96078879D01*
X116861310Y-96050532D01*
X116872232Y-96022669D01*
X116884525Y-95995414D01*
X116898191Y-95968795D01*
X116913151Y-95942887D01*
X116929382Y-95917741D01*
X116946832Y-95893458D01*
X116965475Y-95870065D01*
X116985287Y-95847637D01*
X117006166Y-95826225D01*
X117028112Y-95805879D01*
X117051023Y-95786651D01*
X117074873Y-95768566D01*
X117099588Y-95751726D01*
X117125115Y-95736131D01*
X117151378Y-95721805D01*
X117178353Y-95708826D01*
X117205912Y-95697218D01*
X117234030Y-95686981D01*
X117262605Y-95678168D01*
X117291612Y-95670776D01*
X117320924Y-95664858D01*
X117350515Y-95660388D01*
X117380284Y-95657416D01*
X117410154Y-95655917D01*
X117440075Y-95655917D01*
X117469946Y-95657416D01*
G37*
X108730042Y-97654063D02*
X108759913Y-97655562D01*
X108789834Y-97655562D01*
X108819704Y-97654063D01*
X108849473Y-97651091D01*
X108879064Y-97646621D01*
X108908376Y-97640703D01*
X108937383Y-97633311D01*
X108965958Y-97624497D01*
X108994076Y-97614261D01*
X109021635Y-97602653D01*
X109048610Y-97589674D01*
X109074873Y-97575348D01*
X109100400Y-97559753D01*
X109125115Y-97542912D01*
X109148965Y-97524828D01*
X109171876Y-97505600D01*
X109193822Y-97485254D01*
X109214701Y-97463842D01*
X109234513Y-97441414D01*
X109253156Y-97418020D01*
X109270606Y-97393738D01*
X109286837Y-97368592D01*
X109301797Y-97342684D01*
X109315463Y-97316065D01*
X109327756Y-97288810D01*
X109338678Y-97260946D01*
X109348229Y-97232600D01*
X109356331Y-97203796D01*
X109362986Y-97174637D01*
X109368168Y-97145173D01*
X109371902Y-97115480D01*
X109374137Y-97085635D01*
X109374873Y-97055739D01*
X109374873Y-96255739D01*
X109374137Y-96225844D01*
X109371902Y-96195998D01*
X109368168Y-96166306D01*
X109362986Y-96136842D01*
X109356331Y-96107683D01*
X109348229Y-96078879D01*
X109338678Y-96050532D01*
X109327756Y-96022669D01*
X109315463Y-95995414D01*
X109301797Y-95968795D01*
X109286837Y-95942887D01*
X109270606Y-95917741D01*
X109253156Y-95893458D01*
X109234513Y-95870065D01*
X109214701Y-95847637D01*
X109193822Y-95826225D01*
X109171876Y-95805879D01*
X109148965Y-95786651D01*
X109125115Y-95768566D01*
X109100400Y-95751726D01*
X109074873Y-95736131D01*
X109048610Y-95721805D01*
X109021635Y-95708826D01*
X108994076Y-95697218D01*
X108965958Y-95686981D01*
X108937383Y-95678168D01*
X108908376Y-95670776D01*
X108879064Y-95664858D01*
X108849473Y-95660388D01*
X108819704Y-95657416D01*
X108789834Y-95655917D01*
X108759913Y-95655917D01*
X108730042Y-95657416D01*
X108700273Y-95660388D01*
X108670682Y-95664858D01*
X108641371Y-95670776D01*
X108612364Y-95678168D01*
X108583789Y-95686981D01*
X108555671Y-95697218D01*
X108528112Y-95708826D01*
X108501137Y-95721805D01*
X108474873Y-95736131D01*
X108449346Y-95751726D01*
X108424632Y-95768566D01*
X108400781Y-95786651D01*
X108377871Y-95805879D01*
X108355925Y-95826225D01*
X108335046Y-95847637D01*
X108315234Y-95870065D01*
X108296590Y-95893458D01*
X108279141Y-95917741D01*
X108262910Y-95942887D01*
X108247949Y-95968795D01*
X108234284Y-95995414D01*
X108221990Y-96022669D01*
X108211068Y-96050532D01*
X108201518Y-96078879D01*
X108193415Y-96107683D01*
X108186761Y-96136842D01*
X108181579Y-96166306D01*
X108177845Y-96195998D01*
X108175610Y-96225844D01*
X108174873Y-96255739D01*
X108174873Y-97055739D01*
X108175610Y-97085635D01*
X108177845Y-97115480D01*
X108181579Y-97145173D01*
X108186761Y-97174637D01*
X108193415Y-97203796D01*
X108201518Y-97232600D01*
X108211068Y-97260946D01*
X108221990Y-97288810D01*
X108234284Y-97316065D01*
X108247949Y-97342684D01*
X108262910Y-97368592D01*
X108279141Y-97393738D01*
X108296590Y-97418020D01*
X108315234Y-97441414D01*
X108335046Y-97463842D01*
X108355925Y-97485254D01*
X108377871Y-97505600D01*
X108400781Y-97524828D01*
X108424632Y-97542912D01*
X108449346Y-97559753D01*
X108474873Y-97575348D01*
X108501137Y-97589674D01*
X108528112Y-97602653D01*
X108555671Y-97614261D01*
X108583789Y-97624497D01*
X108612364Y-97633311D01*
X108641371Y-97640703D01*
X108670682Y-97646621D01*
X108700273Y-97651091D01*
X108730042Y-97654063D01*
G36*
X108819704Y-95657416D02*
G01*
X108849473Y-95660388D01*
X108879064Y-95664858D01*
X108908376Y-95670776D01*
X108937383Y-95678168D01*
X108965958Y-95686981D01*
X108994076Y-95697218D01*
X109021635Y-95708826D01*
X109048610Y-95721805D01*
X109074873Y-95736131D01*
X109100400Y-95751726D01*
X109125115Y-95768566D01*
X109148965Y-95786651D01*
X109171876Y-95805879D01*
X109193822Y-95826225D01*
X109214701Y-95847637D01*
X109234513Y-95870065D01*
X109253156Y-95893458D01*
X109270606Y-95917741D01*
X109286837Y-95942887D01*
X109301797Y-95968795D01*
X109315463Y-95995414D01*
X109327756Y-96022669D01*
X109338678Y-96050532D01*
X109348229Y-96078879D01*
X109356331Y-96107683D01*
X109362986Y-96136842D01*
X109368168Y-96166306D01*
X109371902Y-96195998D01*
X109374137Y-96225844D01*
X109374873Y-96255739D01*
X109374873Y-97055739D01*
X109374137Y-97085635D01*
X109371902Y-97115480D01*
X109368168Y-97145173D01*
X109362986Y-97174637D01*
X109356331Y-97203796D01*
X109348229Y-97232600D01*
X109338678Y-97260946D01*
X109327756Y-97288810D01*
X109315463Y-97316065D01*
X109301797Y-97342684D01*
X109286837Y-97368592D01*
X109270606Y-97393738D01*
X109253156Y-97418020D01*
X109234513Y-97441414D01*
X109214701Y-97463842D01*
X109193822Y-97485254D01*
X109171876Y-97505600D01*
X109148965Y-97524828D01*
X109125115Y-97542912D01*
X109100400Y-97559753D01*
X109074873Y-97575348D01*
X109048610Y-97589674D01*
X109021635Y-97602653D01*
X108994076Y-97614261D01*
X108965958Y-97624497D01*
X108937383Y-97633311D01*
X108908376Y-97640703D01*
X108879064Y-97646621D01*
X108849473Y-97651091D01*
X108819704Y-97654063D01*
X108789834Y-97655562D01*
X108759913Y-97655562D01*
X108730042Y-97654063D01*
X108700273Y-97651091D01*
X108670682Y-97646621D01*
X108641371Y-97640703D01*
X108612364Y-97633311D01*
X108583789Y-97624497D01*
X108555671Y-97614261D01*
X108528112Y-97602653D01*
X108501137Y-97589674D01*
X108474873Y-97575348D01*
X108449346Y-97559753D01*
X108424632Y-97542912D01*
X108400781Y-97524828D01*
X108377871Y-97505600D01*
X108355925Y-97485254D01*
X108335046Y-97463842D01*
X108315234Y-97441414D01*
X108296590Y-97418020D01*
X108279141Y-97393738D01*
X108262910Y-97368592D01*
X108247949Y-97342684D01*
X108234284Y-97316065D01*
X108221990Y-97288810D01*
X108211068Y-97260946D01*
X108201518Y-97232600D01*
X108193415Y-97203796D01*
X108186761Y-97174637D01*
X108181579Y-97145173D01*
X108177845Y-97115480D01*
X108175610Y-97085635D01*
X108174873Y-97055739D01*
X108174873Y-96255739D01*
X108175610Y-96225844D01*
X108177845Y-96195998D01*
X108181579Y-96166306D01*
X108186761Y-96136842D01*
X108193415Y-96107683D01*
X108201518Y-96078879D01*
X108211068Y-96050532D01*
X108221990Y-96022669D01*
X108234284Y-95995414D01*
X108247949Y-95968795D01*
X108262910Y-95942887D01*
X108279141Y-95917741D01*
X108296590Y-95893458D01*
X108315234Y-95870065D01*
X108335046Y-95847637D01*
X108355925Y-95826225D01*
X108377871Y-95805879D01*
X108400781Y-95786651D01*
X108424632Y-95768566D01*
X108449346Y-95751726D01*
X108474873Y-95736131D01*
X108501137Y-95721805D01*
X108528112Y-95708826D01*
X108555671Y-95697218D01*
X108583789Y-95686981D01*
X108612364Y-95678168D01*
X108641371Y-95670776D01*
X108670682Y-95664858D01*
X108700273Y-95660388D01*
X108730042Y-95657416D01*
X108759913Y-95655917D01*
X108789834Y-95655917D01*
X108819704Y-95657416D01*
G37*
X108730042Y-93374154D02*
X108759913Y-93375653D01*
X108789834Y-93375653D01*
X108819704Y-93374154D01*
X108849473Y-93371183D01*
X108879064Y-93366712D01*
X108908376Y-93360794D01*
X108937383Y-93353403D01*
X108965958Y-93344589D01*
X108994076Y-93334353D01*
X109021635Y-93322745D01*
X109048610Y-93309765D01*
X109074873Y-93295440D01*
X109100400Y-93279844D01*
X109125115Y-93263004D01*
X109148965Y-93244919D01*
X109171876Y-93225691D01*
X109193822Y-93205346D01*
X109214701Y-93183933D01*
X109234513Y-93161505D01*
X109253156Y-93138112D01*
X109270606Y-93113829D01*
X109286837Y-93088683D01*
X109301797Y-93062775D01*
X109315463Y-93036156D01*
X109327756Y-93008902D01*
X109338678Y-92981038D01*
X109348229Y-92952691D01*
X109356331Y-92923888D01*
X109362986Y-92894728D01*
X109368168Y-92865264D01*
X109371902Y-92835572D01*
X109374137Y-92805727D01*
X109374873Y-92775831D01*
X109374873Y-92175831D01*
X109374137Y-92145935D01*
X109371902Y-92116090D01*
X109368168Y-92086397D01*
X109362986Y-92056933D01*
X109356331Y-92027774D01*
X109348229Y-91998970D01*
X109338678Y-91970624D01*
X109327756Y-91942760D01*
X109315463Y-91915506D01*
X109301797Y-91888886D01*
X109286837Y-91862978D01*
X109270606Y-91837832D01*
X109253156Y-91813550D01*
X109234513Y-91790156D01*
X109214701Y-91767728D01*
X109193822Y-91746316D01*
X109171876Y-91725971D01*
X109148965Y-91706743D01*
X109125115Y-91688658D01*
X109100400Y-91671818D01*
X109074873Y-91656222D01*
X109048610Y-91641896D01*
X109021635Y-91628917D01*
X108994076Y-91617309D01*
X108965958Y-91607073D01*
X108937383Y-91598259D01*
X108908376Y-91590868D01*
X108879064Y-91584949D01*
X108849473Y-91580479D01*
X108819704Y-91577507D01*
X108789834Y-91576009D01*
X108759913Y-91576009D01*
X108730042Y-91577507D01*
X108700273Y-91580479D01*
X108670682Y-91584949D01*
X108641371Y-91590868D01*
X108612364Y-91598259D01*
X108583789Y-91607073D01*
X108555671Y-91617309D01*
X108528112Y-91628917D01*
X108501137Y-91641896D01*
X108474873Y-91656222D01*
X108449346Y-91671818D01*
X108424632Y-91688658D01*
X108400781Y-91706743D01*
X108377871Y-91725971D01*
X108355925Y-91746316D01*
X108335046Y-91767728D01*
X108315234Y-91790156D01*
X108296590Y-91813550D01*
X108279141Y-91837832D01*
X108262910Y-91862978D01*
X108247949Y-91888886D01*
X108234284Y-91915506D01*
X108221990Y-91942760D01*
X108211068Y-91970624D01*
X108201518Y-91998970D01*
X108193415Y-92027774D01*
X108186761Y-92056933D01*
X108181579Y-92086397D01*
X108177845Y-92116090D01*
X108175610Y-92145935D01*
X108174873Y-92175831D01*
X108174873Y-92775831D01*
X108175610Y-92805727D01*
X108177845Y-92835572D01*
X108181579Y-92865264D01*
X108186761Y-92894728D01*
X108193415Y-92923888D01*
X108201518Y-92952691D01*
X108211068Y-92981038D01*
X108221990Y-93008902D01*
X108234284Y-93036156D01*
X108247949Y-93062775D01*
X108262910Y-93088683D01*
X108279141Y-93113829D01*
X108296590Y-93138112D01*
X108315234Y-93161505D01*
X108335046Y-93183933D01*
X108355925Y-93205346D01*
X108377871Y-93225691D01*
X108400781Y-93244919D01*
X108424632Y-93263004D01*
X108449346Y-93279844D01*
X108474873Y-93295440D01*
X108501137Y-93309765D01*
X108528112Y-93322745D01*
X108555671Y-93334353D01*
X108583789Y-93344589D01*
X108612364Y-93353403D01*
X108641371Y-93360794D01*
X108670682Y-93366712D01*
X108700273Y-93371183D01*
X108730042Y-93374154D01*
G36*
X108819704Y-91577507D02*
G01*
X108849473Y-91580479D01*
X108879064Y-91584949D01*
X108908376Y-91590868D01*
X108937383Y-91598259D01*
X108965958Y-91607073D01*
X108994076Y-91617309D01*
X109021635Y-91628917D01*
X109048610Y-91641896D01*
X109074873Y-91656222D01*
X109100400Y-91671818D01*
X109125115Y-91688658D01*
X109148965Y-91706743D01*
X109171876Y-91725971D01*
X109193822Y-91746316D01*
X109214701Y-91767728D01*
X109234513Y-91790156D01*
X109253156Y-91813550D01*
X109270606Y-91837832D01*
X109286837Y-91862978D01*
X109301797Y-91888886D01*
X109315463Y-91915506D01*
X109327756Y-91942760D01*
X109338678Y-91970624D01*
X109348229Y-91998970D01*
X109356331Y-92027774D01*
X109362986Y-92056933D01*
X109368168Y-92086397D01*
X109371902Y-92116090D01*
X109374137Y-92145935D01*
X109374873Y-92175831D01*
X109374873Y-92775831D01*
X109374137Y-92805727D01*
X109371902Y-92835572D01*
X109368168Y-92865264D01*
X109362986Y-92894728D01*
X109356331Y-92923888D01*
X109348229Y-92952691D01*
X109338678Y-92981038D01*
X109327756Y-93008902D01*
X109315463Y-93036156D01*
X109301797Y-93062775D01*
X109286837Y-93088683D01*
X109270606Y-93113829D01*
X109253156Y-93138112D01*
X109234513Y-93161505D01*
X109214701Y-93183933D01*
X109193822Y-93205346D01*
X109171876Y-93225691D01*
X109148965Y-93244919D01*
X109125115Y-93263004D01*
X109100400Y-93279844D01*
X109074873Y-93295440D01*
X109048610Y-93309765D01*
X109021635Y-93322745D01*
X108994076Y-93334353D01*
X108965958Y-93344589D01*
X108937383Y-93353403D01*
X108908376Y-93360794D01*
X108879064Y-93366712D01*
X108849473Y-93371183D01*
X108819704Y-93374154D01*
X108789834Y-93375653D01*
X108759913Y-93375653D01*
X108730042Y-93374154D01*
X108700273Y-93371183D01*
X108670682Y-93366712D01*
X108641371Y-93360794D01*
X108612364Y-93353403D01*
X108583789Y-93344589D01*
X108555671Y-93334353D01*
X108528112Y-93322745D01*
X108501137Y-93309765D01*
X108474873Y-93295440D01*
X108449346Y-93279844D01*
X108424632Y-93263004D01*
X108400781Y-93244919D01*
X108377871Y-93225691D01*
X108355925Y-93205346D01*
X108335046Y-93183933D01*
X108315234Y-93161505D01*
X108296590Y-93138112D01*
X108279141Y-93113829D01*
X108262910Y-93088683D01*
X108247949Y-93062775D01*
X108234284Y-93036156D01*
X108221990Y-93008902D01*
X108211068Y-92981038D01*
X108201518Y-92952691D01*
X108193415Y-92923888D01*
X108186761Y-92894728D01*
X108181579Y-92865264D01*
X108177845Y-92835572D01*
X108175610Y-92805727D01*
X108174873Y-92775831D01*
X108174873Y-92175831D01*
X108175610Y-92145935D01*
X108177845Y-92116090D01*
X108181579Y-92086397D01*
X108186761Y-92056933D01*
X108193415Y-92027774D01*
X108201518Y-91998970D01*
X108211068Y-91970624D01*
X108221990Y-91942760D01*
X108234284Y-91915506D01*
X108247949Y-91888886D01*
X108262910Y-91862978D01*
X108279141Y-91837832D01*
X108296590Y-91813550D01*
X108315234Y-91790156D01*
X108335046Y-91767728D01*
X108355925Y-91746316D01*
X108377871Y-91725971D01*
X108400781Y-91706743D01*
X108424632Y-91688658D01*
X108449346Y-91671818D01*
X108474873Y-91656222D01*
X108501137Y-91641896D01*
X108528112Y-91628917D01*
X108555671Y-91617309D01*
X108583789Y-91607073D01*
X108612364Y-91598259D01*
X108641371Y-91590868D01*
X108670682Y-91584949D01*
X108700273Y-91580479D01*
X108730042Y-91577507D01*
X108759913Y-91576009D01*
X108789834Y-91576009D01*
X108819704Y-91577507D01*
G37*
%TD*%
D11*
%TO.C,U7*%
X119187494Y-94224999D03*
X119187494Y-94874999D03*
X119187494Y-95524999D03*
X120862494Y-95524999D03*
X120862494Y-94874999D03*
X120862494Y-94224999D03*
%TD*%
D12*
%TO.C,U15*%
X110509988Y-120209998D03*
X109509988Y-120209998D03*
X110009988Y-121689998D03*
D13*
X110009988Y-120949998D03*
%TD*%
D14*
%TO.C,C3*%
X138399994Y-102974999D03*
X136499994Y-102974999D03*
%TD*%
%TO.C,C5*%
X95274994Y-101224999D03*
X93374994Y-101224999D03*
%TD*%
%TO.C,C2*%
X138399994Y-100999999D03*
X136499994Y-100999999D03*
%TD*%
D15*
%TO.C,R26*%
X87704995Y-110894999D03*
X87704995Y-111914999D03*
%TD*%
D16*
%TO.C,C50*%
X106909994Y-138494999D03*
X106909994Y-136944999D03*
%TD*%
D17*
%TO.C,R9*%
X128539994Y-103374999D03*
X129559994Y-103374999D03*
%TD*%
D15*
%TO.C,R14*%
X121724994Y-126739999D03*
X121724994Y-127759999D03*
%TD*%
D18*
%TO.C,C14*%
X135274956Y-104533990D03*
X135274956Y-105493990D03*
%TD*%
D19*
%TO.C,R29*%
X90039994Y-118910000D03*
X89019994Y-118909998D03*
%TD*%
D20*
%TO.C,C53*%
X129959994Y-137969999D03*
X128999994Y-137969999D03*
%TD*%
D15*
%TO.C,R21*%
X123174996Y-139415000D03*
X123174992Y-140434998D03*
%TD*%
D19*
%TO.C,R18*%
X104899993Y-95024998D03*
X103879995Y-95025002D03*
%TD*%
D16*
%TO.C,C38*%
X106909988Y-119444998D03*
X106909988Y-117894998D03*
%TD*%
D18*
%TO.C,C44*%
X136359994Y-124219999D03*
X136359994Y-125179999D03*
%TD*%
D21*
%TO.C,L1*%
X126818147Y-109618152D03*
X127931841Y-110731846D03*
%TD*%
D22*
%TO.C,SW4*%
X120459994Y-118409999D03*
X107009994Y-115869999D03*
%TD*%
D15*
%TO.C,R16*%
X124174996Y-139415000D03*
X124174992Y-140434998D03*
%TD*%
D23*
%TO.C,U8*%
X94799956Y-106730484D03*
X92900032Y-106730486D03*
X93849994Y-109200640D03*
%TD*%
D24*
%TO.C,U10*%
X118520782Y-112034212D03*
X118803660Y-111751334D03*
X119086539Y-111468455D03*
X119369238Y-111185756D03*
X119652116Y-110902878D03*
X119934995Y-110619999D03*
X120217874Y-110337120D03*
X120500753Y-110054241D03*
X120783451Y-109771543D03*
X121066330Y-109488664D03*
X121349209Y-109205785D03*
X121632088Y-108922906D03*
X121914966Y-108640028D03*
X122197665Y-108357329D03*
X122480544Y-108074450D03*
X122763422Y-107791572D03*
D25*
X122763422Y-106193442D03*
X122480544Y-105910564D03*
X122197665Y-105627685D03*
X121914966Y-105344986D03*
X121632088Y-105062108D03*
X121349209Y-104779229D03*
X121066330Y-104496350D03*
X120783451Y-104213471D03*
X120500753Y-103930773D03*
X120217874Y-103647894D03*
X119934995Y-103365015D03*
X119652116Y-103082136D03*
X119369238Y-102799258D03*
X119086539Y-102516559D03*
X118803660Y-102233680D03*
X118520782Y-101950802D03*
D24*
X116922652Y-101950802D03*
X116639774Y-102233680D03*
X116356895Y-102516559D03*
X116074196Y-102799258D03*
X115791318Y-103082136D03*
X115508439Y-103365015D03*
X115225560Y-103647894D03*
X114942681Y-103930773D03*
X114659983Y-104213471D03*
X114377104Y-104496350D03*
X114094225Y-104779229D03*
X113811346Y-105062108D03*
X113528468Y-105344986D03*
X113245769Y-105627685D03*
X112962890Y-105910564D03*
X112680012Y-106193442D03*
D25*
X112680012Y-107791572D03*
X112962890Y-108074450D03*
X113245769Y-108357329D03*
X113528468Y-108640028D03*
X113811346Y-108922906D03*
X114094225Y-109205785D03*
X114377104Y-109488664D03*
X114659983Y-109771543D03*
X114942681Y-110054241D03*
X115225560Y-110337120D03*
X115508439Y-110619999D03*
X115791318Y-110902878D03*
X116074196Y-111185756D03*
X116356895Y-111468455D03*
X116639774Y-111751334D03*
X116922652Y-112034212D03*
%TD*%
D19*
%TO.C,R5*%
X118159994Y-100624998D03*
X117139994Y-100625000D03*
%TD*%
D26*
%TO.C,R23*%
X132349560Y-113290371D03*
X132349564Y-112270373D03*
%TD*%
D27*
%TO.C,C15*%
X96469994Y-99399999D03*
X97429994Y-99399999D03*
%TD*%
D17*
%TO.C,R1*%
X135389994Y-94124999D03*
X136409994Y-94124999D03*
%TD*%
D28*
%TO.C,J1*%
X131299892Y-97424091D03*
D29*
X130500045Y-97424091D03*
D30*
X129349930Y-97424091D03*
X128349930Y-97424091D03*
X127850058Y-97424091D03*
X126850312Y-97424091D03*
D31*
X124899842Y-97424091D03*
X125699689Y-97424091D03*
D30*
X126349930Y-97424091D03*
X127349930Y-97424091D03*
X128850058Y-97424091D03*
X129850058Y-97424091D03*
%TD*%
D32*
%TO.C,C26*%
X113860583Y-103039410D03*
X114539405Y-102360588D03*
%TD*%
D33*
%TO.C,U24*%
X129450102Y-145805044D03*
X129450102Y-144354956D03*
X134849898Y-144354956D03*
X134849898Y-145805044D03*
%TD*%
D17*
%TO.C,R3*%
X133514994Y-95100000D03*
X134534994Y-95099998D03*
%TD*%
D34*
%TO.C,U1*%
X133074994Y-101637499D03*
X134024994Y-101637499D03*
X134974994Y-101637499D03*
X134974994Y-99362499D03*
X134024994Y-99362499D03*
X133074994Y-99362499D03*
%TD*%
D16*
%TO.C,C54*%
X125959994Y-138494999D03*
X125959994Y-136944999D03*
%TD*%
D17*
%TO.C,R13*%
X128289994Y-98949999D03*
X129309994Y-98949999D03*
%TD*%
D19*
%TO.C,R32*%
X90039994Y-137959999D03*
X89019994Y-137959999D03*
%TD*%
D27*
%TO.C,C51*%
X108349994Y-141449999D03*
X109309994Y-141449999D03*
%TD*%
D20*
%TO.C,C33*%
X91859994Y-118919999D03*
X90899994Y-118919999D03*
%TD*%
D35*
%TO.C,R25*%
X115439369Y-100064375D03*
X116160619Y-100785623D03*
%TD*%
D28*
%TO.C,J2*%
X101299892Y-97424091D03*
D29*
X100500045Y-97424091D03*
D30*
X99349930Y-97424091D03*
X98349930Y-97424091D03*
X97850058Y-97424091D03*
X96850312Y-97424091D03*
D31*
X94899842Y-97424091D03*
X95699689Y-97424091D03*
D30*
X96349930Y-97424091D03*
X97349930Y-97424091D03*
X98850058Y-97424091D03*
X99850058Y-97424091D03*
%TD*%
D36*
%TO.C,U2*%
X122077494Y-93224999D03*
X122077494Y-92574999D03*
X122077494Y-91924999D03*
X120402494Y-91924999D03*
X120402494Y-92574999D03*
X120402494Y-93224999D03*
%TD*%
D27*
%TO.C,C39*%
X108349988Y-122399998D03*
X109309988Y-122399998D03*
%TD*%
D22*
%TO.C,SW3*%
X101410000Y-118410000D03*
X87960000Y-115870000D03*
%TD*%
D27*
%TO.C,C43*%
X127399994Y-122399999D03*
X128359994Y-122399999D03*
%TD*%
D22*
%TO.C,SW6*%
X101410000Y-137460000D03*
X87960000Y-134920000D03*
%TD*%
D37*
%TO.C,U12*%
X88498950Y-92850101D03*
X89949038Y-92850101D03*
X89949038Y-98249897D03*
X88498950Y-98249897D03*
%TD*%
D34*
%TO.C,U5*%
X97149995Y-103112499D03*
X98099994Y-103112499D03*
X99049993Y-103112499D03*
X99049993Y-100837499D03*
X98099994Y-100837499D03*
X97149995Y-100837499D03*
%TD*%
D26*
%TO.C,R28*%
X100174995Y-109434999D03*
X100174993Y-108414999D03*
%TD*%
D18*
%TO.C,C56*%
X136359994Y-143269999D03*
X136359994Y-144229999D03*
%TD*%
D20*
%TO.C,C45*%
X91859994Y-137969999D03*
X90899994Y-137969999D03*
%TD*%
D38*
%TO.C,SW1*%
X88650083Y-110099859D03*
X88650085Y-111800140D03*
X91749903Y-110099858D03*
X91749905Y-111800139D03*
D39*
X88499967Y-110949999D03*
X91900021Y-110949999D03*
%TD*%
D17*
%TO.C,R19*%
X106304994Y-95024997D03*
X107324994Y-95024999D03*
%TD*%
D16*
%TO.C,C42*%
X125959994Y-119444999D03*
X125959994Y-117894999D03*
%TD*%
D17*
%TO.C,R10*%
X117414995Y-99625001D03*
X118434993Y-99624997D03*
%TD*%
D40*
%TO.C,C31*%
X120271802Y-115618908D03*
X119592980Y-114940086D03*
%TD*%
D22*
%TO.C,SW8*%
X139510000Y-137460000D03*
X126060000Y-134920000D03*
%TD*%
D27*
%TO.C,C8*%
X117419994Y-98424999D03*
X118379994Y-98424999D03*
%TD*%
%TO.C,C55*%
X127399994Y-141449999D03*
X128359994Y-141449999D03*
%TD*%
D26*
%TO.C,R15*%
X123199993Y-138559999D03*
X123199995Y-137539999D03*
%TD*%
D14*
%TO.C,C6*%
X95274995Y-99249998D03*
X93374995Y-99249998D03*
%TD*%
D18*
%TO.C,C18*%
X108574995Y-99919998D03*
X108574995Y-100879998D03*
%TD*%
D41*
%TO.C,C7*%
X119699994Y-97049999D03*
X121599994Y-97049999D03*
%TD*%
D17*
%TO.C,R4*%
X130589994Y-102399999D03*
X131609994Y-102399999D03*
%TD*%
D19*
%TO.C,R31*%
X128139994Y-118909999D03*
X127119994Y-118909999D03*
%TD*%
D42*
%TO.C,U4*%
X134900007Y-111575998D03*
X135549995Y-111575998D03*
X136199982Y-111575998D03*
X136849969Y-111575998D03*
X137499957Y-111575998D03*
D43*
X138668613Y-110407596D03*
X138668613Y-109757608D03*
X138668613Y-109107621D03*
X138668613Y-108457634D03*
X138668613Y-107807646D03*
D42*
X137499957Y-106638990D03*
X136849969Y-106638990D03*
X136199982Y-106638990D03*
X135549995Y-106638990D03*
X134900007Y-106638990D03*
D43*
X133731605Y-107807646D03*
X133731605Y-108457634D03*
X133731605Y-109107621D03*
X133731605Y-109757608D03*
X133731605Y-110407596D03*
D44*
X136199982Y-109107621D03*
%TD*%
D22*
%TO.C,SW7*%
X120460000Y-137460000D03*
X107010000Y-134920000D03*
%TD*%
D18*
%TO.C,C52*%
X117309994Y-143269999D03*
X117309994Y-144229999D03*
%TD*%
D45*
%TO.C,C22*%
X124960583Y-109435588D03*
X125639405Y-110114410D03*
%TD*%
D19*
%TO.C,R17*%
X104899994Y-94050001D03*
X103879994Y-94049999D03*
%TD*%
D46*
%TO.C,D1*%
X91524994Y-98299999D03*
X91524994Y-100799999D03*
%TD*%
D27*
%TO.C,C35*%
X89299994Y-122399999D03*
X90259994Y-122399999D03*
%TD*%
D19*
%TO.C,R34*%
X128139994Y-137959999D03*
X127119994Y-137959999D03*
%TD*%
D20*
%TO.C,C49*%
X110909994Y-137969999D03*
X109949994Y-137969999D03*
%TD*%
D12*
%TO.C,U23*%
X129559994Y-139259999D03*
X128559994Y-139259999D03*
X129059994Y-140739999D03*
D13*
X129059994Y-139999999D03*
%TD*%
D15*
%TO.C,R2*%
X134524994Y-96014999D03*
X134524994Y-97034999D03*
%TD*%
D18*
%TO.C,C48*%
X98259994Y-143269999D03*
X98259994Y-144229999D03*
%TD*%
D14*
%TO.C,C9*%
X138274996Y-113224996D03*
X136374996Y-113224996D03*
%TD*%
D19*
%TO.C,R11*%
X124784994Y-99650000D03*
X123764994Y-99649998D03*
%TD*%
D20*
%TO.C,C37*%
X110909988Y-118919998D03*
X109949988Y-118919998D03*
%TD*%
D47*
%TO.C,C10*%
X129424994Y-100624999D03*
X129424994Y-102174999D03*
%TD*%
D18*
%TO.C,C19*%
X92749995Y-104685562D03*
X92749995Y-105645562D03*
%TD*%
D27*
%TO.C,C47*%
X89299994Y-141449999D03*
X90259994Y-141449999D03*
%TD*%
D15*
%TO.C,R27*%
X91874995Y-92414999D03*
X91874993Y-93434999D03*
%TD*%
D18*
%TO.C,C40*%
X117309988Y-124219998D03*
X117309988Y-125179998D03*
%TD*%
D22*
%TO.C,SW5*%
X139510000Y-118410000D03*
X126060000Y-115870000D03*
%TD*%
D20*
%TO.C,C41*%
X129959994Y-118919999D03*
X128999994Y-118919999D03*
%TD*%
D33*
%TO.C,U14*%
X91350102Y-126755044D03*
X91350102Y-125304956D03*
X96749898Y-125304956D03*
X96749898Y-126755044D03*
%TD*%
D16*
%TO.C,C46*%
X87859994Y-138494999D03*
X87859994Y-136944999D03*
%TD*%
D48*
%TO.C,C28*%
X129857150Y-108329999D03*
X129857150Y-107369999D03*
%TD*%
D19*
%TO.C,R24*%
X98168426Y-109364626D03*
X97148426Y-109364624D03*
%TD*%
D33*
%TO.C,U18*%
X129450102Y-126755044D03*
X129450102Y-125304956D03*
X134849898Y-125304956D03*
X134849898Y-126755044D03*
%TD*%
D49*
%TO.C,C24*%
X115949995Y-113399999D03*
X114399993Y-113399999D03*
%TD*%
D17*
%TO.C,R6*%
X123764995Y-100624997D03*
X124784993Y-100625001D03*
%TD*%
D33*
%TO.C,U16*%
X110400096Y-126755043D03*
X110400096Y-125304955D03*
X115799892Y-125304955D03*
X115799892Y-126755043D03*
%TD*%
D48*
%TO.C,C27*%
X117124994Y-113904999D03*
X117124994Y-112944999D03*
%TD*%
D50*
%TO.C,C12*%
X126824994Y-99974999D03*
X126824994Y-101874999D03*
%TD*%
D48*
%TO.C,C17*%
X108574994Y-103179999D03*
X108574994Y-102219999D03*
%TD*%
D51*
%TO.C,X1*%
X121662587Y-114786782D03*
X123218329Y-113231040D03*
X121980847Y-111993558D03*
X120425105Y-113549300D03*
%TD*%
D19*
%TO.C,R30*%
X109089988Y-118909998D03*
X108069988Y-118909998D03*
%TD*%
D52*
%TO.C,J4*%
X121150121Y-142199999D03*
X122150121Y-142199999D03*
X123150121Y-142199999D03*
X124150121Y-142199999D03*
D53*
X125450096Y-146199999D03*
X119849892Y-146199999D03*
%TD*%
D12*
%TO.C,U19*%
X91459994Y-139259999D03*
X90459994Y-139259999D03*
X90959994Y-140739999D03*
D13*
X90959994Y-139999999D03*
%TD*%
D54*
%TO.C,LED1*%
X134999664Y-113180372D03*
X133399460Y-113180372D03*
%TD*%
D14*
%TO.C,C4*%
X95274996Y-103199999D03*
X93374996Y-103199999D03*
%TD*%
D18*
%TO.C,C36*%
X98259994Y-124219999D03*
X98259994Y-125179999D03*
%TD*%
D55*
%TO.C,U3*%
X119874981Y-98589083D03*
X119874981Y-99539045D03*
X119874981Y-100489007D03*
X122575007Y-100489007D03*
X122575007Y-99539045D03*
X122575007Y-98589083D03*
%TD*%
D26*
%TO.C,R22*%
X124159994Y-138559999D03*
X124159996Y-137539999D03*
%TD*%
D17*
%TO.C,R20*%
X106304994Y-94049999D03*
X107324994Y-94049997D03*
%TD*%
D54*
%TO.C,LED2*%
X96350324Y-108094627D03*
X97950528Y-108094627D03*
%TD*%
D14*
%TO.C,C13*%
X138424994Y-104949999D03*
X136524994Y-104949999D03*
%TD*%
%TO.C,C1*%
X138399994Y-99024999D03*
X136499994Y-99024999D03*
%TD*%
D19*
%TO.C,R12*%
X127434994Y-98749999D03*
X126414994Y-98749999D03*
%TD*%
D33*
%TO.C,U22*%
X110400102Y-145805044D03*
X110400102Y-144354956D03*
X115799898Y-144354956D03*
X115799898Y-145805044D03*
%TD*%
D40*
%TO.C,C32*%
X124034960Y-111855749D03*
X123356138Y-111176927D03*
%TD*%
D48*
%TO.C,C25*%
X118049994Y-113929999D03*
X118049994Y-112969999D03*
%TD*%
D28*
%TO.C,J3*%
X116299892Y-97424091D03*
D29*
X115500045Y-97424091D03*
D30*
X114349930Y-97424091D03*
X113349930Y-97424091D03*
X112850058Y-97424091D03*
X111850312Y-97424091D03*
D31*
X109899842Y-97424091D03*
X110699689Y-97424091D03*
D30*
X111349930Y-97424091D03*
X112349930Y-97424091D03*
X113850058Y-97424091D03*
X114850058Y-97424091D03*
%TD*%
D14*
%TO.C,C20*%
X95949994Y-105165563D03*
X94049994Y-105165563D03*
%TD*%
D16*
%TO.C,C34*%
X87859994Y-119445000D03*
X87859994Y-117894998D03*
%TD*%
D18*
%TO.C,C30*%
X105274994Y-108444999D03*
X105274994Y-109404999D03*
%TD*%
D20*
%TO.C,C16*%
X99729995Y-99399998D03*
X98769995Y-99399998D03*
%TD*%
D17*
%TO.C,R7*%
X133514994Y-94125000D03*
X134534994Y-94124998D03*
%TD*%
D18*
%TO.C,C29*%
X91849994Y-96144999D03*
X91849994Y-97104999D03*
%TD*%
D20*
%TO.C,C11*%
X124729994Y-98674999D03*
X123769994Y-98674999D03*
%TD*%
D33*
%TO.C,U20*%
X91350102Y-145805044D03*
X91350102Y-144354956D03*
X96749898Y-144354956D03*
X96749898Y-145805044D03*
%TD*%
D38*
%TO.C,SW2*%
X104274905Y-109400139D03*
X104274903Y-107699858D03*
X101175085Y-109400140D03*
X101175083Y-107699859D03*
D39*
X104425021Y-108549999D03*
X101024967Y-108549999D03*
%TD*%
D41*
%TO.C,C21*%
X93749996Y-110665564D03*
X95649996Y-110665564D03*
%TD*%
D56*
%TO.C,U6*%
X112312494Y-102499999D03*
X112312494Y-101549999D03*
X112312494Y-100599999D03*
X110037494Y-100599999D03*
X110037494Y-101549999D03*
X110037494Y-102499999D03*
%TD*%
D57*
%TO.C,U11*%
X128250197Y-106217500D03*
D58*
X127850146Y-106167385D03*
X127450350Y-106167385D03*
X127050299Y-106167385D03*
D59*
X126418346Y-106400050D03*
X126417838Y-106800101D03*
X126417838Y-107199897D03*
X126417838Y-107599948D03*
D58*
X127050299Y-107832613D03*
X127450350Y-107832613D03*
X127850146Y-107832613D03*
X128250197Y-107832613D03*
D59*
X128882150Y-107599948D03*
X128882150Y-107199897D03*
X128882150Y-106800101D03*
X128882150Y-106400050D03*
%TD*%
D34*
%TO.C,U9*%
X120774994Y-133062499D03*
X121724994Y-133062499D03*
X122674994Y-133062499D03*
X122674994Y-130787499D03*
X121724994Y-130787499D03*
X120774994Y-130787499D03*
%TD*%
D19*
%TO.C,R33*%
X109089994Y-137959999D03*
X108069994Y-137959999D03*
%TD*%
D12*
%TO.C,U13*%
X91459994Y-120209999D03*
X90459994Y-120209999D03*
X90959994Y-121689999D03*
D13*
X90959994Y-120949999D03*
%TD*%
D12*
%TO.C,U17*%
X129559994Y-120209999D03*
X128559994Y-120209999D03*
X129059994Y-121689999D03*
D13*
X129059994Y-120949999D03*
%TD*%
D19*
%TO.C,R8*%
X131459994Y-103375000D03*
X130439994Y-103374998D03*
%TD*%
D12*
%TO.C,U21*%
X110509994Y-139259999D03*
X109509994Y-139259999D03*
X110009994Y-140739999D03*
D13*
X110009994Y-139999999D03*
%TD*%
D40*
%TO.C,C23*%
X124489405Y-110339410D03*
X123810583Y-109660588D03*
%TD*%
M02*
