%TF.GenerationSoftware,KiCad,Pcbnew,10.99.0-unknown*%
%TF.CreationDate,2026-08-01T02:02:08-06:00*%
%TF.ProjectId,TMR2615F_osu_pad,544d5232-3631-4354-965f-6f73755f7061,rev?*%
%TF.SameCoordinates,Original*%
%TF.FileFunction,Soldermask,Bot*%
%TF.FilePolarity,Negative*%
%FSLAX46Y46*%
G04 Gerber Fmt 4.6, Leading zero omitted, Abs format (unit mm)*
G04 Created by KiCad (PCBNEW 10.99.0-unknown) date 2026-08-01 02:02:08*
%MOMM*%
%LPD*%
G01*
G04 APERTURE LIST*
%ADD10C,0.000000*%
%ADD11C,0.700000*%
%ADD12C,4.400000*%
%ADD13C,1.750000*%
%ADD14C,3.987800*%
%ADD15C,3.300000*%
%ADD16R,1.700000X1.700000*%
%ADD17C,1.700000*%
%ADD18C,0.750013*%
%ADD19O,1.200000X2.000000*%
%ADD20O,1.200000X1.800000*%
%ADD21C,1.000000*%
%ADD22C,0.990600*%
%ADD23C,0.787400*%
G04 APERTURE END LIST*
D10*
%TO.C,G\u002A\u002A\u002A*%
G36*
X113149975Y-148966497D02*
G01*
X113158587Y-148971180D01*
X113161021Y-148972429D01*
X113175385Y-148981792D01*
X113186678Y-148993192D01*
X113195364Y-149007085D01*
X113198024Y-149012725D01*
X113199965Y-149017969D01*
X113201046Y-149023307D01*
X113201514Y-149030012D01*
X113201615Y-149039355D01*
X113201583Y-149044885D01*
X113201265Y-149052937D01*
X113200430Y-149059000D01*
X113198866Y-149064325D01*
X113196357Y-149070162D01*
X113192101Y-149077713D01*
X113182959Y-149089214D01*
X113171871Y-149099203D01*
X113160026Y-149106493D01*
X113148808Y-149111750D01*
X112996256Y-149112308D01*
X112992912Y-149112320D01*
X112964151Y-149112414D01*
X112938879Y-149112470D01*
X112916715Y-149112483D01*
X112897276Y-149112447D01*
X112880183Y-149112356D01*
X112865053Y-149112203D01*
X112851506Y-149111982D01*
X112839159Y-149111688D01*
X112827632Y-149111314D01*
X112816544Y-149110855D01*
X112805512Y-149110304D01*
X112794157Y-149109655D01*
X112782095Y-149108902D01*
X112776802Y-149108561D01*
X112760827Y-149107536D01*
X112745515Y-149106557D01*
X112731515Y-149105664D01*
X112719474Y-149104900D01*
X112710041Y-149104305D01*
X112703863Y-149103921D01*
X112689875Y-149103064D01*
X112652974Y-149100779D01*
X112619914Y-149098695D01*
X112590646Y-149096810D01*
X112565121Y-149095120D01*
X112543290Y-149093621D01*
X112525106Y-149092310D01*
X112510520Y-149091184D01*
X112499482Y-149090241D01*
X112496205Y-149089940D01*
X112472806Y-149087828D01*
X112450543Y-149085895D01*
X112428956Y-149084112D01*
X112407588Y-149082446D01*
X112385981Y-149080869D01*
X112363674Y-149079350D01*
X112340211Y-149077858D01*
X112315132Y-149076364D01*
X112287979Y-149074836D01*
X112258293Y-149073245D01*
X112225615Y-149071560D01*
X112189487Y-149069752D01*
X112189088Y-149069732D01*
X112175723Y-149069061D01*
X112162587Y-149068383D01*
X112150599Y-149067748D01*
X112140679Y-149067205D01*
X112133747Y-149066802D01*
X112132160Y-149066707D01*
X112124487Y-149066279D01*
X112113999Y-149065728D01*
X112101541Y-149065097D01*
X112087958Y-149064429D01*
X112074095Y-149063766D01*
X112070057Y-149063564D01*
X112053741Y-149062560D01*
X112035262Y-149061192D01*
X112015957Y-149059571D01*
X111997163Y-149057807D01*
X111980217Y-149056011D01*
X111967788Y-149054601D01*
X111948011Y-149052404D01*
X111929880Y-149050475D01*
X111912998Y-149048796D01*
X111896969Y-149047349D01*
X111881395Y-149046116D01*
X111865880Y-149045078D01*
X111850025Y-149044218D01*
X111833435Y-149043517D01*
X111815713Y-149042957D01*
X111796460Y-149042521D01*
X111775281Y-149042190D01*
X111751779Y-149041945D01*
X111725556Y-149041769D01*
X111696215Y-149041644D01*
X111663359Y-149041552D01*
X111513758Y-149041198D01*
X111502444Y-149036703D01*
X111491078Y-149030580D01*
X111479898Y-149021693D01*
X111470096Y-149011122D01*
X111462816Y-148999933D01*
X111460193Y-148994422D01*
X111458505Y-148989612D01*
X111457557Y-148984374D01*
X111457141Y-148977546D01*
X111457046Y-148967968D01*
X111457047Y-148966250D01*
X111457161Y-148957254D01*
X111457634Y-148950765D01*
X111458698Y-148945570D01*
X111460585Y-148940455D01*
X111463530Y-148934206D01*
X111463935Y-148933398D01*
X111472760Y-148920153D01*
X111485049Y-148907937D01*
X111500450Y-148897003D01*
X111501205Y-148896612D01*
X111864406Y-148896612D01*
X111898353Y-148898843D01*
X111905695Y-148899349D01*
X111918346Y-148900319D01*
X111930322Y-148901348D01*
X111940548Y-148902342D01*
X111947946Y-148903204D01*
X111963355Y-148905210D01*
X111980294Y-148907197D01*
X111998049Y-148909041D01*
X112017061Y-148910778D01*
X112037773Y-148912444D01*
X112060627Y-148914074D01*
X112086064Y-148915704D01*
X112114528Y-148917368D01*
X112146460Y-148919102D01*
X112157325Y-148919675D01*
X112179310Y-148920834D01*
X112200952Y-148921977D01*
X112221742Y-148923077D01*
X112241172Y-148924106D01*
X112258732Y-148925037D01*
X112273912Y-148925844D01*
X112286205Y-148926499D01*
X112295101Y-148926976D01*
X112307694Y-148927667D01*
X112328562Y-148928856D01*
X112349545Y-148930105D01*
X112370069Y-148931374D01*
X112389560Y-148932627D01*
X112407443Y-148933826D01*
X112423143Y-148934935D01*
X112436086Y-148935917D01*
X112445697Y-148936733D01*
X112461116Y-148938154D01*
X112477824Y-148939659D01*
X112494156Y-148941086D01*
X112510419Y-148942455D01*
X112526917Y-148943789D01*
X112543958Y-148945108D01*
X112561846Y-148946433D01*
X112580887Y-148947787D01*
X112601387Y-148949189D01*
X112623653Y-148950662D01*
X112647989Y-148952227D01*
X112674701Y-148953905D01*
X112704096Y-148955717D01*
X112736479Y-148957684D01*
X112772156Y-148959828D01*
X112811432Y-148962171D01*
X112818962Y-148962607D01*
X112835805Y-148963497D01*
X112850944Y-148964177D01*
X112864012Y-148964637D01*
X112874643Y-148964868D01*
X112882470Y-148964861D01*
X112887128Y-148964607D01*
X112888250Y-148964096D01*
X112885925Y-148962259D01*
X112878465Y-148956968D01*
X112868041Y-148950111D01*
X112854983Y-148941884D01*
X112839621Y-148932484D01*
X112822285Y-148922107D01*
X112803305Y-148910950D01*
X112783012Y-148899210D01*
X112761735Y-148887084D01*
X112739806Y-148874767D01*
X112717554Y-148862457D01*
X112700182Y-148852926D01*
X112680664Y-148842223D01*
X112661494Y-148831715D01*
X112644211Y-148822248D01*
X112642728Y-148821431D01*
X112636815Y-148818136D01*
X112628122Y-148813262D01*
X112617092Y-148807058D01*
X112604170Y-148799776D01*
X112589800Y-148791665D01*
X112574428Y-148782976D01*
X112558497Y-148773959D01*
X112557634Y-148773471D01*
X112542667Y-148765088D01*
X112526473Y-148756166D01*
X112509408Y-148746890D01*
X112491832Y-148737445D01*
X112474104Y-148728018D01*
X112456582Y-148718795D01*
X112439624Y-148709961D01*
X112423589Y-148701702D01*
X112408835Y-148694204D01*
X112395722Y-148687652D01*
X112384607Y-148682233D01*
X112375849Y-148678132D01*
X112369806Y-148675535D01*
X112366837Y-148674628D01*
X112366012Y-148674720D01*
X112361424Y-148676128D01*
X112353681Y-148679257D01*
X112342732Y-148684128D01*
X112328531Y-148690764D01*
X112311029Y-148699186D01*
X112290179Y-148709418D01*
X112265932Y-148721481D01*
X112257256Y-148725811D01*
X112241334Y-148733694D01*
X112226192Y-148741085D01*
X112211391Y-148748185D01*
X112196493Y-148755193D01*
X112181057Y-148762309D01*
X112164646Y-148769732D01*
X112146820Y-148777663D01*
X112127139Y-148786299D01*
X112105165Y-148795842D01*
X112080459Y-148806490D01*
X112052581Y-148818443D01*
X112047975Y-148820414D01*
X112030580Y-148827852D01*
X112015603Y-148834240D01*
X112002372Y-148839859D01*
X111990216Y-148844988D01*
X111978464Y-148849908D01*
X111966445Y-148854899D01*
X111953486Y-148860242D01*
X111938918Y-148866216D01*
X111922067Y-148873101D01*
X111902265Y-148881178D01*
X111864406Y-148896612D01*
X111501205Y-148896612D01*
X111518612Y-148887603D01*
X111539183Y-148879988D01*
X111544766Y-148878005D01*
X111554587Y-148873428D01*
X111562776Y-148868324D01*
X111563693Y-148867637D01*
X111568017Y-148864554D01*
X111572662Y-148861567D01*
X111578039Y-148858477D01*
X111584559Y-148855085D01*
X111592634Y-148851189D01*
X111602675Y-148846590D01*
X111615093Y-148841089D01*
X111630301Y-148834485D01*
X111648708Y-148826578D01*
X111649914Y-148826062D01*
X111664265Y-148819900D01*
X111678208Y-148813885D01*
X111691104Y-148808293D01*
X111702316Y-148803403D01*
X111711205Y-148799491D01*
X111717134Y-148796835D01*
X111717367Y-148796729D01*
X111723512Y-148794039D01*
X111732610Y-148790191D01*
X111744015Y-148785452D01*
X111757078Y-148780090D01*
X111771151Y-148774374D01*
X111785587Y-148768569D01*
X111785813Y-148768479D01*
X111819865Y-148754783D01*
X111854259Y-148740804D01*
X111888663Y-148726684D01*
X111922746Y-148712563D01*
X111956174Y-148698584D01*
X111988615Y-148684888D01*
X112019736Y-148671618D01*
X112049207Y-148658914D01*
X112076693Y-148646919D01*
X112101863Y-148635774D01*
X112124384Y-148625621D01*
X112143924Y-148616601D01*
X112160150Y-148608857D01*
X112168025Y-148605010D01*
X112177724Y-148600223D01*
X112184541Y-148596722D01*
X112188863Y-148594243D01*
X112191077Y-148592523D01*
X112191570Y-148591299D01*
X112190728Y-148590308D01*
X112188938Y-148589289D01*
X112187579Y-148588606D01*
X112182618Y-148586215D01*
X112174999Y-148582605D01*
X112165301Y-148578049D01*
X112154108Y-148572821D01*
X112141999Y-148567195D01*
X112137514Y-148565116D01*
X112124362Y-148559012D01*
X112111513Y-148553039D01*
X112099777Y-148547575D01*
X112089968Y-148542999D01*
X112082896Y-148539687D01*
X112072110Y-148534621D01*
X112046251Y-148522508D01*
X112023357Y-148511847D01*
X112003024Y-148502457D01*
X111984846Y-148494161D01*
X111968421Y-148486778D01*
X111953344Y-148480131D01*
X111939211Y-148474040D01*
X111925617Y-148468326D01*
X111912159Y-148462811D01*
X111898432Y-148457315D01*
X111884033Y-148451660D01*
X111883756Y-148451552D01*
X111865315Y-148444277D01*
X111844498Y-148435919D01*
X111822489Y-148426963D01*
X111800475Y-148417893D01*
X111779639Y-148409196D01*
X111761167Y-148401356D01*
X111719804Y-148383696D01*
X111680657Y-148367176D01*
X111644038Y-148351941D01*
X111609445Y-148337786D01*
X111576373Y-148324503D01*
X111544319Y-148311888D01*
X111512780Y-148299734D01*
X111496932Y-148293679D01*
X111480988Y-148287563D01*
X111466028Y-148281802D01*
X111452587Y-148276603D01*
X111441200Y-148272172D01*
X111432401Y-148268716D01*
X111426725Y-148266442D01*
X111406737Y-148258240D01*
X111386898Y-148250078D01*
X111369853Y-148243035D01*
X111355162Y-148236923D01*
X111342381Y-148231552D01*
X111331069Y-148226733D01*
X111320783Y-148222280D01*
X111311080Y-148218002D01*
X111301520Y-148213712D01*
X111291658Y-148209220D01*
X111281054Y-148204339D01*
X111266243Y-148197635D01*
X111238726Y-148185774D01*
X111208648Y-148173470D01*
X111176779Y-148161046D01*
X111162097Y-148155364D01*
X111141108Y-148146827D01*
X111123418Y-148139030D01*
X111108724Y-148131830D01*
X111096724Y-148125084D01*
X111087115Y-148118648D01*
X111086848Y-148118450D01*
X111080002Y-148113570D01*
X111073504Y-148109257D01*
X111068727Y-148106423D01*
X111059138Y-148099711D01*
X111049765Y-148089945D01*
X111041249Y-148078067D01*
X111034150Y-148064973D01*
X111029031Y-148051564D01*
X111026452Y-148038736D01*
X111026711Y-148025413D01*
X111030234Y-148010084D01*
X111036835Y-147995094D01*
X111046163Y-147981220D01*
X111057866Y-147969241D01*
X111068358Y-147960524D01*
X111078663Y-147952377D01*
X111087501Y-147945974D01*
X111095603Y-147940789D01*
X111103697Y-147936299D01*
X111104928Y-147935654D01*
X111113546Y-147930859D01*
X111121970Y-147925765D01*
X111128535Y-147921372D01*
X111132617Y-147918633D01*
X111140313Y-147914002D01*
X111149437Y-147908912D01*
X111158780Y-147904058D01*
X111164394Y-147901226D01*
X111176014Y-147895211D01*
X111187795Y-147888950D01*
X111197896Y-147883416D01*
X111209604Y-147876868D01*
X111220541Y-147870803D01*
X111230174Y-147865551D01*
X111239305Y-147860689D01*
X111248739Y-147855795D01*
X111259278Y-147850449D01*
X111271726Y-147844229D01*
X111286885Y-147836713D01*
X111317831Y-147821909D01*
X111355552Y-147805407D01*
X111391394Y-147791564D01*
X111425747Y-147780221D01*
X111440274Y-147775843D01*
X111463360Y-147768843D01*
X111485741Y-147761992D01*
X111508895Y-147754839D01*
X111534294Y-147746930D01*
X111538003Y-147745779D01*
X111558933Y-147739503D01*
X111582783Y-147732700D01*
X111609780Y-147725307D01*
X111640154Y-147717261D01*
X111674134Y-147708498D01*
X111679126Y-147707257D01*
X111696028Y-147703388D01*
X111716074Y-147699198D01*
X111738713Y-147694781D01*
X111763395Y-147690233D01*
X111789567Y-147685649D01*
X111816680Y-147681124D01*
X111844180Y-147676753D01*
X111871517Y-147672632D01*
X111898141Y-147668854D01*
X111923498Y-147665515D01*
X111926221Y-147665172D01*
X111941643Y-147663246D01*
X111955396Y-147661568D01*
X111967909Y-147660108D01*
X111979613Y-147658837D01*
X111990935Y-147657723D01*
X112002304Y-147656738D01*
X112014150Y-147655851D01*
X112026902Y-147655032D01*
X112040989Y-147654250D01*
X112056839Y-147653476D01*
X112074883Y-147652679D01*
X112095548Y-147651829D01*
X112119264Y-147650896D01*
X112146460Y-147649850D01*
X112153164Y-147649591D01*
X112171888Y-147648843D01*
X112192546Y-147647992D01*
X112213733Y-147647095D01*
X112234044Y-147646213D01*
X112252073Y-147645405D01*
X112258080Y-147645158D01*
X112270775Y-147644761D01*
X112286393Y-147644406D01*
X112305032Y-147644090D01*
X112326791Y-147643815D01*
X112351769Y-147643579D01*
X112380066Y-147643382D01*
X112411779Y-147643222D01*
X112447008Y-147643099D01*
X112485852Y-147643012D01*
X112528410Y-147642960D01*
X112574780Y-147642943D01*
X112843703Y-147642943D01*
X112916068Y-147653213D01*
X112930207Y-147655238D01*
X112948044Y-147657843D01*
X112965343Y-147660420D01*
X112981437Y-147662867D01*
X112995659Y-147665083D01*
X113007340Y-147666967D01*
X113015814Y-147668416D01*
X113027745Y-147670551D01*
X113042720Y-147673207D01*
X113057841Y-147675867D01*
X113071172Y-147678190D01*
X113071453Y-147678239D01*
X113086492Y-147681223D01*
X113102445Y-147685157D01*
X113120190Y-147690275D01*
X113140603Y-147696814D01*
X113143711Y-147697842D01*
X113159140Y-147702827D01*
X113176734Y-147708359D01*
X113195190Y-147714037D01*
X113213202Y-147719457D01*
X113229468Y-147724218D01*
X113238911Y-147726947D01*
X113252142Y-147730822D01*
X113264240Y-147734423D01*
X113274549Y-147737552D01*
X113282409Y-147740012D01*
X113287164Y-147741603D01*
X113290199Y-147742700D01*
X113297153Y-147745189D01*
X113306693Y-147748585D01*
X113318174Y-147752660D01*
X113330953Y-147757186D01*
X113344388Y-147761934D01*
X113360550Y-147767699D01*
X113398947Y-147781918D01*
X113436469Y-147796609D01*
X113473799Y-147812066D01*
X113511615Y-147828582D01*
X113550600Y-147846452D01*
X113591432Y-147865970D01*
X113634794Y-147887431D01*
X113636929Y-147888504D01*
X113654139Y-147897253D01*
X113668802Y-147904947D01*
X113681821Y-147912110D01*
X113694099Y-147919267D01*
X113706539Y-147926943D01*
X113720044Y-147935661D01*
X113735518Y-147945947D01*
X113752935Y-147957741D01*
X113785303Y-147980255D01*
X113816125Y-148002477D01*
X113845078Y-148024158D01*
X113871840Y-148045049D01*
X113896089Y-148064902D01*
X113917502Y-148083468D01*
X113935757Y-148100498D01*
X113938310Y-148103010D01*
X113949039Y-148113870D01*
X113960831Y-148126211D01*
X113973138Y-148139427D01*
X113985414Y-148152912D01*
X113997110Y-148166059D01*
X114007680Y-148178263D01*
X114016575Y-148188916D01*
X114023249Y-148197413D01*
X114034170Y-148212251D01*
X114053195Y-148239052D01*
X114071270Y-148265722D01*
X114088188Y-148291912D01*
X114103744Y-148317272D01*
X114117732Y-148341453D01*
X114129946Y-148364105D01*
X114140182Y-148384879D01*
X114148233Y-148403426D01*
X114153893Y-148419396D01*
X114155652Y-148425183D01*
X114158803Y-148435442D01*
X114162304Y-148446748D01*
X114165670Y-148457534D01*
X114166244Y-148459399D01*
X114168769Y-148468049D01*
X114171990Y-148479592D01*
X114175718Y-148493326D01*
X114179764Y-148508549D01*
X114183938Y-148524559D01*
X114188053Y-148540656D01*
X114197711Y-148581446D01*
X114205910Y-148622525D01*
X114212309Y-148663074D01*
X114217124Y-148704472D01*
X114220570Y-148748099D01*
X114222573Y-148790116D01*
X114223537Y-148840107D01*
X114223185Y-148893760D01*
X114221517Y-148951063D01*
X114218534Y-149012004D01*
X114218189Y-149017147D01*
X114217368Y-149027204D01*
X114216244Y-149039487D01*
X114214879Y-149053440D01*
X114213334Y-149068506D01*
X114211671Y-149084129D01*
X114209951Y-149099753D01*
X114208236Y-149114820D01*
X114206587Y-149128776D01*
X114205066Y-149141063D01*
X114203735Y-149151126D01*
X114202656Y-149158407D01*
X114201889Y-149162352D01*
X114200878Y-149165121D01*
X114198246Y-149171309D01*
X114194342Y-149179977D01*
X114189429Y-149190555D01*
X114183769Y-149202472D01*
X114177622Y-149215158D01*
X114169623Y-149231557D01*
X114161375Y-149248591D01*
X114154421Y-149263101D01*
X114148852Y-149274892D01*
X114144761Y-149283770D01*
X114142239Y-149289540D01*
X114141378Y-149292008D01*
X114141150Y-149292764D01*
X114139456Y-149296584D01*
X114136341Y-149303032D01*
X114132088Y-149311560D01*
X114126977Y-149321623D01*
X114121289Y-149332672D01*
X114115305Y-149344159D01*
X114109305Y-149355539D01*
X114103572Y-149366262D01*
X114098384Y-149375783D01*
X114087399Y-149394437D01*
X114072014Y-149417825D01*
X114053718Y-149443259D01*
X114044461Y-149455640D01*
X114036313Y-149466479D01*
X114029681Y-149475181D01*
X114024139Y-149482267D01*
X114019263Y-149488260D01*
X114014629Y-149493680D01*
X114009811Y-149499047D01*
X114004385Y-149504884D01*
X113997926Y-149511712D01*
X113995673Y-149514084D01*
X113973884Y-149537026D01*
X113954536Y-149557369D01*
X113937397Y-149575334D01*
X113922239Y-149591140D01*
X113908833Y-149605005D01*
X113896949Y-149617150D01*
X113886358Y-149627794D01*
X113876830Y-149637156D01*
X113868135Y-149645455D01*
X113860045Y-149652911D01*
X113852330Y-149659743D01*
X113844761Y-149666170D01*
X113837108Y-149672411D01*
X113829141Y-149678687D01*
X113820632Y-149685216D01*
X113811351Y-149692218D01*
X113801068Y-149699911D01*
X113795491Y-149704072D01*
X113780617Y-149715081D01*
X113767866Y-149724324D01*
X113756515Y-149732275D01*
X113745842Y-149739412D01*
X113735122Y-149746208D01*
X113723633Y-149753138D01*
X113710652Y-149760678D01*
X113695455Y-149769304D01*
X113674933Y-149780825D01*
X113646924Y-149796368D01*
X113619621Y-149811280D01*
X113591612Y-149826329D01*
X113561482Y-149842287D01*
X113554546Y-149845967D01*
X113547529Y-149849752D01*
X113542408Y-149852588D01*
X113539969Y-149854046D01*
X113538988Y-149854616D01*
X113534856Y-149856429D01*
X113529212Y-149858517D01*
X113524610Y-149860117D01*
X113516904Y-149862835D01*
X113507632Y-149866131D01*
X113497919Y-149869608D01*
X113495954Y-149870313D01*
X113482012Y-149875324D01*
X113470155Y-149879576D01*
X113459899Y-149883228D01*
X113450757Y-149886439D01*
X113442245Y-149889365D01*
X113433876Y-149892167D01*
X113425165Y-149895001D01*
X113415627Y-149898027D01*
X113404775Y-149901402D01*
X113392124Y-149905285D01*
X113377188Y-149909835D01*
X113359483Y-149915209D01*
X113338521Y-149921565D01*
X113337214Y-149921962D01*
X113326881Y-149925102D01*
X113317891Y-149927831D01*
X113309902Y-149930239D01*
X113302570Y-149932413D01*
X113295553Y-149934441D01*
X113288507Y-149936413D01*
X113281090Y-149938417D01*
X113272957Y-149940540D01*
X113263767Y-149942872D01*
X113253175Y-149945501D01*
X113240839Y-149948515D01*
X113226415Y-149952003D01*
X113209561Y-149956052D01*
X113189934Y-149960752D01*
X113167189Y-149966191D01*
X113140985Y-149972457D01*
X113133442Y-149974069D01*
X113122009Y-149976194D01*
X113107644Y-149978646D01*
X113090839Y-149981355D01*
X113072088Y-149984247D01*
X113051885Y-149987251D01*
X113030723Y-149990295D01*
X113009095Y-149993307D01*
X112987496Y-149996214D01*
X112966419Y-149998945D01*
X112946356Y-150001428D01*
X112927803Y-150003589D01*
X112925375Y-150003864D01*
X112914174Y-150005160D01*
X112900428Y-150006787D01*
X112885191Y-150008619D01*
X112869517Y-150010528D01*
X112854460Y-150012389D01*
X112841342Y-150013998D01*
X112806340Y-150018056D01*
X112770690Y-150021870D01*
X112735145Y-150025373D01*
X112700453Y-150028495D01*
X112667366Y-150031169D01*
X112636633Y-150033323D01*
X112609007Y-150034892D01*
X112606859Y-150034996D01*
X112589172Y-150035901D01*
X112570839Y-150036904D01*
X112552771Y-150037951D01*
X112535878Y-150038990D01*
X112521071Y-150039964D01*
X112509261Y-150040821D01*
X112501335Y-150041438D01*
X112484759Y-150042720D01*
X112466884Y-150044096D01*
X112449391Y-150045436D01*
X112433963Y-150046612D01*
X112433352Y-150046658D01*
X112421178Y-150047608D01*
X112410034Y-150048519D01*
X112400637Y-150049332D01*
X112393705Y-150049983D01*
X112389957Y-150050412D01*
X112387302Y-150050688D01*
X112380970Y-150051131D01*
X112372101Y-150051630D01*
X112361474Y-150052141D01*
X112349863Y-150052623D01*
X112344826Y-150052818D01*
X112329911Y-150053421D01*
X112314122Y-150054089D01*
X112299054Y-150054755D01*
X112286300Y-150055350D01*
X112280605Y-150055563D01*
X112270147Y-150055817D01*
X112256446Y-150056047D01*
X112239829Y-150056253D01*
X112220619Y-150056436D01*
X112199143Y-150056595D01*
X112175725Y-150056731D01*
X112150691Y-150056843D01*
X112124365Y-150056932D01*
X112097073Y-150056997D01*
X112069140Y-150057038D01*
X112040892Y-150057055D01*
X112012653Y-150057049D01*
X111984748Y-150057018D01*
X111957503Y-150056964D01*
X111931244Y-150056886D01*
X111906294Y-150056785D01*
X111882979Y-150056659D01*
X111861626Y-150056509D01*
X111842557Y-150056335D01*
X111826100Y-150056137D01*
X111812578Y-150055915D01*
X111802318Y-150055669D01*
X111795644Y-150055399D01*
X111789939Y-150055055D01*
X111762134Y-150053191D01*
X111735110Y-150051077D01*
X111709258Y-150048759D01*
X111684969Y-150046281D01*
X111662634Y-150043689D01*
X111642645Y-150041026D01*
X111625392Y-150038337D01*
X111611267Y-150035668D01*
X111600660Y-150033064D01*
X111595412Y-150031499D01*
X111577435Y-150025843D01*
X111557531Y-150019205D01*
X111536407Y-150011848D01*
X111514774Y-150004036D01*
X111493341Y-149996031D01*
X111472817Y-149988098D01*
X111453911Y-149980499D01*
X111437332Y-149973500D01*
X111423791Y-149967362D01*
X111422869Y-149966919D01*
X111409504Y-149960003D01*
X111393789Y-149951107D01*
X111376380Y-149940657D01*
X111357933Y-149929081D01*
X111339104Y-149916805D01*
X111320549Y-149904257D01*
X111302923Y-149891863D01*
X111286883Y-149880051D01*
X111273084Y-149869247D01*
X111266926Y-149864245D01*
X111256421Y-149855780D01*
X111246180Y-149847602D01*
X111237122Y-149840444D01*
X111230167Y-149835037D01*
X111222326Y-149828902D01*
X111208921Y-149817541D01*
X111198329Y-149807146D01*
X111190060Y-149797259D01*
X111187106Y-149793633D01*
X111181663Y-149787464D01*
X111174558Y-149779721D01*
X111166375Y-149771039D01*
X111157697Y-149762054D01*
X111149884Y-149753909D01*
X111142016Y-149745373D01*
X111135334Y-149737779D01*
X111130370Y-149731729D01*
X111127654Y-149727828D01*
X111126626Y-149725982D01*
X111122293Y-149718877D01*
X111117772Y-149712181D01*
X111114905Y-149707870D01*
X111109452Y-149696007D01*
X111106658Y-149682488D01*
X111106331Y-149666551D01*
X111106339Y-149666383D01*
X111106997Y-149657227D01*
X111108177Y-149650386D01*
X111110273Y-149644290D01*
X111113682Y-149637368D01*
X111122043Y-149624775D01*
X111134168Y-149612860D01*
X111148658Y-149603948D01*
X111151735Y-149602558D01*
X111157143Y-149600571D01*
X111162709Y-149599415D01*
X111169684Y-149598877D01*
X111179316Y-149598745D01*
X111184212Y-149598770D01*
X111192485Y-149599070D01*
X111198668Y-149599875D01*
X111203999Y-149601393D01*
X111209720Y-149603832D01*
X111214917Y-149606473D01*
X111225408Y-149613491D01*
X111234894Y-149622635D01*
X111244317Y-149634748D01*
X111245831Y-149636824D01*
X111251354Y-149643732D01*
X111258592Y-149652173D01*
X111266778Y-149661266D01*
X111275146Y-149670132D01*
X111279071Y-149674209D01*
X111286864Y-149682476D01*
X111293822Y-149690074D01*
X111299306Y-149696298D01*
X111302677Y-149700447D01*
X111304514Y-149702858D01*
X111308720Y-149707794D01*
X111312059Y-149710992D01*
X111313714Y-149712271D01*
X111318233Y-149715829D01*
X111324993Y-149721184D01*
X111333534Y-149727971D01*
X111343393Y-149735822D01*
X111354110Y-149744372D01*
X111373994Y-149759960D01*
X111400764Y-149779837D01*
X111426483Y-149797434D01*
X111451857Y-149813134D01*
X111477592Y-149827318D01*
X111504394Y-149840368D01*
X111532969Y-149852668D01*
X111564024Y-149864599D01*
X111598263Y-149876544D01*
X111600377Y-149877252D01*
X111614219Y-149881851D01*
X111625373Y-149885427D01*
X111634732Y-149888189D01*
X111643188Y-149890346D01*
X111651637Y-149892109D01*
X111660971Y-149893688D01*
X111672084Y-149895293D01*
X111685868Y-149897133D01*
X111695877Y-149898422D01*
X111712833Y-149900466D01*
X111729622Y-149902286D01*
X111746538Y-149903892D01*
X111763869Y-149905295D01*
X111781909Y-149906504D01*
X111800948Y-149907530D01*
X111821277Y-149908382D01*
X111843187Y-149909071D01*
X111866969Y-149909606D01*
X111892916Y-149909998D01*
X111921317Y-149910256D01*
X111952464Y-149910390D01*
X111986649Y-149910411D01*
X112024162Y-149910328D01*
X112065294Y-149910151D01*
X112072296Y-149910115D01*
X112111989Y-149909873D01*
X112148128Y-149909587D01*
X112181020Y-149909247D01*
X112210972Y-149908846D01*
X112238288Y-149908374D01*
X112263277Y-149907825D01*
X112286245Y-149907188D01*
X112307497Y-149906457D01*
X112327341Y-149905622D01*
X112346082Y-149904676D01*
X112364028Y-149903610D01*
X112381484Y-149902415D01*
X112398758Y-149901084D01*
X112406220Y-149900482D01*
X112418589Y-149899496D01*
X112432712Y-149898377D01*
X112447370Y-149897224D01*
X112461344Y-149896132D01*
X112461590Y-149896112D01*
X112473955Y-149895129D01*
X112485472Y-149894177D01*
X112495379Y-149893322D01*
X112502911Y-149892629D01*
X112507305Y-149892164D01*
X112508911Y-149892005D01*
X112514623Y-149891590D01*
X112523419Y-149891047D01*
X112534760Y-149890406D01*
X112548111Y-149889697D01*
X112562934Y-149888950D01*
X112578692Y-149888194D01*
X112592006Y-149887564D01*
X112609551Y-149886697D01*
X112624992Y-149885865D01*
X112639079Y-149885014D01*
X112652561Y-149884086D01*
X112666187Y-149883026D01*
X112680706Y-149881777D01*
X112696867Y-149880284D01*
X112715419Y-149878490D01*
X112737112Y-149876341D01*
X112750584Y-149874971D01*
X112774888Y-149872396D01*
X112800591Y-149869554D01*
X112827341Y-149866491D01*
X112854785Y-149863255D01*
X112882571Y-149859890D01*
X112910347Y-149856442D01*
X112937759Y-149852959D01*
X112964455Y-149849486D01*
X112990083Y-149846069D01*
X113014291Y-149842754D01*
X113036725Y-149839588D01*
X113057033Y-149836616D01*
X113074863Y-149833885D01*
X113089862Y-149831440D01*
X113101677Y-149829327D01*
X113109957Y-149827594D01*
X113131077Y-149822538D01*
X113157574Y-149816168D01*
X113180693Y-149810575D01*
X113200685Y-149805696D01*
X113217802Y-149801467D01*
X113232297Y-149797826D01*
X113244421Y-149794710D01*
X113254427Y-149792056D01*
X113262566Y-149789801D01*
X113269090Y-149787883D01*
X113274368Y-149786269D01*
X113283508Y-149783470D01*
X113293944Y-149780269D01*
X113304295Y-149777091D01*
X113308281Y-149775867D01*
X113319517Y-149772423D01*
X113332604Y-149768418D01*
X113346223Y-149764254D01*
X113359057Y-149760335D01*
X113365443Y-149758383D01*
X113376102Y-149755089D01*
X113385424Y-149752137D01*
X113394244Y-149749246D01*
X113403397Y-149746133D01*
X113413717Y-149742518D01*
X113426040Y-149738120D01*
X113441201Y-149732656D01*
X113450073Y-149729472D01*
X113458442Y-149726510D01*
X113465003Y-149724232D01*
X113468822Y-149722965D01*
X113470331Y-149722379D01*
X113475574Y-149719918D01*
X113483709Y-149715824D01*
X113494398Y-149710278D01*
X113507302Y-149703461D01*
X113522084Y-149695554D01*
X113538406Y-149686739D01*
X113555930Y-149677196D01*
X113574318Y-149667108D01*
X113593232Y-149656655D01*
X113612333Y-149646018D01*
X113614409Y-149644857D01*
X113629996Y-149636069D01*
X113643146Y-149628471D01*
X113654647Y-149621547D01*
X113665288Y-149614784D01*
X113675856Y-149607668D01*
X113687141Y-149599684D01*
X113699931Y-149590319D01*
X113715013Y-149579058D01*
X113718224Y-149576641D01*
X113731407Y-149566565D01*
X113743850Y-149556827D01*
X113755067Y-149547819D01*
X113764575Y-149539935D01*
X113771890Y-149533568D01*
X113776528Y-149529111D01*
X113779704Y-149525723D01*
X113785922Y-149519146D01*
X113794121Y-149510509D01*
X113803893Y-149500241D01*
X113814825Y-149488772D01*
X113826508Y-149476533D01*
X113838530Y-149463952D01*
X113850481Y-149451461D01*
X113861950Y-149439489D01*
X113872527Y-149428466D01*
X113881800Y-149418823D01*
X113889360Y-149410988D01*
X113891367Y-149408831D01*
X113896917Y-149402438D01*
X113903946Y-149393954D01*
X113912015Y-149383946D01*
X113920683Y-149372983D01*
X113929510Y-149361634D01*
X113938057Y-149350465D01*
X113945882Y-149340047D01*
X113952546Y-149330947D01*
X113957608Y-149323733D01*
X113960628Y-149318974D01*
X113969514Y-149302826D01*
X113980590Y-149282230D01*
X113990416Y-149263281D01*
X113999483Y-149245008D01*
X114008281Y-149226440D01*
X114017299Y-149206607D01*
X114019981Y-149200803D01*
X114024026Y-149192301D01*
X114029043Y-149181911D01*
X114034644Y-149170439D01*
X114040439Y-149158689D01*
X114057898Y-149123485D01*
X114062275Y-149087303D01*
X114063794Y-149074365D01*
X114068964Y-149022780D01*
X114072789Y-148971012D01*
X114075239Y-148919821D01*
X114076285Y-148869967D01*
X114075899Y-148822209D01*
X114074051Y-148777308D01*
X114072283Y-148750736D01*
X114069625Y-148719420D01*
X114066412Y-148690456D01*
X114062520Y-148662976D01*
X114057822Y-148636111D01*
X114052191Y-148608992D01*
X114045502Y-148580750D01*
X114043686Y-148573504D01*
X114036598Y-148545900D01*
X114030018Y-148521586D01*
X114023781Y-148500111D01*
X114017721Y-148481029D01*
X114011675Y-148463889D01*
X114005476Y-148448245D01*
X113998960Y-148433647D01*
X113991961Y-148419648D01*
X113984314Y-148405798D01*
X113975854Y-148391649D01*
X113954596Y-148358067D01*
X113932467Y-148325163D01*
X113910626Y-148295053D01*
X113888626Y-148267250D01*
X113866017Y-148241266D01*
X113842354Y-148216612D01*
X113817188Y-148192800D01*
X113790072Y-148169341D01*
X113760558Y-148145748D01*
X113728198Y-148121533D01*
X113725070Y-148119257D01*
X113716481Y-148113006D01*
X113708859Y-148107458D01*
X113702935Y-148103145D01*
X113699444Y-148100601D01*
X113697349Y-148099125D01*
X113692131Y-148095531D01*
X113684569Y-148090367D01*
X113675171Y-148083980D01*
X113664446Y-148076715D01*
X113652905Y-148068921D01*
X113643135Y-148062423D01*
X113629772Y-148053865D01*
X113616147Y-148045564D01*
X113601843Y-148037299D01*
X113586442Y-148028846D01*
X113569526Y-148019984D01*
X113550678Y-148010490D01*
X113529480Y-148000141D01*
X113505513Y-147988716D01*
X113478361Y-147975992D01*
X113455239Y-147965485D01*
X113426681Y-147953087D01*
X113396474Y-147940509D01*
X113365260Y-147927996D01*
X113333683Y-147915789D01*
X113302383Y-147904133D01*
X113272004Y-147893271D01*
X113243188Y-147883445D01*
X113216577Y-147874900D01*
X113192814Y-147867877D01*
X113191162Y-147867416D01*
X113181619Y-147864753D01*
X113173900Y-147862590D01*
X113167387Y-147860738D01*
X113161466Y-147859009D01*
X113155519Y-147857214D01*
X113148930Y-147855165D01*
X113141082Y-147852673D01*
X113131360Y-147849550D01*
X113119146Y-147845607D01*
X113103825Y-147840656D01*
X113097545Y-147838654D01*
X113083608Y-147834384D01*
X113070090Y-147830458D01*
X113057812Y-147827104D01*
X113047595Y-147824549D01*
X113040261Y-147823022D01*
X113039960Y-147822972D01*
X113030569Y-147821374D01*
X113018852Y-147819339D01*
X113006274Y-147817122D01*
X112994300Y-147814981D01*
X112989158Y-147814088D01*
X112978409Y-147812331D01*
X112964923Y-147810220D01*
X112949395Y-147807859D01*
X112932517Y-147805354D01*
X112914984Y-147802810D01*
X112897488Y-147800330D01*
X112828057Y-147790621D01*
X112581626Y-147790616D01*
X112557200Y-147790624D01*
X112525791Y-147790662D01*
X112495050Y-147790728D01*
X112465272Y-147790820D01*
X112436750Y-147790936D01*
X112409781Y-147791075D01*
X112384659Y-147791234D01*
X112361679Y-147791411D01*
X112341136Y-147791606D01*
X112323325Y-147791815D01*
X112308541Y-147792036D01*
X112297079Y-147792269D01*
X112289233Y-147792511D01*
X112262241Y-147793616D01*
X112203023Y-147795972D01*
X112142623Y-147798286D01*
X112082896Y-147800488D01*
X112072792Y-147800869D01*
X112057512Y-147801534D01*
X112043505Y-147802295D01*
X112030035Y-147803215D01*
X112016367Y-147804357D01*
X112001766Y-147805786D01*
X111985497Y-147807565D01*
X111966824Y-147809757D01*
X111945012Y-147812427D01*
X111944094Y-147812541D01*
X111921269Y-147815507D01*
X111897203Y-147818861D01*
X111872406Y-147822518D01*
X111847392Y-147826390D01*
X111822673Y-147830390D01*
X111798761Y-147834434D01*
X111776169Y-147838433D01*
X111755410Y-147842301D01*
X111736995Y-147845952D01*
X111721439Y-147849298D01*
X111709252Y-147852255D01*
X111707111Y-147852821D01*
X111698300Y-147855152D01*
X111686877Y-147858174D01*
X111673726Y-147861654D01*
X111659730Y-147865358D01*
X111645774Y-147869052D01*
X111641586Y-147870166D01*
X111627395Y-147874004D01*
X111613355Y-147877889D01*
X111600376Y-147881567D01*
X111589365Y-147884778D01*
X111581233Y-147887268D01*
X111568548Y-147891309D01*
X111523318Y-147905476D01*
X111476598Y-147919759D01*
X111471604Y-147921296D01*
X111457073Y-147926007D01*
X111441652Y-147931290D01*
X111426891Y-147936605D01*
X111414346Y-147941410D01*
X111402372Y-147946433D01*
X111386978Y-147953309D01*
X111369721Y-147961345D01*
X111351401Y-147970152D01*
X111332817Y-147979339D01*
X111314772Y-147988515D01*
X111298064Y-147997289D01*
X111283494Y-148005272D01*
X111276458Y-148009215D01*
X111267513Y-148014173D01*
X111259689Y-148018453D01*
X111254125Y-148021429D01*
X111250485Y-148023412D01*
X111246417Y-148025916D01*
X111244835Y-148027329D01*
X111244915Y-148027447D01*
X111247309Y-148028775D01*
X111252537Y-148031153D01*
X111259923Y-148034286D01*
X111268794Y-148037875D01*
X111270460Y-148038540D01*
X111280288Y-148042580D01*
X111292505Y-148047746D01*
X111306143Y-148053622D01*
X111320239Y-148059793D01*
X111333824Y-148065844D01*
X111354056Y-148074885D01*
X111387852Y-148089693D01*
X111421617Y-148104095D01*
X111456107Y-148118403D01*
X111492073Y-148132928D01*
X111530271Y-148147979D01*
X111571454Y-148163869D01*
X111571683Y-148163957D01*
X111588538Y-148170416D01*
X111605131Y-148176802D01*
X111620894Y-148182893D01*
X111635264Y-148188472D01*
X111647674Y-148193318D01*
X111657560Y-148197212D01*
X111664355Y-148199934D01*
X111681524Y-148206943D01*
X111702358Y-148215487D01*
X111720905Y-148223155D01*
X111737942Y-148230276D01*
X111754245Y-148237179D01*
X111770592Y-148244194D01*
X111787759Y-148251650D01*
X111806524Y-148259878D01*
X111827664Y-148269206D01*
X111838570Y-148273927D01*
X111852202Y-148279650D01*
X111866102Y-148285337D01*
X111878515Y-148290260D01*
X111881271Y-148291330D01*
X111892071Y-148295522D01*
X111905221Y-148300630D01*
X111919736Y-148306271D01*
X111934632Y-148312061D01*
X111948924Y-148317619D01*
X111952006Y-148318824D01*
X111976681Y-148328818D01*
X112004359Y-148340609D01*
X112035137Y-148354240D01*
X112069107Y-148369751D01*
X112106366Y-148387186D01*
X112107650Y-148387792D01*
X112114528Y-148391020D01*
X112124406Y-148395638D01*
X112136855Y-148401446D01*
X112151441Y-148408242D01*
X112167734Y-148415826D01*
X112185303Y-148423996D01*
X112203716Y-148432552D01*
X112222541Y-148441292D01*
X112228497Y-148444057D01*
X112246987Y-148452641D01*
X112264777Y-148460904D01*
X112281460Y-148468655D01*
X112296628Y-148475706D01*
X112309875Y-148481868D01*
X112320794Y-148486951D01*
X112328979Y-148490767D01*
X112334022Y-148493125D01*
X112341225Y-148496504D01*
X112351940Y-148501492D01*
X112359898Y-148505102D01*
X112365599Y-148507524D01*
X112369546Y-148508954D01*
X112372239Y-148509582D01*
X112374181Y-148509602D01*
X112375874Y-148509207D01*
X112376600Y-148508937D01*
X112380693Y-148507198D01*
X112387669Y-148504106D01*
X112397055Y-148499874D01*
X112408377Y-148494716D01*
X112421163Y-148488847D01*
X112434941Y-148482481D01*
X112448069Y-148476433D01*
X112466514Y-148468029D01*
X112485913Y-148459281D01*
X112505141Y-148450690D01*
X112523077Y-148442761D01*
X112538598Y-148435997D01*
X112544025Y-148433655D01*
X112560105Y-148426696D01*
X112573599Y-148420813D01*
X112585287Y-148415651D01*
X112595947Y-148410859D01*
X112606359Y-148406084D01*
X112617303Y-148400973D01*
X112629558Y-148395173D01*
X112643904Y-148388331D01*
X112649111Y-148385847D01*
X112657849Y-148381708D01*
X112664923Y-148378392D01*
X112669714Y-148376189D01*
X112671599Y-148375391D01*
X112671837Y-148375322D01*
X112674640Y-148374148D01*
X112679847Y-148371823D01*
X112686576Y-148368737D01*
X112691951Y-148366373D01*
X112700926Y-148362656D01*
X112711890Y-148358277D01*
X112723931Y-148353601D01*
X112736134Y-148348991D01*
X112743864Y-148346102D01*
X112758791Y-148340463D01*
X112774356Y-148334519D01*
X112789122Y-148328822D01*
X112801653Y-148323920D01*
X112831968Y-148311941D01*
X112813388Y-148308466D01*
X112812495Y-148308300D01*
X112807159Y-148307333D01*
X112801887Y-148306448D01*
X112796490Y-148305642D01*
X112790778Y-148304909D01*
X112784561Y-148304246D01*
X112777652Y-148303647D01*
X112769859Y-148303109D01*
X112760994Y-148302627D01*
X112750869Y-148302196D01*
X112739292Y-148301813D01*
X112726075Y-148301473D01*
X112711030Y-148301171D01*
X112693965Y-148300903D01*
X112674693Y-148300665D01*
X112653024Y-148300453D01*
X112628768Y-148300261D01*
X112601736Y-148300086D01*
X112571740Y-148299924D01*
X112538589Y-148299768D01*
X112502094Y-148299617D01*
X112462066Y-148299464D01*
X112418316Y-148299306D01*
X112088764Y-148298137D01*
X112077524Y-148293598D01*
X112069765Y-148289778D01*
X112057435Y-148280844D01*
X112046707Y-148269511D01*
X112038577Y-148256725D01*
X112033359Y-148242552D01*
X112031122Y-148226370D01*
X112032460Y-148210116D01*
X112037315Y-148194431D01*
X112045626Y-148179960D01*
X112053615Y-148170878D01*
X112063853Y-148162991D01*
X112077029Y-148155943D01*
X112086808Y-148151451D01*
X112394518Y-148150938D01*
X112407766Y-148150917D01*
X112447492Y-148150854D01*
X112483591Y-148150804D01*
X112516277Y-148150768D01*
X112545768Y-148150749D01*
X112572279Y-148150748D01*
X112596027Y-148150768D01*
X112617227Y-148150811D01*
X112636095Y-148150878D01*
X112652847Y-148150971D01*
X112667700Y-148151093D01*
X112680869Y-148151245D01*
X112692571Y-148151430D01*
X112703021Y-148151650D01*
X112712436Y-148151906D01*
X112721031Y-148152200D01*
X112729022Y-148152536D01*
X112736627Y-148152913D01*
X112744059Y-148153335D01*
X112751537Y-148153804D01*
X112759275Y-148154321D01*
X112760486Y-148154405D01*
X112782936Y-148156075D01*
X112802191Y-148157797D01*
X112818934Y-148159645D01*
X112833847Y-148161694D01*
X112847615Y-148164020D01*
X112850875Y-148164622D01*
X112864469Y-148167101D01*
X112878755Y-148169664D01*
X112892221Y-148172040D01*
X112903355Y-148173961D01*
X112911334Y-148175420D01*
X112925103Y-148178277D01*
X112939099Y-148181509D01*
X112951272Y-148184659D01*
X112960582Y-148187024D01*
X112974158Y-148189950D01*
X112988221Y-148192525D01*
X113000882Y-148194378D01*
X113013633Y-148196161D01*
X113029289Y-148199290D01*
X113041954Y-148203151D01*
X113042738Y-148203442D01*
X113057243Y-148207645D01*
X113071554Y-148209821D01*
X113072687Y-148209909D01*
X113086735Y-148211795D01*
X113101607Y-148215023D01*
X113115726Y-148219196D01*
X113127513Y-148223915D01*
X113136221Y-148229088D01*
X113145957Y-148236645D01*
X113155228Y-148245397D01*
X113163014Y-148254377D01*
X113168298Y-148262618D01*
X113169869Y-148266046D01*
X113174716Y-148282205D01*
X113175937Y-148299189D01*
X113173538Y-148316485D01*
X113167524Y-148333582D01*
X113163305Y-148341561D01*
X113153418Y-148354536D01*
X113141019Y-148364615D01*
X113125970Y-148371897D01*
X113108135Y-148376483D01*
X113099558Y-148378022D01*
X113081394Y-148381792D01*
X113063931Y-148386063D01*
X113048235Y-148390562D01*
X113035372Y-148395019D01*
X113033008Y-148395924D01*
X113025176Y-148398795D01*
X113014747Y-148402501D01*
X113002506Y-148406767D01*
X112989236Y-148411320D01*
X112975720Y-148415885D01*
X112974335Y-148416350D01*
X112958707Y-148421762D01*
X112941696Y-148427901D01*
X112924579Y-148434291D01*
X112908636Y-148440455D01*
X112895144Y-148445917D01*
X112885341Y-148449957D01*
X112870999Y-148455738D01*
X112854752Y-148462180D01*
X112837562Y-148468904D01*
X112820390Y-148475533D01*
X112804199Y-148481688D01*
X112801812Y-148482590D01*
X112775775Y-148492810D01*
X112748094Y-148504290D01*
X112720340Y-148516364D01*
X112694084Y-148528366D01*
X112679337Y-148535240D01*
X112660985Y-148543669D01*
X112641903Y-148552322D01*
X112623156Y-148560721D01*
X112605807Y-148568385D01*
X112590921Y-148574836D01*
X112578666Y-148580107D01*
X112567332Y-148585052D01*
X112557757Y-148589300D01*
X112550403Y-148592646D01*
X112545730Y-148594883D01*
X112544199Y-148595803D01*
X112544652Y-148596099D01*
X112547899Y-148597996D01*
X112553838Y-148601382D01*
X112561969Y-148605975D01*
X112571796Y-148611494D01*
X112582820Y-148617657D01*
X112594765Y-148624331D01*
X112609259Y-148632449D01*
X112625375Y-148641490D01*
X112642220Y-148650954D01*
X112658901Y-148660338D01*
X112674526Y-148669141D01*
X112689431Y-148677526D01*
X112706656Y-148687178D01*
X112724322Y-148697043D01*
X112741469Y-148706586D01*
X112757136Y-148715271D01*
X112770361Y-148722563D01*
X112779871Y-148727798D01*
X112802113Y-148740142D01*
X112824315Y-148752594D01*
X112846100Y-148764934D01*
X112867089Y-148776944D01*
X112886907Y-148788403D01*
X112905173Y-148799094D01*
X112921512Y-148808796D01*
X112935545Y-148817292D01*
X112946895Y-148824361D01*
X112955184Y-148829785D01*
X112955235Y-148829820D01*
X112960570Y-148833580D01*
X112968289Y-148839168D01*
X112977668Y-148846055D01*
X112987985Y-148853710D01*
X112998518Y-148861604D01*
X113003791Y-148865538D01*
X113016025Y-148874487D01*
X113030088Y-148884587D01*
X113045036Y-148895170D01*
X113059927Y-148905565D01*
X113073817Y-148915102D01*
X113084040Y-148922061D01*
X113096286Y-148930428D01*
X113107737Y-148938283D01*
X113117781Y-148945207D01*
X113125808Y-148950778D01*
X113131206Y-148954578D01*
X113131584Y-148954846D01*
X113140298Y-148960643D01*
X113146006Y-148964096D01*
X113149975Y-148966497D01*
G37*
%TD*%
D11*
%TO.C,H1*%
X100908268Y-102308273D03*
X101391542Y-101141547D03*
X101391542Y-103474999D03*
X102558268Y-100658273D03*
D12*
X102558268Y-102308273D03*
D11*
X102558268Y-103958273D03*
X103724994Y-101141547D03*
X103724994Y-103474999D03*
X104208268Y-102308273D03*
%TD*%
D13*
%TO.C,SW4*%
X108019994Y-120949999D03*
D14*
X113099994Y-120949999D03*
D13*
X118179994Y-120949999D03*
D15*
X116909994Y-118409999D03*
X110559994Y-115869999D03*
%TD*%
D16*
%TO.C,J7*%
X141039994Y-120949999D03*
D17*
X141039994Y-123489999D03*
X141039994Y-126029999D03*
X141039994Y-128569999D03*
X141039994Y-131109999D03*
X141039994Y-133649999D03*
%TD*%
D18*
%TO.C,J1*%
X130999918Y-96155612D03*
X125200070Y-96155612D03*
D19*
X123774873Y-96655739D03*
D20*
X123774873Y-92475907D03*
X132425115Y-92475907D03*
D19*
X132425115Y-96655739D03*
%TD*%
D18*
%TO.C,J2*%
X100999918Y-96155612D03*
X95200070Y-96155612D03*
D19*
X93774873Y-96655739D03*
D20*
X93774873Y-92475907D03*
X102425115Y-92475907D03*
D19*
X102425115Y-96655739D03*
%TD*%
D13*
%TO.C,SW3*%
X88970000Y-120950000D03*
D14*
X94050000Y-120950000D03*
D13*
X99130000Y-120950000D03*
D15*
X97860000Y-118410000D03*
X91510000Y-115870000D03*
%TD*%
D16*
%TO.C,J5*%
X141039994Y-93009999D03*
D17*
X141039994Y-95549999D03*
X141039994Y-98089999D03*
X141039994Y-100629999D03*
X141039994Y-103169999D03*
X141039994Y-105709999D03*
X141039994Y-108249999D03*
X141039994Y-110789999D03*
X141039994Y-113329999D03*
X141039994Y-115869999D03*
%TD*%
D13*
%TO.C,SW6*%
X88970000Y-140000000D03*
D14*
X94050000Y-140000000D03*
D13*
X99130000Y-140000000D03*
D15*
X97860000Y-137460000D03*
X91510000Y-134920000D03*
%TD*%
D11*
%TO.C,H3*%
X134933268Y-130733273D03*
X135416542Y-129566547D03*
X135416542Y-131899999D03*
X136583268Y-129083273D03*
D12*
X136583268Y-130733273D03*
D11*
X136583268Y-132383273D03*
X137749994Y-129566547D03*
X137749994Y-131899999D03*
X138233268Y-130733273D03*
%TD*%
D13*
%TO.C,SW8*%
X127070000Y-140000000D03*
D14*
X132150000Y-140000000D03*
D13*
X137230000Y-140000000D03*
D15*
X135960000Y-137460000D03*
X129610000Y-134920000D03*
%TD*%
D13*
%TO.C,SW7*%
X108020000Y-140000000D03*
D14*
X113100000Y-140000000D03*
D13*
X118180000Y-140000000D03*
D15*
X116910000Y-137460000D03*
X110560000Y-134920000D03*
%TD*%
D16*
%TO.C,J8*%
X141039994Y-141269999D03*
D17*
X141039994Y-143809999D03*
X141039994Y-146349999D03*
X141039994Y-148889999D03*
%TD*%
D13*
%TO.C,SW5*%
X127070000Y-120950000D03*
D14*
X132150000Y-120950000D03*
D13*
X137230000Y-120950000D03*
D15*
X135960000Y-118410000D03*
X129610000Y-115870000D03*
%TD*%
D11*
%TO.C,H2*%
X101974994Y-147999999D03*
X102458268Y-146833273D03*
X102458268Y-149166725D03*
X103624994Y-146349999D03*
D12*
X103624994Y-147999999D03*
D11*
X103624994Y-149649999D03*
X104791720Y-146833273D03*
X104791720Y-149166725D03*
X105274994Y-147999999D03*
%TD*%
D18*
%TO.C,J3*%
X115999918Y-96155612D03*
X110200070Y-96155612D03*
D19*
X108774873Y-96655739D03*
D20*
X108774873Y-92475907D03*
X117425115Y-92475907D03*
D19*
X117425115Y-96655739D03*
%TD*%
D16*
%TO.C,J6*%
X85159994Y-93009999D03*
D17*
X85159994Y-95549999D03*
X85159994Y-98089999D03*
X85159994Y-100629999D03*
X85159994Y-103169999D03*
X85159994Y-105709999D03*
X85159994Y-108249999D03*
X85159994Y-110789999D03*
X85159994Y-113329999D03*
X85159994Y-115869999D03*
X85159994Y-118409999D03*
X85159994Y-120949999D03*
X85159994Y-123489999D03*
X85159994Y-126029999D03*
X85159994Y-128569999D03*
X85159994Y-131109999D03*
X85159994Y-133649999D03*
X85159994Y-136189999D03*
X85159994Y-138729999D03*
X85159994Y-141269999D03*
X85159994Y-143809999D03*
X85159994Y-146349999D03*
X85159994Y-148889999D03*
%TD*%
D21*
%TO.C,TP18*%
X109379988Y-112929998D03*
%TD*%
D22*
%TO.C,J9*%
X89224994Y-100434999D03*
X90240994Y-105514999D03*
X88208994Y-105514999D03*
D23*
X89859994Y-101704999D03*
X88589994Y-101704999D03*
X89859994Y-102974999D03*
X88589994Y-102974999D03*
X89859994Y-104244999D03*
X88589994Y-104244999D03*
%TD*%
D21*
%TO.C,TP19*%
X128429994Y-112929999D03*
%TD*%
%TO.C,TP20*%
X90329994Y-131979999D03*
%TD*%
%TO.C,TP10*%
X115224994Y-93974999D03*
%TD*%
%TO.C,TP9*%
X113099994Y-92929999D03*
%TD*%
%TO.C,TP12*%
X95024994Y-110274999D03*
%TD*%
%TO.C,TP2*%
X128159994Y-96639999D03*
%TD*%
%TO.C,TP4*%
X121999994Y-97474999D03*
%TD*%
%TO.C,TP1*%
X128624994Y-94649999D03*
%TD*%
%TO.C,TP7*%
X120624994Y-98924999D03*
%TD*%
%TO.C,TP6*%
X133824994Y-104424999D03*
%TD*%
%TO.C,TP13*%
X127579994Y-110209999D03*
%TD*%
%TO.C,TP21*%
X109379994Y-131979999D03*
%TD*%
%TO.C,TP22*%
X128429994Y-131979999D03*
%TD*%
%TO.C,TP15*%
X125899994Y-104249999D03*
%TD*%
%TO.C,TP3*%
X133874994Y-108999999D03*
%TD*%
%TO.C,TP17*%
X90329994Y-112929999D03*
%TD*%
%TO.C,TP8*%
X116549994Y-100974999D03*
%TD*%
%TO.C,TP14*%
X127474994Y-107899999D03*
%TD*%
%TO.C,TP5*%
X121199994Y-92199999D03*
%TD*%
%TO.C,TP16*%
X130474994Y-103499999D03*
%TD*%
%TO.C,TP11*%
X120599994Y-96049999D03*
%TD*%
M02*
